{
copyright = "Copyright 2025 The Angelica Project Authors (https://github.com/vladimirnikolic1/Angelica)";
designer = "Vladimir Nikolic";
designerURL = "https://www.coroflot.com/vladimirnikolic";
familyName = Angelica;
customParameters = (
{
name = glyphOrder;
value = (
.notdef,
C,
D,
E,
F,
G,
H,
I,
J,
K,
L,
M,
N,
O,
P,
Q,
S,
T,
U,
V,
W,
X,
Y,
Z,
zero,
one,
two,
three,
four,
five,
six,
seven,
eight,
nine,
colon,
semicolon,
question,
space,
exclam,
NULL,
CR,
A,
a,
b,
c,
d,
e,
f,
g,
h,
i,
j,
k,
l,
m,
n,
o,
p,
q,
r,
s,
t,
u,
v,
w,
x,
y,
z,
quotedbl,
numbersign,
dollar,
percent,
ampersand,
quotesingle,
parenleft,
parenright,
asterisk,
plus,
comma,
hyphen,
period,
slash,
less,
equal,
greater,
bracketleft,
backslash,
bracketright,
asciicircum,
underscore,
braceleft,
bar,
braceright,
asciitilde,
at,
grave,
Euro,
quotedblbase,
ellipsis,
quoteleft,
quotedblleft,
quotedblright,
bullet,
endash,
emdash,
trademark,
section,
dieresis,
copyright,
adieresis,
Adieresis,
ogonek,
Aogonek,
cedilla,
aogonek,
scedilla,
caron,
breve,
abreve,
Abreve,
acute,
oacute,
Oacute,
nacute,
Nacute,
dcaron,
Dcaron,
iacute,
Iacute,
ecaron,
Ecaron,
edieresis,
Edieresis,
eogonek,
Eogonek,
eacute,
Eacute,
ccaron,
Ccaron,
ccedilla,
Ccedilla,
cacute,
Cacute,
lacute,
Lacute,
hungarumlaut,
uhungarumlaut,
Uhungarumlaut,
udieresis,
Udieresis,
yacute,
Yacute,
uacute,
Uacute,
rcaron,
R,
Rcaron,
divide,
multiply,
odieresis,
ohungarumlaut,
Ohungarumlaut,
Odieresis,
germandbls,
guilsinglright,
guilsinglleft,
zacute,
zcaron,
tcaron,
sacute,
Sacute,
Tcaron,
Zcaron,
Zacute,
scaron,
Scaron,
aacute,
Aacute,
racute,
Racute,
registered,
degree,
paragraph,
middot.001,
Scedilla,
Lslash,
lslash,
lcaron,
quoteright,
Lcaron,
Dcroat,
dcroat,
ncaron,
Ncaron,
ring,
Oslash,
oslash,
ugrave,
Ugrave,
ydieresis,
ydieresis.001,
agrave,
Agrave,
aring,
Aring,
ae,
AE,
egrave,
Egrave,
igrave,
Igrave,
idieresis,
Idieresis,
Eth,
eth,
ograve,
Ograve,
dotaccent,
dotlessi,
Ydieresis,
oe,
OE,
exclamdown,
cent,
sterling,
yen,
guillemotleft,

glyphs = (
{
glyphname = .notdef;
layers = (
{
layerId = "CD3DF19A-D83F-4C46-B819-463B69F1BB92";
paths = (
{
nodes = (
"680 790 LINE",
"680 -141 LINE",
"41 -141 LINE",
"41 790 LINE"
);
},
{
nodes = (
"581 -35 LINE",
"581 683 LINE",
"138 683 LINE",
"138 -35 LINE"
);
}
);
width = 728;
}
);
},
{
glyphname = C;
layers = (
{
layerId = "CD3DF19A-D83F-4C46-B819-463B69F1BB92";
paths = (
{
nodes = (
"606 468 LINE",
"606 244 LINE",
"727 244 LINE",
"727 238 LINE",
"814 151 LINE",
"814 95 OFFCURVE",
"776 -5 OFFCURVE",
"711 -79 OFFCURVE",
"624 -122 OFFCURVE",
"574 -122 QCURVE SMOOTH",
"365 -122 LINE SMOOTH",
"315 -122 OFFCURVE",
"228 -84 OFFCURVE",
"196 -52 QCURVE SMOOTH",
"134 10 LINE",
"87 43 OFFCURVE",
"32 146 OFFCURVE",
"32 209 QCURVE SMOOTH",
"32 487 LINE SMOOTH",
"32 538 OFFCURVE",
"70 627 OFFCURVE",
"136 693 OFFCURVE",
"224 731 OFFCURVE",
"275 731 QCURVE SMOOTH",
"484 731 LINE SMOOTH",
"540 731 OFFCURVE",
"635 678 OFFCURVE",
"669 633 QCURVE",
"732 570 LINE SMOOTH",
"770 532 OFFCURVE",
"814 426 OFFCURVE",
"814 365 QCURVE",
"713 365 LINE"
);
},
{
nodes = (
"692 487 LINE",
"692 530 OFFCURVE",
"659 606 OFFCURVE",
"603 663 OFFCURVE",
"527 696 OFFCURVE",
"484 696 QCURVE SMOOTH",
"275 696 LINE SMOOTH",
"232 696 OFFCURVE",
"156 663 OFFCURVE",
"100 606 OFFCURVE",
"67 530 OFFCURVE",
"67 487 QCURVE SMOOTH",
"67 209 LINE SMOOTH",
"67 166 OFFCURVE",
"100 90 OFFCURVE",
"156 33 OFFCURVE",
"232 0 OFFCURVE",
"275 0 QCURVE SMOOTH",
"484 0 LINE SMOOTH",
"527 0 OFFCURVE",
"603 33 OFFCURVE",
"659 90 OFFCURVE",
"692 166 OFFCURVE",
"692 209 QCURVE",
"623 209 LINE",
"623 180 OFFCURVE",
"601 129 OFFCURVE",
"564 92 OFFCURVE",
"513 70 OFFCURVE",
"484 70 QCURVE",
"484 626 LINE",
"513 626 OFFCURVE",
"564 604 OFFCURVE",
"601 567 OFFCURVE",
"623 516 OFFCURVE",
"623 487 QCURVE"
);
}
);
width = 838;
}
);
unicode = 0043;
},
{
glyphname = D;
layers = (
{
layerId = "CD3DF19A-D83F-4C46-B819-463B69F1BB92";
paths = (
{
nodes = (
"37 -35 LINE",
"31 -35 LINE",
"31 730 LINE",
"483 730 LINE SMOOTH",
"545 730 OFFCURVE",
"649 675 OFFCURVE",
"682 628 QCURVE",
"744 566 LINE SMOOTH",
"776 534 OFFCURVE",
"814 447 OFFCURVE",
"814 397 QCURVE SMOOTH",
"814 312 LINE SMOOTH",
"814 290 OFFCURVE",
"815 247 OFFCURVE",
"815 225 QCURVE SMOOTH",
"815 196 OFFCURVE",
"815 138 OFFCURVE",
"813 109 QCURVE SMOOTH",
"810 61 OFFCURVE",
"772 -24 OFFCURVE",
"708 -86 OFFCURVE",
"622 -122 OFFCURVE",
"573 -122 QCURVE SMOOTH",
"124 -122 LINE"
);
},
{
nodes = (
"693 359 OFFCURVE",
"692 444 OFFCURVE",
"692 487 QCURVE SMOOTH",
"692 530 OFFCURVE",
"659 606 OFFCURVE",
"602 662 OFFCURVE",
"526 695 OFFCURVE",
"483 695 QCURVE SMOOTH",
"66 695 LINE",
"66 0 LINE",
"483 0 LINE SMOOTH",
"526 0 OFFCURVE",
"600 31 OFFCURVE",
"655 86 OFFCURVE",
"689 159 OFFCURVE",
"691 201 QCURVE SMOOTH",
"693 230 OFFCURVE",
"693 286 OFFCURVE",
"693 315 QCURVE SMOOTH"
);
},
{
nodes = (
"483 626 LINE",
"511 626 OFFCURVE",
"562 604 OFFCURVE",
"600 566 OFFCURVE",
"622 515 OFFCURVE",
"622 487 QCURVE SMOOTH",
"622 227 LINE SMOOTH",
"622 194 OFFCURVE",
"605 136 OFFCURVE",
"570 94 OFFCURVE",
"518 69 OFFCURVE",
"483 69 QCURVE"
);
}
);
width = 845;
}
);
unicode = 0044;
},
{
glyphname = E;
layers = (
{
layerId = "CD3DF19A-D83F-4C46-B819-463B69F1BB92";
paths = (
{
nodes = (
"696 98 LINE",
"783 11 LINE",
"783 -122 LINE",
"128 -122 LINE",
"41 -35 LINE",
"35 -35 LINE",
"35 730 LINE",
"696 730 LINE",
"696 724 LINE",
"783 637 LINE",
"783 503 LINE",
"610 503 LINE",
"610 452 LINE",
"696 452 LINE",
"696 446 LINE",
"783 359 LINE",
"783 225 LINE",
"610 225 LINE",
"610 104 LINE",
"696 104 LINE"
);
},
{
nodes = (
"661 69 LINE",
"488 69 LINE",
"488 347 LINE",
"661 347 LINE",
"661 417 LINE",
"488 417 LINE",
"488 625 LINE",
"661 625 LINE",
"661 695 LINE",
"70 695 LINE",
"70 0 LINE",
"661 0 LINE"
);
}
);
width = 816;
}
);
unicode = 0045;
},
{
glyphname = F;
layers = (
{
layerId = "CD3DF19A-D83F-4C46-B819-463B69F1BB92";
paths = (
{
nodes = (
"695 446 LINE",
"782 359 LINE",
"782 226 LINE",
"608 226 LINE",
"608 -122 LINE",
"127 -122 LINE",
"40 -35 LINE",
"34 -35 LINE",
"34 730 LINE",
"695 730 LINE",
"695 724 LINE",
"782 637 LINE",
"782 504 LINE",
"608 504 LINE",
"608 452 LINE",
"695 452 LINE"
);
},
{
nodes = (
"660 417 LINE",
"486 417 LINE",
"486 626 LINE",
"660 626 LINE",
"660 695 LINE",
"69 695 LINE",
"69 0 LINE",
"486 0 LINE",
"486 348 LINE",
"660 348 LINE"
);
}
);
width = 819;
}
);
unicode = 0046;
},
{
glyphname = G;
layers = (
{
layerId = "CD3DF19A-D83F-4C46-B819-463B69F1BB92";
paths = (
{
nodes = (
"603 468 LINE",
"603 348 LINE",
"724 348 LINE",
"724 342 LINE",
"811 255 LINE",
"811 118 LINE SMOOTH",
"811 68 OFFCURVE",
"773 -19 OFFCURVE",
"708 -84 OFFCURVE",
"621 -122 OFFCURVE",
"571 -122 QCURVE SMOOTH",
"362 -122 LINE SMOOTH",
"311 -122 OFFCURVE",
"224 -84 OFFCURVE",
"192 -52 QCURVE SMOOTH",
"129 10 LINE",
"83 43 OFFCURVE",
"29 146 OFFCURVE",
"29 208 QCURVE SMOOTH",
"29 487 LINE SMOOTH",
"29 538 OFFCURVE",
"67 626 OFFCURVE",
"133 692 OFFCURVE",
"221 730 OFFCURVE",
"272 730 QCURVE SMOOTH",
"481 730 LINE SMOOTH",
"538 730 OFFCURVE",
"633 676 OFFCURVE",
"667 631 QCURVE",
"729 569 LINE SMOOTH",
"767 531 OFFCURVE",
"811 426 OFFCURVE",
"811 365 QCURVE",
"710 365 LINE",
"623 452 LINE",
"619 452 LINE"
);
},
{
nodes = (
"689 487 LINE",
"689 530 OFFCURVE",
"656 606 OFFCURVE",
"600 662 OFFCURVE",
"524 695 OFFCURVE",
"481 695 QCURVE SMOOTH",
"272 695 LINE SMOOTH",
"229 695 OFFCURVE",
"153 662 OFFCURVE",
"97 606 OFFCURVE",
"64 530 OFFCURVE",
"64 487 QCURVE SMOOTH",
"64 208 LINE SMOOTH",
"64 165 OFFCURVE",
"97 89 OFFCURVE",
"153 33 OFFCURVE",
"229 0 OFFCURVE",
"272 0 QCURVE SMOOTH",
"481 0 LINE SMOOTH",
"524 0 OFFCURVE",
"600 33 OFFCURVE",
"656 89 OFFCURVE",
"689 165 OFFCURVE",
"689 208 QCURVE SMOOTH",
"689 313 LINE",
"550 313 LINE",
"550 243 LINE",
"620 243 LINE",
"620 208 LINE SMOOTH",
"620 179 OFFCURVE",
"598 129 OFFCURVE",
"560 91 OFFCURVE",
"509 69 OFFCURVE",
"481 69 QCURVE",
"481 625 LINE",
"509 625 OFFCURVE",
"560 604 OFFCURVE",
"598 566 OFFCURVE",
"620 516 OFFCURVE",
"620 487 QCURVE"
);
}
);
width = 848;
}
);
unicode = 0047;
},
{
glyphname = H;
layers = (
{
layerId = "CD3DF19A-D83F-4C46-B819-463B69F1BB92";
paths = (
{
nodes = (
"727 724 LINE",
"814 637 LINE",
"814 -122 LINE",
"681 -122 LINE",
"606 -47 LINE",
"606 -122 LINE",
"124 -122 LINE",
"37 -35 LINE",
"31 -35 LINE",
"31 730 LINE",
"519 730 LINE",
"519 724 LINE",
"588 655 LINE",
"588 730 LINE",
"727 730 LINE"
);
},
{
nodes = (
"692 695 LINE",
"623 695 LINE",
"623 417 LINE",
"484 417 LINE",
"484 695 LINE",
"66 695 LINE",
"66 0 LINE",
"484 0 LINE",
"484 348 LINE",
"623 348 LINE",
"623 0 LINE",
"692 0 LINE"
);
}
);
width = 848;
}
);
unicode = 0048;
},
{
glyphname = I;
layers = (
{
layerId = "CD3DF19A-D83F-4C46-B819-463B69F1BB92";
paths = (
{
nodes = (
"522 724 LINE",
"609 637 LINE",
"609 -122 LINE",
"128 -122 LINE",
"41 -35 LINE",
"35 -35 LINE",
"35 730 LINE",
"522 730 LINE"
);
},
{
nodes = (
"487 695 LINE",
"70 695 LINE",
"70 0 LINE",
"487 0 LINE"
);
}
);
width = 641;
}
);
unicode = 0049;
},
{
glyphname = J;
layers = (
{
layerId = "CD3DF19A-D83F-4C46-B819-463B69F1BB92";
paths = (
{
nodes = (
"587 724 LINE",
"674 637 LINE",
"674 119 LINE SMOOTH",
"674 69 OFFCURVE",
"636 -19 OFFCURVE",
"571 -84 OFFCURVE",
"484 -122 OFFCURVE",
"434 -122 QCURVE SMOOTH",
"124 -122 LINE",
"37 -35 LINE",
"31 -35 LINE",
"31 104 LINE",
"100 104 LINE",
"100 730 LINE",
"587 730 LINE"
);
},
{
nodes = (
"552 695 LINE",
"135 695 LINE",
"135 69 LINE",
"66 69 LINE",
"66 0 LINE",
"344 0 LINE SMOOTH",
"387 0 OFFCURVE",
"463 33 OFFCURVE",
"519 90 OFFCURVE",
"552 166 OFFCURVE",
"552 209 QCURVE SMOOTH"
);
}
);
width = 702;
}
);
unicode = 004A;
},
{
glyphname = K;
layers = (
{
layerId = "CD3DF19A-D83F-4C46-B819-463B69F1BB92";
paths = (
{
nodes = (
"40 -35 LINE",
"34 -35 LINE",
"34 730 LINE",
"521 730 LINE",
"521 724 LINE",
"563 681 LINE",
"585 730 LINE",
"731 730 LINE",
"728 724 LINE",
"816 637 LINE",
"663 296 LINE",
"862 -122 LINE",
"711 -122 LINE",
"624 -35 LINE",
"619 -35 LINE",
"608 -10 LINE",
"608 -122 LINE",
"127 -122 LINE"
);
},
{
nodes = (
"538 386 LINE",
"677 695 LINE",
"608 695 LINE",
"486 424 LINE",
"486 695 LINE",
"69 695 LINE",
"69 0 LINE",
"486 0 LINE",
"486 270 LINE",
"503 309 LINE",
"642 0 LINE",
"712 0 LINE"
);
}
);
width = 842;
}
);
unicode = 004B;
},
{
glyphname = L;
layers = (
{
layerId = "CD3DF19A-D83F-4C46-B819-463B69F1BB92";
paths = (
{
nodes = (
"729 98 LINE",
"816 11 LINE",
"816 -122 LINE",
"126 -122 LINE",
"39 -35 LINE",
"33 -35 LINE",
"33 730 LINE",
"520 730 LINE",
"520 724 LINE",
"607 637 LINE",
"607 104 LINE",
"729 104 LINE"
);
},
{
nodes = (
"694 69 LINE",
"485 69 LINE",
"485 695 LINE",
"68 695 LINE",
"68 0 LINE",
"694 0 LINE"
);
}
);
width = 822;
}
);
unicode = 004C;
},
{
glyphname = M;
layers = (
{
layerId = "CD3DF19A-D83F-4C46-B819-463B69F1BB92";
paths = (
{
nodes = (
"1149 724 LINE",
"1236 637 LINE",
"1236 -122 LINE",
"755 -122 LINE",
"668 -35 LINE",
"662 -35 LINE",
"662 164 LINE",
"610 216 LINE",
"610 -122 LINE",
"129 -122 LINE",
"42 -35 LINE",
"36 -35 LINE",
"36 730 LINE",
"510 730 LINE",
"514 721 LINE",
"598 637 LINE",
"616 598 LINE",
"631 632 OFFCURVE",
"661 701 OFFCURVE",
"675 730 QCURVE",
"1149 730 LINE"
);
},
{
nodes = (
"1114 695 LINE",
"697 695 LINE",
"671 637 OFFCURVE",
"619 522 OFFCURVE",
"593 463 QCURVE",
"567 521 OFFCURVE",
"515 637 OFFCURVE",
"488 695 QCURVE",
"71 695 LINE",
"71 0 LINE",
"488 0 LINE",
"488 540 LINE",
"593 309 LINE",
"697 540 LINE",
"697 0 LINE",
"1114 0 LINE"
);
}
);
width = 1275;
}
);
unicode = 004D;
},
{
glyphname = N;
layers = (
{
layerId = "CD3DF19A-D83F-4C46-B819-463B69F1BB92";
paths = (
{
nodes = (
"726 724 LINE",
"813 637 LINE",
"813 -122 LINE",
"680 -122 LINE",
"605 -47 LINE",
"605 -122 LINE",
"124 -122 LINE",
"37 -35 LINE",
"31 -35 LINE",
"31 730 LINE",
"505 730 LINE",
"509 721 LINE",
"587 643 LINE",
"587 730 LINE",
"726 730 LINE"
);
},
{
nodes = (
"691 695 LINE",
"622 695 LINE",
"622 386 LINE",
"483 695 LINE",
"66 695 LINE",
"66 0 LINE",
"483 0 LINE",
"483 540 LINE",
"622 232 LINE",
"622 0 LINE",
"691 0 LINE"
);
}
);
width = 851;
}
);
unicode = 004E;
},
{
glyphname = O;
layers = (
{
layerId = "CD3DF19A-D83F-4C46-B819-463B69F1BB92";
paths = (
{
nodes = (
"134 10 LINE",
"88 43 OFFCURVE",
"34 146 OFFCURVE",
"34 208 QCURVE SMOOTH",
"34 486 LINE SMOOTH",
"34 537 OFFCURVE",
"72 626 OFFCURVE",
"138 692 OFFCURVE",
"226 730 OFFCURVE",
"277 730 QCURVE SMOOTH",
"486 730 LINE SMOOTH",
"547 730 OFFCURVE",
"650 675 OFFCURVE",
"683 628 QCURVE",
"745 567 LINE SMOOTH",
"778 534 OFFCURVE",
"816 447 OFFCURVE",
"816 396 QCURVE SMOOTH",
"816 111 LINE SMOOTH",
"816 63 OFFCURVE",
"776 -22 OFFCURVE",
"710 -85 OFFCURVE",
"623 -122 OFFCURVE",
"576 -122 QCURVE SMOOTH",
"367 -122 LINE SMOOTH",
"316 -122 OFFCURVE",
"229 -84 OFFCURVE",
"197 -52 QCURVE SMOOTH"
);
},
{
nodes = (
"694 486 LINE SMOOTH",
"694 529 OFFCURVE",
"661 605 OFFCURVE",
"605 662 OFFCURVE",
"529 695 OFFCURVE",
"486 695 QCURVE SMOOTH",
"277 695 LINE SMOOTH",
"234 695 OFFCURVE",
"158 662 OFFCURVE",
"102 605 OFFCURVE",
"69 529 OFFCURVE",
"69 486 QCURVE SMOOTH",
"69 208 LINE SMOOTH",
"69 165 OFFCURVE",
"102 89 OFFCURVE",
"158 33 OFFCURVE",
"234 0 OFFCURVE",
"277 0 QCURVE SMOOTH",
"486 0 LINE SMOOTH",
"526 0 OFFCURVE",
"602 32 OFFCURVE",
"659 86 OFFCURVE",
"694 159 OFFCURVE",
"694 201 QCURVE SMOOTH"
);
},
{
nodes = (
"486 625 LINE",
"515 625 OFFCURVE",
"566 603 OFFCURVE",
"603 566 OFFCURVE",
"625 515 OFFCURVE",
"625 486 QCURVE SMOOTH",
"625 232 LINE SMOOTH",
"625 199 OFFCURVE",
"609 139 OFFCURVE",
"575 95 OFFCURVE",
"523 69 OFFCURVE",
"486 69 QCURVE"
);
}
);
width = 848;
}
);
unicode = 004F;
},
{
glyphname = P;
layers = (
{
layerId = "CD3DF19A-D83F-4C46-B819-463B69F1BB92";
paths = (
{
nodes = (
"39 -35 LINE",
"33 -35 LINE",
"33 730 LINE",
"485 730 LINE SMOOTH",
"539 730 OFFCURVE",
"628 682 OFFCURVE",
"656 641 QCURVE",
"720 578 LINE SMOOTH",
"749 550 OFFCURVE",
"781 474 OFFCURVE",
"781 430 QCURVE SMOOTH",
"781 392 OFFCURVE",
"754 324 OFFCURVE",
"707 271 OFFCURVE",
"643 235 OFFCURVE",
"607 229 QCURVE",
"607 -122 LINE",
"126 -122 LINE"
);
},
{
nodes = (
"589 500 OFFCURVE",
"573 462 OFFCURVE",
"544 433 OFFCURVE",
"506 417 OFFCURVE",
"485 417 QCURVE",
"485 626 LINE",
"506 626 OFFCURVE",
"544 609 OFFCURVE",
"573 581 OFFCURVE",
"589 542 OFFCURVE",
"589 521 QCURVE SMOOTH"
);
},
{
nodes = (
"485 348 LINE",
"521 348 OFFCURVE",
"584 375 OFFCURVE",
"631 422 OFFCURVE",
"659 484 OFFCURVE",
"659 520 QCURVE SMOOTH",
"659 556 OFFCURVE",
"632 620 OFFCURVE",
"585 668 OFFCURVE",
"522 695 OFFCURVE",
"485 695 QCURVE SMOOTH",
"68 695 LINE",
"68 0 LINE",
"485 0 LINE"
);
}
);
width = 796;
}
);
unicode = 0050;
},
{
glyphname = Q;
layers = (
{
layerId = "CD3DF19A-D83F-4C46-B819-463B69F1BB92";
paths = (
{
nodes = (
"132 10 LINE",
"86 43 OFFCURVE",
"32 146 OFFCURVE",
"32 208 QCURVE SMOOTH",
"32 486 LINE SMOOTH",
"32 537 OFFCURVE",
"70 626 OFFCURVE",
"136 692 OFFCURVE",
"224 730 OFFCURVE",
"275 730 QCURVE SMOOTH",
"484 730 LINE SMOOTH",
"545 730 OFFCURVE",
"648 675 OFFCURVE",
"681 628 QCURVE",
"743 567 LINE SMOOTH",
"776 534 OFFCURVE",
"814 447 OFFCURVE",
"814 396 QCURVE SMOOTH",
"814 364 OFFCURVE",
"815 300 OFFCURVE",
"815 268 QCURVE SMOOTH",
"815 142 LINE SMOOTH",
"815 103 OFFCURVE",
"793 22 OFFCURVE",
"760 -29 QCURVE",
"802 -122 LINE",
"663 -122 LINE",
"649 -108 LINE",
"602 -122 OFFCURVE",
"574 -122 QCURVE SMOOTH",
"365 -122 LINE SMOOTH",
"314 -122 OFFCURVE",
"227 -84 OFFCURVE",
"195 -52 QCURVE SMOOTH"
);
},
{
nodes = (
"623 472 OFFCURVE",
"623 419 OFFCURVE",
"623 353 OFFCURVE",
"623 282 OFFCURVE",
"621 220 OFFCURVE",
"618 172 OFFCURVE",
"615 162 QCURVE",
"650 83 LINE",
"676 118 OFFCURVE",
"693 190 OFFCURVE",
"693 232 QCURVE SMOOTH",
"693 295 OFFCURVE",
"692 422 OFFCURVE",
"692 486 QCURVE SMOOTH",
"692 529 OFFCURVE",
"659 605 OFFCURVE",
"603 662 OFFCURVE",
"527 695 OFFCURVE",
"484 695 QCURVE SMOOTH",
"275 695 LINE SMOOTH",
"232 695 OFFCURVE",
"156 662 OFFCURVE",
"100 605 OFFCURVE",
"67 529 OFFCURVE",
"67 486 QCURVE SMOOTH",
"67 208 LINE SMOOTH",
"67 165 OFFCURVE",
"100 89 OFFCURVE",
"156 33 OFFCURVE",
"232 0 OFFCURVE",
"275 0 QCURVE SMOOTH",
"484 0 LINE SMOOTH",
"523 0 OFFCURVE",
"560 14 QCURVE",
"531 78 LINE",
"508 69 OFFCURVE",
"484 69 QCURVE",
"484 625 LINE",
"513 625 OFFCURVE",
"564 603 OFFCURVE",
"601 566 OFFCURVE",
"623 515 OFFCURVE",
"623 486 QCURVE SMOOTH"
);
},
{
nodes = (
"663 0 LINE",
"595 150 LINE",
"526 150 LINE",
"543 112 OFFCURVE",
"576 37 OFFCURVE",
"593 0 QCURVE"
);
}
);
width = 848;
}
);
unicode = 0051;
},
{
glyphname = S;
layers = (
{
layerId = "CD3DF19A-D83F-4C46-B819-463B69F1BB92";
paths = (
{
nodes = (
"683 351 LINE",
"739 295 LINE",
"747 288 LINE",
"779 256 OFFCURVE",
"816 170 OFFCURVE",
"816 121 QCURVE SMOOTH",
"816 72 OFFCURVE",
"779 -16 OFFCURVE",
"714 -83 OFFCURVE",
"626 -122 OFFCURVE",
"576 -122 QCURVE SMOOTH",
"367 -122 LINE SMOOTH",
"316 -122 OFFCURVE",
"229 -84 OFFCURVE",
"197 -52 QCURVE SMOOTH",
"134 10 LINE",
"88 43 OFFCURVE",
"34 146 OFFCURVE",
"34 208 QCURVE SMOOTH",
"34 313 LINE",
"159 313 LINE",
"121 350 LINE",
"81 379 OFFCURVE",
"34 467 OFFCURVE",
"34 521 QCURVE SMOOTH",
"34 564 OFFCURVE",
"67 641 OFFCURVE",
"123 697 OFFCURVE",
"199 730 OFFCURVE",
"243 730 QCURVE SMOOTH",
"486 730 LINE SMOOTH",
"541 730 OFFCURVE",
"636 679 OFFCURVE",
"669 634 QCURVE",
"735 569 LINE SMOOTH",
"773 531 OFFCURVE",
"817 425 OFFCURVE",
"817 364 QCURVE",
"683 364 LINE"
);
},
{
nodes = (
"486 0 LINE SMOOTH",
"529 0 OFFCURVE",
"605 34 OFFCURVE",
"662 92 OFFCURVE",
"694 168 OFFCURVE",
"694 211 QCURVE SMOOTH",
"694 254 OFFCURVE",
"661 329 OFFCURVE",
"604 385 OFFCURVE",
"529 417 OFFCURVE",
"486 417 QCURVE",
"486 625 LINE",
"515 625 OFFCURVE",
"566 603 OFFCURVE",
"603 566 OFFCURVE",
"625 515 OFFCURVE",
"625 486 QCURVE",
"695 486 LINE",
"695 529 OFFCURVE",
"662 605 OFFCURVE",
"605 662 OFFCURVE",
"529 695 OFFCURVE",
"486 695 QCURVE SMOOTH",
"243 695 LINE SMOOTH",
"207 695 OFFCURVE",
"144 668 OFFCURVE",
"96 620 OFFCURVE",
"69 557 OFFCURVE",
"69 521 QCURVE SMOOTH",
"69 485 OFFCURVE",
"96 422 OFFCURVE",
"144 374 OFFCURVE",
"207 347 OFFCURVE",
"243 347 QCURVE SMOOTH",
"486 347 LINE SMOOTH",
"515 347 OFFCURVE",
"566 325 OFFCURVE",
"603 288 OFFCURVE",
"625 237 OFFCURVE",
"625 208 QCURVE SMOOTH",
"625 179 OFFCURVE",
"603 128 OFFCURVE",
"566 91 OFFCURVE",
"515 69 OFFCURVE",
"486 69 QCURVE",
"486 278 LINE",
"69 278 LINE",
"69 208 LINE SMOOTH",
"69 165 OFFCURVE",
"102 89 OFFCURVE",
"158 33 OFFCURVE",
"234 0 OFFCURVE",
"277 0 QCURVE SMOOTH"
);
}
);
width = 838;
}
);
unicode = 0053;
},
{
glyphname = T;
layers = (
{
layerId = "CD3DF19A-D83F-4C46-B819-463B69F1BB92";
paths = (
{
nodes = (
"778 724 LINE",
"865 637 LINE",
"865 503 LINE",
"725 503 LINE",
"725 -122 LINE",
"247 -122 LINE",
"160 -35 LINE",
"154 -35 LINE",
"153 503 LINE",
"106 503 LINE",
"19 590 LINE",
"13 590 LINE",
"13 730 LINE",
"778 730 LINE"
);
},
{
nodes = (
"743 695 LINE",
"48 695 LINE",
"48 625 LINE",
"188 625 LINE",
"189 0 LINE",
"603 0 LINE",
"603 625 LINE",
"743 625 LINE"
);
}
);
width = 877;
}
);
unicode = 0054;
},
{
glyphname = U;
layers = (
{
layerId = "CD3DF19A-D83F-4C46-B819-463B69F1BB92";
paths = (
{
nodes = (
"135 10 LINE",
"89 43 OFFCURVE",
"34 146 OFFCURVE",
"34 208 QCURVE SMOOTH",
"34 730 LINE",
"521 730 LINE",
"521 724 LINE",
"590 655 LINE",
"590 730 LINE",
"730 730 LINE",
"730 724 LINE",
"817 637 LINE",
"817 411 LINE SMOOTH",
"817 362 OFFCURVE",
"818 266 OFFCURVE",
"818 218 QCURVE SMOOTH",
"818 191 LINE SMOOTH",
"818 171 OFFCURVE",
"818 130 OFFCURVE",
"817 110 QCURVE SMOOTH",
"815 62 OFFCURVE",
"776 -23 OFFCURVE",
"711 -86 OFFCURVE",
"625 -122 OFFCURVE",
"576 -122 QCURVE SMOOTH",
"368 -122 LINE SMOOTH",
"317 -122 OFFCURVE",
"230 -84 OFFCURVE",
"197 -51 QCURVE SMOOTH"
);
},
{
nodes = (
"696 405 OFFCURVE",
"695 598 OFFCURVE",
"695 695 QCURVE",
"625 695 LINE",
"625 255 LINE SMOOTH",
"625 220 OFFCURVE",
"621 159 OFFCURVE",
"600 128 QCURVE SMOOTH",
"578 96 OFFCURVE",
"524 69 OFFCURVE",
"486 69 QCURVE",
"486 695 LINE",
"69 695 LINE",
"69 208 LINE SMOOTH",
"69 165 OFFCURVE",
"102 89 OFFCURVE",
"159 33 OFFCURVE",
"235 0 OFFCURVE",
"278 0 QCURVE SMOOTH",
"486 0 LINE SMOOTH",
"528 0 OFFCURVE",
"603 31 OFFCURVE",
"659 86 OFFCURVE",
"693 159 OFFCURVE",
"695 201 QCURVE SMOOTH",
"697 228 OFFCURVE",
"696 281 OFFCURVE",
"696 308 QCURVE SMOOTH"
);
}
);
width = 855;
}
);
unicode = 0055;
},
{
glyphname = V;
layers = (
{
layerId = "CD3DF19A-D83F-4C46-B819-463B69F1BB92";
paths = (
{
nodes = (
"777 724 LINE",
"865 637 LINE",
"523 -122 LINE",
"414 -122 LINE",
"327 -35 LINE",
"322 -35 LINE",
"-23 730 LINE",
"471 730 LINE",
"475 721 LINE",
"559 637 LINE",
"575 601 LINE",
"633 730 LINE",
"780 730 LINE"
);
},
{
nodes = (
"726 695 LINE",
"656 695 LINE",
"552 463 LINE",
"448 695 LINE",
"31 695 LINE",
"344 0 LINE",
"413 0 LINE"
);
}
);
width = 838;
}
);
unicode = 0056;
},
{
glyphname = W;
layers = (
{
layerId = "CD3DF19A-D83F-4C46-B819-463B69F1BB92";
paths = (
{
nodes = (
"1271 724 LINE",
"1359 637 LINE",
"1018 -122 LINE",
"907 -122 LINE",
"820 -35 LINE",
"815 -35 LINE",
"675 275 LINE",
"496 -122 LINE",
"387 -122 LINE",
"300 -35 LINE",
"295 -35 LINE",
"-50 730 LINE",
"444 730 LINE",
"448 721 LINE",
"532 637 LINE",
"548 601 LINE",
"606 730 LINE",
"964 730 LINE",
"968 721 LINE",
"1052 637 LINE",
"1069 599 LINE",
"1083 632 OFFCURVE",
"1114 697 OFFCURVE",
"1128 730 QCURVE",
"1274 730 LINE"
);
},
{
nodes = (
"1220 695 LINE",
"1151 695 LINE",
"1047 463 LINE",
"942 695 LINE",
"629 695 LINE",
"525 463 LINE",
"421 695 LINE",
"4 695 LINE",
"317 0 LINE",
"386 0 LINE",
"612 502 LINE",
"838 0 LINE",
"908 0 LINE"
);
}
);
width = 1331;
}
);
unicode = 0057;
},
{
glyphname = X;
layers = (
{
layerId = "CD3DF19A-D83F-4C46-B819-463B69F1BB92";
paths = (
{
nodes = (
"775 725 LINE",
"863 637 LINE",
"682 118 LINE",
"887 -122 LINE",
"699 -122 LINE",
"623 -46 LINE",
"615 -66 OFFCURVE",
"602 -105 OFFCURVE",
"597 -122 QCURVE",
"113 -122 LINE",
"26 -35 LINE",
"19 -35 LINE",
"201 485 LINE",
"-7 730 LINE",
"187 730 LINE",
"210 702 LINE",
"260 652 LINE",
"287 730 LINE",
"777 730 LINE"
);
},
{
nodes = (
"728 695 LINE",
"311 695 LINE",
"271 579 LINE",
"172 695 LINE",
"68 695 LINE",
"240 492 LINE",
"68 0 LINE",
"485 0 LINE",
"526 115 LINE",
"624 0 LINE",
"728 0 LINE",
"556 202 LINE"
);
}
);
width = 892;
}
);
unicode = 0058;
},
{
glyphname = Y;
layers = (
{
layerId = "CD3DF19A-D83F-4C46-B819-463B69F1BB92";
paths = (
{
nodes = (
"10 -35 LINE",
"3 -35 LINE",
"185 486 LINE",
"-23 731 LINE",
"171 731 LINE",
"192 705 LINE",
"243 653 LINE",
"271 731 LINE",
"761 731 LINE",
"759 726 LINE",
"847 638 LINE",
"582 -122 LINE",
"97 -122 LINE"
);
},
{
nodes = (
"255 580 LINE",
"156 696 LINE",
"52 696 LINE",
"224 493 LINE",
"52 0 LINE",
"469 0 LINE",
"712 696 LINE",
"295 696 LINE"
);
}
);
width = 856;
}
);
unicode = 0059;
},
{
glyphname = Z;
layers = (
{
layerId = "CD3DF19A-D83F-4C46-B819-463B69F1BB92";
paths = (
{
nodes = (
"27 591 LINE",
"21 591 LINE",
"21 730 LINE",
"786 730 LINE",
"786 724 LINE",
"873 637 LINE",
"873 528 LINE",
"661 105 LINE",
"786 105 LINE",
"786 99 LINE",
"873 12 LINE",
"873 -122 LINE",
"114 -122 LINE",
"27 -35 LINE",
"21 -35 LINE",
"21 79 LINE",
"233 504 LINE",
"114 504 LINE"
);
},
{
nodes = (
"751 626 LINE",
"751 695 LINE",
"56 695 LINE",
"56 626 LINE",
"334 626 LINE",
"56 70 LINE",
"56 0 LINE",
"751 0 LINE",
"751 70 LINE",
"473 70 LINE"
);
}
);
width = 906;
}
);
unicode = 005A;
},
{
glyphname = zero;
layers = (
{
layerId = "CD3DF19A-D83F-4C46-B819-463B69F1BB92";
paths = (
{
nodes = (
"479 730 LINE SMOOTH",
"540 730 OFFCURVE",
"643 675 OFFCURVE",
"676 628 QCURVE",
"738 567 LINE SMOOTH",
"771 534 OFFCURVE",
"809 447 OFFCURVE",
"809 396 QCURVE SMOOTH",
"809 111 LINE SMOOTH",
"809 63 OFFCURVE",
"769 -22 OFFCURVE",
"703 -85 OFFCURVE",
"616 -122 OFFCURVE",
"569 -122 QCURVE SMOOTH",
"360 -122 LINE SMOOTH",
"309 -122 OFFCURVE",
"222 -84 OFFCURVE",
"190 -52 QCURVE SMOOTH",
"127 10 LINE",
"81 43 OFFCURVE",
"27 146 OFFCURVE",
"27 208 QCURVE SMOOTH",
"27 486 LINE SMOOTH",
"27 537 OFFCURVE",
"65 626 OFFCURVE",
"131 692 OFFCURVE",
"219 730 OFFCURVE",
"270 730 QCURVE SMOOTH"
);
},
{
nodes = (
"618 232 LINE SMOOTH",
"618 199 OFFCURVE",
"602 139 OFFCURVE",
"568 95 OFFCURVE",
"516 69 OFFCURVE",
"479 69 QCURVE",
"479 260 LINE",
"618 399 LINE"
);
},
{
nodes = (
"618 467 LINE",
"479 328 LINE",
"479 625 LINE",
"508 625 OFFCURVE",
"559 603 OFFCURVE",
"596 566 OFFCURVE",
"618 515 OFFCURVE",
"618 486 QCURVE SMOOTH"
);
},
{
nodes = (
"270 695 LINE SMOOTH",
"227 695 OFFCURVE",
"151 662 OFFCURVE",
"95 605 OFFCURVE",
"62 529 OFFCURVE",
"62 486 QCURVE SMOOTH",
"62 208 LINE SMOOTH",
"62 165 OFFCURVE",
"95 89 OFFCURVE",
"151 33 OFFCURVE",
"227 0 OFFCURVE",
"270 0 QCURVE SMOOTH",
"479 0 LINE SMOOTH",
"519 0 OFFCURVE",
"595 32 OFFCURVE",
"652 86 OFFCURVE",
"687 159 OFFCURVE",
"687 201 QCURVE SMOOTH",
"687 486 LINE SMOOTH",
"687 529 OFFCURVE",
"654 605 OFFCURVE",
"598 662 OFFCURVE",
"522 695 OFFCURVE",
"479 695 QCURVE SMOOTH"
);
}
);
width = 837;
}
);
unicode = 0030;
},
{
glyphname = one;
layers = (
{
layerId = "CD3DF19A-D83F-4C46-B819-463B69F1BB92";
paths = (
{
nodes = (
"618 724 LINE",
"705 637 LINE",
"705 -122 LINE",
"223 -122 LINE",
"136 -35 LINE",
"130 -35 LINE",
"130 365 LINE",
"99 365 LINE",
"12 452 LINE",
"4 452 LINE",
"143 730 LINE",
"618 730 LINE"
);
},
{
nodes = (
"583 695 LINE",
"165 695 LINE",
"61 487 LINE",
"131 487 LINE",
"165 556 LINE",
"165 0 LINE",
"583 0 LINE"
);
}
);
width = 740;
}
);
unicode = 0031;
},
{
glyphname = two;
layers = (
{
layerId = "CD3DF19A-D83F-4C46-B819-463B69F1BB92";
paths = (
{
nodes = (
"40 -35 LINE",
"34 -35 LINE",
"34 178 LINE SMOOTH",
"34 194 OFFCURVE",
"35 227 OFFCURVE",
"39 244 QCURVE SMOOTH",
"47 284 OFFCURVE",
"85 351 OFFCURVE",
"114 377 QCURVE",
"40 452 LINE",
"34 452 LINE",
"34 500 OFFCURVE",
"60 587 OFFCURVE",
"106 659 OFFCURVE",
"171 710 OFFCURVE",
"209 721 QCURVE SMOOTH",
"230 727 OFFCURVE",
"273 731 OFFCURVE",
"295 731 QCURVE SMOOTH",
"358 731 OFFCURVE",
"450 731 OFFCURVE",
"516 728 OFFCURVE",
"562 723 OFFCURVE",
"580 719 QCURVE SMOOTH",
"620 709 OFFCURVE",
"669 670 OFFCURVE",
"692 637 QCURVE",
"757 573 LINE SMOOTH",
"784 546 OFFCURVE",
"816 475 OFFCURVE",
"816 434 QCURVE SMOOTH",
"816 238 LINE SMOOTH",
"816 189 OFFCURVE",
"783 105 OFFCURVE",
"752 75 QCURVE",
"816 12 LINE",
"816 -122 LINE",
"127 -122 LINE"
);
},
{
nodes = (
"694 524 LINE SMOOTH",
"694 556 OFFCURVE",
"673 612 OFFCURVE",
"635 655 OFFCURVE",
"583 686 OFFCURVE",
"553 692 QCURVE SMOOTH",
"530 697 OFFCURVE",
"475 697 OFFCURVE",
"451 697 QCURVE SMOOTH",
"412 697 OFFCURVE",
"334 696 OFFCURVE",
"295 696 QCURVE SMOOTH",
"276 696 OFFCURVE",
"238 692 OFFCURVE",
"219 687 QCURVE SMOOTH",
"186 678 OFFCURVE",
"131 638 OFFCURVE",
"91 585 OFFCURVE",
"69 521 OFFCURVE",
"69 487 QCURVE",
"139 487 LINE",
"139 515 OFFCURVE",
"161 566 OFFCURVE",
"198 603 OFFCURVE",
"248 625 OFFCURVE",
"277 625 QCURVE",
"277 404 LINE",
"241 404 OFFCURVE",
"173 379 OFFCURVE",
"118 334 OFFCURVE",
"80 273 OFFCURVE",
"73 237 QCURVE SMOOTH",
"70 223 OFFCURVE",
"69 193 OFFCURVE",
"69 178 QCURVE SMOOTH",
"69 0 LINE",
"694 0 LINE",
"694 70 LINE",
"278 70 LINE",
"278 142 LINE",
"520 142 LINE SMOOTH",
"560 142 OFFCURVE",
"625 171 OFFCURVE",
"670 222 OFFCURVE",
"694 289 OFFCURVE",
"694 328 QCURVE SMOOTH"
);
}
);
width = 853;
}
);
unicode = 0032;
},
{
glyphname = three;
layers = (
{
layerId = "CD3DF19A-D83F-4C46-B819-463B69F1BB92";
paths = (
{
nodes = (
"515 729 LINE SMOOTH",
"569 729 OFFCURVE",
"659 681 OFFCURVE",
"687 639 QCURVE",
"751 576 LINE SMOOTH",
"779 548 OFFCURVE",
"811 474 OFFCURVE",
"811 431 QCURVE SMOOTH",
"811 377 OFFCURVE",
"762 288 OFFCURVE",
"720 260 QCURVE",
"751 229 LINE SMOOTH",
"779 201 OFFCURVE",
"811 127 OFFCURVE",
"811 84 QCURVE SMOOTH",
"811 41 OFFCURVE",
"779 -34 OFFCURVE",
"723 -90 OFFCURVE",
"648 -122 OFFCURVE",
"605 -122 QCURVE SMOOTH",
"362 -122 LINE SMOOTH",
"316 -122 OFFCURVE",
"236 -86 OFFCURVE",
"204 -54 QCURVE SMOOTH",
"141 8 LINE",
"90 46 OFFCURVE",
"29 168 OFFCURVE",
"29 243 QCURVE",
"168 243 LINE",
"168 237 LINE",
"237 168 LINE",
"237 206 LINE",
"166 277 LINE",
"160 277 LINE",
"160 364 LINE",
"122 364 LINE",
"35 451 LINE",
"29 451 LINE",
"29 508 OFFCURVE",
"67 610 OFFCURVE",
"133 685 OFFCURVE",
"221 729 OFFCURVE",
"272 729 QCURVE SMOOTH"
);
},
{
nodes = (
"272 694 LINE SMOOTH",
"229 694 OFFCURVE",
"153 661 OFFCURVE",
"97 605 OFFCURVE",
"64 529 OFFCURVE",
"64 486 QCURVE",
"133 486 LINE",
"133 515 OFFCURVE",
"155 566 OFFCURVE",
"192 603 OFFCURVE",
"243 625 OFFCURVE",
"272 625 QCURVE",
"272 382 LINE",
"195 382 LINE",
"195 312 LINE",
"272 312 LINE",
"272 69 LINE",
"243 69 OFFCURVE",
"193 91 OFFCURVE",
"155 129 OFFCURVE",
"133 179 OFFCURVE",
"133 208 QCURVE",
"64 208 LINE",
"64 165 OFFCURVE",
"97 89 OFFCURVE",
"153 33 OFFCURVE",
"229 0 OFFCURVE",
"272 0 QCURVE SMOOTH",
"515 0 LINE SMOOTH",
"551 0 OFFCURVE",
"614 27 OFFCURVE",
"662 75 OFFCURVE",
"689 138 OFFCURVE",
"689 174 QCURVE SMOOTH",
"689 210 OFFCURVE",
"662 273 OFFCURVE",
"614 320 OFFCURVE",
"551 347 OFFCURVE",
"515 347 QCURVE",
"551 347 OFFCURVE",
"614 374 OFFCURVE",
"662 422 OFFCURVE",
"689 485 OFFCURVE",
"689 521 QCURVE SMOOTH",
"689 557 OFFCURVE",
"662 620 OFFCURVE",
"614 667 OFFCURVE",
"551 694 OFFCURVE",
"515 694 QCURVE SMOOTH"
);
}
);
width = 840;
}
);
unicode = 0033;
},
{
glyphname = four;
layers = (
{
layerId = "CD3DF19A-D83F-4C46-B819-463B69F1BB92";
paths = (
{
nodes = (
"36 313 LINE",
"30 313 LINE",
"30 424 LINE",
"167 730 LINE",
"643 730 LINE",
"643 724 LINE",
"730 637 LINE",
"730 428 LINE",
"799 359 LINE",
"799 226 LINE",
"730 226 LINE",
"730 -122 LINE",
"248 -122 LINE",
"161 -35 LINE",
"155 -35 LINE",
"155 226 LINE",
"123 226 LINE"
);
},
{
nodes = (
"190 417 LINE",
"135 417 LINE",
"190 541 LINE"
);
},
{
nodes = (
"677 417 LINE",
"608 417 LINE",
"608 695 LINE",
"190 695 LINE",
"65 417 LINE",
"65 348 LINE",
"190 348 LINE",
"190 0 LINE",
"608 0 LINE",
"608 348 LINE",
"677 348 LINE"
);
}
);
width = 817;
}
);
unicode = 0034;
},
{
glyphname = five;
layers = (
{
layerId = "CD3DF19A-D83F-4C46-B819-463B69F1BB92";
paths = (
{
nodes = (
"400 486 LINE",
"521 486 LINE SMOOTH",
"574 486 OFFCURVE",
"662 438 OFFCURVE",
"691 399 QCURVE",
"757 333 LINE SMOOTH",
"785 305 OFFCURVE",
"817 230 OFFCURVE",
"817 187 QCURVE SMOOTH",
"817 83 LINE SMOOTH",
"817 40 OFFCURVE",
"785 -35 OFFCURVE",
"729 -90 OFFCURVE",
"654 -122 OFFCURVE",
"611 -122 QCURVE SMOOTH",
"368 -122 LINE SMOOTH",
"322 -122 OFFCURVE",
"240 -86 OFFCURVE",
"208 -54 QCURVE SMOOTH",
"141 12 LINE",
"92 50 OFFCURVE",
"34 171 OFFCURVE",
"34 243 QCURVE",
"174 243 LINE",
"174 237 LINE",
"243 168 LINE",
"243 260 LINE",
"127 260 LINE",
"40 347 LINE",
"34 347 LINE",
"34 729 LINE",
"730 729 LINE",
"730 723 LINE",
"817 636 LINE",
"817 503 LINE",
"400 503 LINE"
);
},
{
nodes = (
"695 277 LINE SMOOTH",
"695 313 OFFCURVE",
"668 376 OFFCURVE",
"620 424 OFFCURVE",
"557 451 OFFCURVE",
"521 451 QCURVE SMOOTH",
"278 451 LINE",
"278 625 LINE",
"695 625 LINE",
"695 694 LINE",
"69 694 LINE",
"69 382 LINE",
"278 382 LINE",
"278 69 LINE",
"249 69 OFFCURVE",
"198 91 OFFCURVE",
"161 128 OFFCURVE",
"139 179 OFFCURVE",
"139 208 QCURVE",
"69 208 LINE",
"69 165 OFFCURVE",
"102 89 OFFCURVE",
"159 33 OFFCURVE",
"235 0 OFFCURVE",
"278 0 QCURVE SMOOTH",
"521 0 LINE SMOOTH",
"557 0 OFFCURVE",
"620 27 OFFCURVE",
"668 74 OFFCURVE",
"695 137 OFFCURVE",
"695 173 QCURVE SMOOTH"
);
}
);
width = 850;
}
);
unicode = 0035;
},
{
glyphname = six;
layers = (
{
layerId = "CD3DF19A-D83F-4C46-B819-463B69F1BB92";
paths = (
{
nodes = (
"134 9 LINE",
"87 42 OFFCURVE",
"31 146 OFFCURVE",
"31 209 QCURVE SMOOTH",
"31 522 LINE SMOOTH",
"31 565 OFFCURVE",
"64 641 OFFCURVE",
"120 698 OFFCURVE",
"196 730 OFFCURVE",
"240 730 QCURVE SMOOTH",
"483 730 LINE SMOOTH",
"537 730 OFFCURVE",
"630 680 OFFCURVE",
"664 638 QCURVE",
"733 569 LINE SMOOTH",
"771 531 OFFCURVE",
"814 426 OFFCURVE",
"814 365 QCURVE",
"680 365 LINE",
"745 288 LINE",
"777 256 OFFCURVE",
"814 170 OFFCURVE",
"814 120 QCURVE SMOOTH",
"814 69 OFFCURVE",
"777 -19 OFFCURVE",
"713 -85 OFFCURVE",
"624 -122 OFFCURVE",
"573 -122 QCURVE SMOOTH",
"365 -122 LINE SMOOTH",
"314 -122 OFFCURVE",
"228 -84 OFFCURVE",
"195 -51 QCURVE SMOOTH"
);
},
{
nodes = (
"622 180 OFFCURVE",
"600 129 OFFCURVE",
"563 92 OFFCURVE",
"512 70 OFFCURVE",
"483 70 QCURVE",
"483 348 LINE",
"511 348 OFFCURVE",
"562 326 OFFCURVE",
"600 288 OFFCURVE",
"622 237 OFFCURVE",
"622 209 QCURVE SMOOTH"
);
},
{
nodes = (
"692 487 LINE",
"692 530 OFFCURVE",
"659 606 OFFCURVE",
"602 662 OFFCURVE",
"526 695 OFFCURVE",
"483 695 QCURVE SMOOTH",
"240 695 LINE SMOOTH",
"204 695 OFFCURVE",
"141 668 OFFCURVE",
"93 621 OFFCURVE",
"66 558 OFFCURVE",
"66 522 QCURVE SMOOTH",
"66 209 LINE SMOOTH",
"66 166 OFFCURVE",
"99 90 OFFCURVE",
"156 33 OFFCURVE",
"232 0 OFFCURVE",
"275 0 QCURVE SMOOTH",
"483 0 LINE SMOOTH",
"528 0 OFFCURVE",
"604 32 OFFCURVE",
"660 89 OFFCURVE",
"692 166 OFFCURVE",
"692 210 QCURVE SMOOTH",
"692 253 OFFCURVE",
"659 329 OFFCURVE",
"602 385 OFFCURVE",
"526 417 OFFCURVE",
"483 417 QCURVE",
"483 626 LINE",
"512 626 OFFCURVE",
"563 604 OFFCURVE",
"600 567 OFFCURVE",
"622 516 OFFCURVE",
"622 487 QCURVE"
);
}
);
width = 843;
}
);
unicode = 0036;
},
{
glyphname = seven;
layers = (
{
layerId = "CD3DF19A-D83F-4C46-B819-463B69F1BB92";
paths = (
{
nodes = (
"850 724 LINE",
"938 637 LINE",
"596 -122 LINE",
"110 -122 LINE",
"23 -35 LINE",
"15 -35 LINE",
"257 504 LINE",
"127 504 LINE",
"40 591 LINE",
"34 591 LINE",
"34 730 LINE",
"853 730 LINE"
);
},
{
nodes = (
"799 695 LINE",
"69 695 LINE",
"69 626 LINE",
"350 626 LINE",
"69 0 LINE",
"486 0 LINE"
);
}
);
width = 907;
}
);
unicode = 0037;
},
{
glyphname = eight;
layers = (
{
layerId = "CD3DF19A-D83F-4C46-B819-463B69F1BB92";
paths = (
{
nodes = (
"126 10 LINE",
"79 44 OFFCURVE",
"25 149 OFFCURVE",
"25 212 QCURVE SMOOTH",
"25 266 OFFCURVE",
"68 356 OFFCURVE",
"106 390 QCURVE",
"85 417 OFFCURVE",
"60 484 OFFCURVE",
"60 519 QCURVE SMOOTH",
"60 563 OFFCURVE",
"92 640 OFFCURVE",
"149 697 OFFCURVE",
"226 730 OFFCURVE",
"270 730 QCURVE SMOOTH",
"478 730 LINE SMOOTH",
"532 730 OFFCURVE",
"620 683 OFFCURVE",
"648 643 QCURVE",
"714 578 LINE SMOOTH",
"742 550 OFFCURVE",
"774 474 OFFCURVE",
"774 430 QCURVE SMOOTH",
"774 356 OFFCURVE",
"727 300 QCURVE",
"740 287 LINE SMOOTH",
"772 255 OFFCURVE",
"808 170 OFFCURVE",
"808 121 QCURVE SMOOTH",
"808 70 OFFCURVE",
"771 -19 OFFCURVE",
"707 -84 OFFCURVE",
"619 -122 OFFCURVE",
"568 -122 QCURVE SMOOTH",
"360 -122 LINE SMOOTH",
"309 -122 OFFCURVE",
"221 -84 OFFCURVE",
"189 -52 QCURVE SMOOTH"
);
},
{
nodes = (
"582 477 OFFCURVE",
"523 417 OFFCURVE",
"478 417 QCURVE",
"478 626 LINE",
"522 626 OFFCURVE",
"582 566 OFFCURVE",
"582 522 QCURVE SMOOTH"
);
},
{
nodes = (
"617 180 OFFCURVE",
"595 129 OFFCURVE",
"558 92 OFFCURVE",
"507 70 OFFCURVE",
"478 70 QCURVE",
"478 348 LINE",
"506 348 OFFCURVE",
"557 326 OFFCURVE",
"595 288 OFFCURVE",
"617 237 OFFCURVE",
"617 209 QCURVE SMOOTH"
);
},
{
nodes = (
"618 411 OFFCURVE",
"652 480 OFFCURVE",
"652 520 QCURVE SMOOTH",
"652 557 OFFCURVE",
"625 621 OFFCURVE",
"578 668 OFFCURVE",
"515 695 OFFCURVE",
"478 695 QCURVE SMOOTH",
"270 695 LINE SMOOTH",
"233 695 OFFCURVE",
"169 668 OFFCURVE",
"122 620 OFFCURVE",
"95 556 OFFCURVE",
"95 519 QCURVE SMOOTH",
"95 480 OFFCURVE",
"129 411 OFFCURVE",
"160 386 QCURVE",
"113 357 OFFCURVE",
"60 268 OFFCURVE",
"60 212 QCURVE SMOOTH",
"60 168 OFFCURVE",
"92 91 OFFCURVE",
"149 33 OFFCURVE",
"225 0 OFFCURVE",
"270 0 QCURVE SMOOTH",
"478 0 LINE SMOOTH",
"522 0 OFFCURVE",
"598 33 OFFCURVE",
"654 90 OFFCURVE",
"686 167 OFFCURVE",
"686 211 QCURVE SMOOTH",
"686 266 OFFCURVE",
"634 357 OFFCURVE",
"587 386 QCURVE"
);
}
);
width = 837;
}
);
unicode = 0038;
},
{
glyphname = nine;
layers = (
{
layerId = "CD3DF19A-D83F-4C46-B819-463B69F1BB92";
paths = (
{
nodes = (
"133 9 LINE",
"86 42 OFFCURVE",
"30 146 OFFCURVE",
"30 209 QCURVE SMOOTH",
"30 279 LINE",
"165 279 LINE",
"117 327 LINE",
"79 353 OFFCURVE",
"30 434 OFFCURVE",
"30 487 QCURVE SMOOTH",
"30 538 OFFCURVE",
"68 627 OFFCURVE",
"134 693 OFFCURVE",
"223 731 OFFCURVE",
"274 731 QCURVE SMOOTH",
"482 731 LINE SMOOTH",
"544 731 OFFCURVE",
"648 674 OFFCURVE",
"681 627 QCURVE",
"742 567 LINE SMOOTH",
"775 534 OFFCURVE",
"813 447 OFFCURVE",
"813 397 QCURVE SMOOTH",
"813 119 LINE SMOOTH",
"813 69 OFFCURVE",
"775 -19 OFFCURVE",
"710 -84 OFFCURVE",
"622 -122 OFFCURVE",
"572 -122 QCURVE SMOOTH",
"364 -122 LINE SMOOTH",
"313 -122 OFFCURVE",
"227 -84 OFFCURVE",
"194 -51 QCURVE SMOOTH"
);
},
{
nodes = (
"622 383 LINE",
"482 383 LINE",
"482 626 LINE",
"511 626 OFFCURVE",
"562 604 OFFCURVE",
"600 567 OFFCURVE",
"622 516 OFFCURVE",
"622 487 QCURVE SMOOTH"
);
},
{
nodes = (
"691 487 LINE SMOOTH",
"691 530 OFFCURVE",
"658 606 OFFCURVE",
"601 663 OFFCURVE",
"525 696 OFFCURVE",
"482 696 QCURVE SMOOTH",
"274 696 LINE SMOOTH",
"231 696 OFFCURVE",
"155 663 OFFCURVE",
"98 606 OFFCURVE",
"65 530 OFFCURVE",
"65 487 QCURVE SMOOTH",
"65 446 OFFCURVE",
"102 381 OFFCURVE",
"162 336 OFFCURVE",
"237 313 OFFCURVE",
"274 313 QCURVE SMOOTH",
"622 313 LINE",
"622 209 LINE SMOOTH",
"622 180 OFFCURVE",
"600 129 OFFCURVE",
"562 92 OFFCURVE",
"511 70 OFFCURVE",
"482 70 QCURVE",
"482 244 LINE",
"65 244 LINE",
"65 209 LINE SMOOTH",
"65 166 OFFCURVE",
"98 90 OFFCURVE",
"155 33 OFFCURVE",
"231 0 OFFCURVE",
"274 0 QCURVE SMOOTH",
"482 0 LINE SMOOTH",
"525 0 OFFCURVE",
"601 33 OFFCURVE",
"658 90 OFFCURVE",
"691 166 OFFCURVE",
"691 209 QCURVE SMOOTH"
);
}
);
width = 847;
}
);
unicode = 0039;
},
{
glyphname = colon;
layers = (
{
layerId = "CD3DF19A-D83F-4C46-B819-463B69F1BB92";
paths = (
{
nodes = (
"202 126 LINE",
"202 120 LINE",
"289 33 LINE",
"289 -122 LINE",
"117 -122 LINE",
"30 -35 LINE",
"24 -35 LINE",
"24 126 LINE"
);
},
{
nodes = (
"201 716 LINE",
"201 710 LINE",
"288 623 LINE",
"288 468 LINE",
"116 468 LINE",
"29 555 LINE",
"23 555 LINE",
"23 716 LINE"
);
},
{
nodes = (
"58 681 LINE",
"58 590 LINE",
"166 590 LINE",
"166 681 LINE"
);
},
{
nodes = (
"59 91 LINE",
"59 0 LINE",
"167 0 LINE",
"167 91 LINE"
);
}
);
width = 320;
}
);
unicode = 003A;
},
{
glyphname = semicolon;
layers = (
{
layerId = "CD3DF19A-D83F-4C46-B819-463B69F1BB92";
paths = (
{
nodes = (
"208 716 LINE",
"208 710 LINE",
"295 623 LINE",
"295 468 LINE",
"123 468 LINE",
"36 555 LINE",
"30 555 LINE",
"30 716 LINE"
);
},
{
nodes = (
"210 126 LINE",
"210 120 LINE",
"297 33 LINE",
"297 -108 LINE",
"125 -214 LINE",
"37 -126 LINE",
"32 -130 LINE",
"32 126 LINE"
);
},
{
nodes = (
"65 681 LINE",
"65 590 LINE",
"173 590 LINE",
"173 681 LINE"
);
},
{
nodes = (
"67 91 LINE",
"67 -67 LINE",
"175 0 LINE",
"175 91 LINE"
);
}
);
width = 333;
}
);
unicode = 003B;
},
{
glyphname = question;
layers = (
{
layerId = "CD3DF19A-D83F-4C46-B819-463B69F1BB92";
paths = (
{
nodes = (
"35 453 LINE",
"29 453 LINE",
"29 501 OFFCURVE",
"55 588 OFFCURVE",
"101 660 OFFCURVE",
"166 711 OFFCURVE",
"204 722 QCURVE SMOOTH",
"225 728 OFFCURVE",
"268 732 OFFCURVE",
"290 732 QCURVE SMOOTH",
"353 732 LINE",
"422 731 OFFCURVE",
"548 733 OFFCURVE",
"611 733 QCURVE SMOOTH",
"628 733 OFFCURVE",
"659 731 OFFCURVE",
"674 727 QCURVE SMOOTH",
"712 716 OFFCURVE",
"781 669 OFFCURVE",
"804 636 QCURVE",
"869 572 LINE SMOOTH",
"896 545 OFFCURVE",
"929 475 OFFCURVE",
"929 435 QCURVE SMOOTH",
"929 328 LINE SMOOTH",
"929 283 OFFCURVE",
"900 203 OFFCURVE",
"847 144 OFFCURVE",
"771 110 OFFCURVE",
"723 110 QCURVE SMOOTH",
"704 110 LINE",
"704 25 LINE",
"703 25 LINE",
"703 -122 LINE",
"330 -122 LINE",
"243 -35 LINE",
"237 -35 LINE",
"237 126 LINE",
"238 126 LINE",
"237 366 LINE",
"122 366 LINE"
);
},
{
nodes = (
"272 91 LINE",
"272 0 LINE",
"581 0 LINE",
"581 91 LINE"
);
},
{
nodes = (
"807 525 LINE SMOOTH",
"807 557 OFFCURVE",
"786 612 OFFCURVE",
"748 656 OFFCURVE",
"696 686 OFFCURVE",
"666 693 QCURVE SMOOTH",
"638 699 OFFCURVE",
"574 696 OFFCURVE",
"545 696 QCURVE SMOOTH",
"481 696 OFFCURVE",
"354 697 OFFCURVE",
"290 697 QCURVE SMOOTH",
"271 697 OFFCURVE",
"233 693 OFFCURVE",
"214 688 QCURVE SMOOTH",
"181 679 OFFCURVE",
"126 639 OFFCURVE",
"86 586 OFFCURVE",
"64 522 OFFCURVE",
"64 488 QCURVE",
"134 488 LINE",
"134 516 OFFCURVE",
"156 567 OFFCURVE",
"193 604 OFFCURVE",
"243 626 OFFCURVE",
"272 626 QCURVE",
"273 147 LINE",
"582 147 LINE",
"582 232 LINE",
"633 232 LINE SMOOTH",
"673 232 OFFCURVE",
"738 261 OFFCURVE",
"783 312 OFFCURVE",
"807 379 OFFCURVE",
"807 418 QCURVE SMOOTH"
);
}
);
width = 960;
}
);
unicode = 003F;
},
{
glyphname = exclam;
layers = (
{
layerId = "CD3DF19A-D83F-4C46-B819-463B69F1BB92";
paths = (
{
nodes = (
"384 730 LINE",
"384 724 LINE",
"471 637 LINE",
"471 -122 LINE",
"98 -122 LINE",
"11 -35 LINE",
"5 -35 LINE",
"5 730 LINE"
);
},
{
nodes = (
"40 695 LINE",
"40 147 LINE",
"349 147 LINE",
"349 695 LINE"
);
},
{
nodes = (
"40 91 LINE",
"40 0 LINE",
"349 0 LINE",
"349 91 LINE"
);
}
);
width = 390;
}
);
unicode = 0021;
},
{
glyphname = A;
layers = (
{
layerId = "CD3DF19A-D83F-4C46-B819-463B69F1BB92";
paths = (
{
nodes = (
"441 721 LINE",
"525 637 LINE",
"866 -122 LINE",
"380 -122 LINE",
"311 -53 LINE",
"244 -53 LINE",
"236 -70 OFFCURVE",
"218 -109 OFFCURVE",
"213 -122 QCURVE",
"73 -122 LINE",
"-14 -35 LINE",
"-22 -35 LINE",
"323 730 LINE",
"437 730 LINE"
);
},
{
nodes = (
"248 139 LINE",
"164 139 LINE",
"206 231 LINE"
);
},
{
nodes = (
"415 695 LINE",
"345 695 LINE",
"32 0 LINE",
"102 0 LINE",
"133 69 LINE",
"279 69 LINE",
"310 0 LINE",
"727 0 LINE"
);
}
);
width = 828;
}
);
unicode = 0041;
},
{
glyphname = a;
layers = (
{
layerId = "CD3DF19A-D83F-4C46-B819-463B69F1BB92";
paths = (
{
nodes = (
"441 721 LINE",
"525 637 LINE",
"866 -122 LINE",
"380 -122 LINE",
"311 -53 LINE",
"244 -53 LINE",
"236 -70 OFFCURVE",
"218 -109 OFFCURVE",
"213 -122 QCURVE",
"73 -122 LINE",
"-14 -35 LINE",
"-22 -35 LINE",
"323 730 LINE",
"437 730 LINE"
);
},
{
nodes = (
"248 139 LINE",
"164 139 LINE",
"206 231 LINE"
);
},
{
nodes = (
"415 695 LINE",
"345 695 LINE",
"32 0 LINE",
"102 0 LINE",
"133 69 LINE",
"279 69 LINE",
"310 0 LINE",
"727 0 LINE"
);
}
);
width = 828;
}
);
unicode = 0061;
},
{
glyphname = b;
layers = (
{
layerId = "CD3DF19A-D83F-4C46-B819-463B69F1BB92";
paths = (
{
nodes = (
"38 -35 LINE",
"32 -35 LINE",
"32 730 LINE",
"484 730 LINE SMOOTH",
"538 730 OFFCURVE",
"626 683 OFFCURVE",
"654 643 QCURVE",
"720 578 LINE SMOOTH",
"748 550 OFFCURVE",
"780 474 OFFCURVE",
"780 430 QCURVE SMOOTH",
"780 356 OFFCURVE",
"733 300 QCURVE",
"747 286 LINE SMOOTH",
"779 254 OFFCURVE",
"815 169 OFFCURVE",
"815 120 QCURVE SMOOTH",
"815 69 OFFCURVE",
"778 -19 OFFCURVE",
"713 -84 OFFCURVE",
"625 -122 OFFCURVE",
"574 -122 QCURVE SMOOTH",
"125 -122 LINE"
);
},
{
nodes = (
"588 476 OFFCURVE",
"529 417 OFFCURVE",
"484 417 QCURVE",
"484 625 LINE",
"529 625 OFFCURVE",
"588 566 OFFCURVE",
"588 521 QCURVE SMOOTH"
);
},
{
nodes = (
"623 179 OFFCURVE",
"601 128 OFFCURVE",
"564 91 OFFCURVE",
"513 69 OFFCURVE",
"484 69 QCURVE",
"484 347 LINE",
"513 347 OFFCURVE",
"564 325 OFFCURVE",
"601 288 OFFCURVE",
"623 237 OFFCURVE",
"623 208 QCURVE SMOOTH"
);
},
{
nodes = (
"624 411 OFFCURVE",
"658 480 OFFCURVE",
"658 520 QCURVE SMOOTH",
"658 557 OFFCURVE",
"631 621 OFFCURVE",
"584 668 OFFCURVE",
"521 695 OFFCURVE",
"484 695 QCURVE SMOOTH",
"67 695 LINE",
"67 0 LINE",
"484 0 LINE SMOOTH",
"528 0 OFFCURVE",
"605 33 OFFCURVE",
"661 90 OFFCURVE",
"693 166 OFFCURVE",
"693 210 QCURVE SMOOTH",
"693 266 OFFCURVE",
"640 357 OFFCURVE",
"593 386 QCURVE"
);
}
);
width = 838;
}
);
unicode = 0062;
},
{
glyphname = c;
layers = (
{
layerId = "CD3DF19A-D83F-4C46-B819-463B69F1BB92";
paths = (
{
nodes = (
"606 468 LINE",
"606 244 LINE",
"727 244 LINE",
"727 238 LINE",
"814 151 LINE",
"814 95 OFFCURVE",
"776 -5 OFFCURVE",
"711 -79 OFFCURVE",
"624 -122 OFFCURVE",
"574 -122 QCURVE SMOOTH",
"365 -122 LINE SMOOTH",
"315 -122 OFFCURVE",
"228 -84 OFFCURVE",
"196 -52 QCURVE SMOOTH",
"134 10 LINE",
"87 43 OFFCURVE",
"32 146 OFFCURVE",
"32 209 QCURVE SMOOTH",
"32 487 LINE SMOOTH",
"32 538 OFFCURVE",
"70 627 OFFCURVE",
"136 693 OFFCURVE",
"224 731 OFFCURVE",
"275 731 QCURVE SMOOTH",
"484 731 LINE SMOOTH",
"540 731 OFFCURVE",
"635 678 OFFCURVE",
"669 633 QCURVE",
"732 570 LINE SMOOTH",
"770 532 OFFCURVE",
"814 426 OFFCURVE",
"814 365 QCURVE",
"713 365 LINE"
);
},
{
nodes = (
"692 487 LINE",
"692 530 OFFCURVE",
"659 606 OFFCURVE",
"603 663 OFFCURVE",
"527 696 OFFCURVE",
"484 696 QCURVE SMOOTH",
"275 696 LINE SMOOTH",
"232 696 OFFCURVE",
"156 663 OFFCURVE",
"100 606 OFFCURVE",
"67 530 OFFCURVE",
"67 487 QCURVE SMOOTH",
"67 209 LINE SMOOTH",
"67 166 OFFCURVE",
"100 90 OFFCURVE",
"156 33 OFFCURVE",
"232 0 OFFCURVE",
"275 0 QCURVE SMOOTH",
"484 0 LINE SMOOTH",
"527 0 OFFCURVE",
"603 33 OFFCURVE",
"659 90 OFFCURVE",
"692 166 OFFCURVE",
"692 209 QCURVE",
"623 209 LINE",
"623 180 OFFCURVE",
"601 129 OFFCURVE",
"564 92 OFFCURVE",
"513 70 OFFCURVE",
"484 70 QCURVE",
"484 626 LINE",
"513 626 OFFCURVE",
"564 604 OFFCURVE",
"601 567 OFFCURVE",
"623 516 OFFCURVE",
"623 487 QCURVE"
);
}
);
width = 838;
}
);
unicode = 0063;
},
{
glyphname = d;
layers = (
{
layerId = "CD3DF19A-D83F-4C46-B819-463B69F1BB92";
paths = (
{
nodes = (
"37 -35 LINE",
"31 -35 LINE",
"31 730 LINE",
"483 730 LINE SMOOTH",
"545 730 OFFCURVE",
"649 675 OFFCURVE",
"682 628 QCURVE",
"744 566 LINE SMOOTH",
"776 534 OFFCURVE",
"814 447 OFFCURVE",
"814 397 QCURVE SMOOTH",
"814 312 LINE SMOOTH",
"814 290 OFFCURVE",
"815 247 OFFCURVE",
"815 225 QCURVE SMOOTH",
"815 196 OFFCURVE",
"815 138 OFFCURVE",
"813 109 QCURVE SMOOTH",
"810 61 OFFCURVE",
"772 -24 OFFCURVE",
"708 -86 OFFCURVE",
"622 -122 OFFCURVE",
"573 -122 QCURVE SMOOTH",
"124 -122 LINE"
);
},
{
nodes = (
"693 359 OFFCURVE",
"692 444 OFFCURVE",
"692 487 QCURVE SMOOTH",
"692 530 OFFCURVE",
"659 606 OFFCURVE",
"602 662 OFFCURVE",
"526 695 OFFCURVE",
"483 695 QCURVE SMOOTH",
"66 695 LINE",
"66 0 LINE",
"483 0 LINE SMOOTH",
"526 0 OFFCURVE",
"600 31 OFFCURVE",
"655 86 OFFCURVE",
"689 159 OFFCURVE",
"691 201 QCURVE SMOOTH",
"693 230 OFFCURVE",
"693 286 OFFCURVE",
"693 315 QCURVE SMOOTH"
);
},
{
nodes = (
"483 626 LINE",
"511 626 OFFCURVE",
"562 604 OFFCURVE",
"600 566 OFFCURVE",
"622 515 OFFCURVE",
"622 487 QCURVE SMOOTH",
"622 227 LINE SMOOTH",
"622 194 OFFCURVE",
"605 136 OFFCURVE",
"570 94 OFFCURVE",
"518 69 OFFCURVE",
"483 69 QCURVE"
);
}
);
width = 845;
}
);
unicode = 0064;
},
{
glyphname = e;
layers = (
{
layerId = "CD3DF19A-D83F-4C46-B819-463B69F1BB92";
paths = (
{
nodes = (
"696 98 LINE",
"783 11 LINE",
"783 -122 LINE",
"128 -122 LINE",
"41 -35 LINE",
"35 -35 LINE",
"35 730 LINE",
"696 730 LINE",
"696 724 LINE",
"783 637 LINE",
"783 503 LINE",
"610 503 LINE",
"610 452 LINE",
"696 452 LINE",
"696 446 LINE",
"783 359 LINE",
"783 225 LINE",
"610 225 LINE",
"610 104 LINE",
"696 104 LINE"
);
},
{
nodes = (
"661 69 LINE",
"488 69 LINE",
"488 347 LINE",
"661 347 LINE",
"661 417 LINE",
"488 417 LINE",
"488 625 LINE",
"661 625 LINE",
"661 695 LINE",
"70 695 LINE",
"70 0 LINE",
"661 0 LINE"
);
}
);
width = 816;
}
);
unicode = 0065;
},
{
glyphname = f;
layers = (
{
layerId = "CD3DF19A-D83F-4C46-B819-463B69F1BB92";
paths = (
{
nodes = (
"695 446 LINE",
"782 359 LINE",
"782 226 LINE",
"608 226 LINE",
"608 -122 LINE",
"127 -122 LINE",
"40 -35 LINE",
"34 -35 LINE",
"34 730 LINE",
"695 730 LINE",
"695 724 LINE",
"782 637 LINE",
"782 504 LINE",
"608 504 LINE",
"608 452 LINE",
"695 452 LINE"
);
},
{
nodes = (
"660 417 LINE",
"486 417 LINE",
"486 626 LINE",
"660 626 LINE",
"660 695 LINE",
"69 695 LINE",
"69 0 LINE",
"486 0 LINE",
"486 348 LINE",
"660 348 LINE"
);
}
);
width = 819;
}
);
unicode = 0066;
},
{
glyphname = g;
layers = (
{
layerId = "CD3DF19A-D83F-4C46-B819-463B69F1BB92";
paths = (
{
nodes = (
"689 487 LINE",
"689 530 OFFCURVE",
"656 606 OFFCURVE",
"600 662 OFFCURVE",
"524 695 OFFCURVE",
"481 695 QCURVE SMOOTH",
"272 695 LINE SMOOTH",
"229 695 OFFCURVE",
"153 662 OFFCURVE",
"97 606 OFFCURVE",
"64 530 OFFCURVE",
"64 487 QCURVE SMOOTH",
"64 208 LINE SMOOTH",
"64 165 OFFCURVE",
"97 89 OFFCURVE",
"153 33 OFFCURVE",
"229 0 OFFCURVE",
"272 0 QCURVE SMOOTH",
"481 0 LINE SMOOTH",
"524 0 OFFCURVE",
"600 33 OFFCURVE",
"656 89 OFFCURVE",
"689 165 OFFCURVE",
"689 208 QCURVE SMOOTH",
"689 313 LINE",
"550 313 LINE",
"550 243 LINE",
"620 243 LINE",
"620 208 LINE SMOOTH",
"620 179 OFFCURVE",
"598 129 OFFCURVE",
"560 91 OFFCURVE",
"509 69 OFFCURVE",
"481 69 QCURVE",
"481 625 LINE",
"509 625 OFFCURVE",
"560 604 OFFCURVE",
"598 566 OFFCURVE",
"620 516 OFFCURVE",
"620 487 QCURVE"
);
},
{
nodes = (
"603 468 LINE",
"603 348 LINE",
"724 348 LINE",
"724 342 LINE",
"811 255 LINE",
"811 118 LINE SMOOTH",
"811 68 OFFCURVE",
"773 -19 OFFCURVE",
"708 -84 OFFCURVE",
"621 -122 OFFCURVE",
"571 -122 QCURVE SMOOTH",
"362 -122 LINE SMOOTH",
"311 -122 OFFCURVE",
"224 -84 OFFCURVE",
"192 -52 QCURVE SMOOTH",
"129 10 LINE",
"83 43 OFFCURVE",
"29 146 OFFCURVE",
"29 208 QCURVE SMOOTH",
"29 487 LINE SMOOTH",
"29 538 OFFCURVE",
"67 626 OFFCURVE",
"133 692 OFFCURVE",
"221 730 OFFCURVE",
"272 730 QCURVE SMOOTH",
"481 730 LINE SMOOTH",
"538 730 OFFCURVE",
"633 676 OFFCURVE",
"667 631 QCURVE",
"729 569 LINE SMOOTH",
"767 531 OFFCURVE",
"811 426 OFFCURVE",
"811 365 QCURVE",
"710 365 LINE",
"623 452 LINE",
"619 452 LINE"
);
}
);
width = 848;
}
);
unicode = 0067;
},
{
glyphname = h;
layers = (
{
layerId = "CD3DF19A-D83F-4C46-B819-463B69F1BB92";
paths = (
{
nodes = (
"727 724 LINE",
"814 637 LINE",
"814 -122 LINE",
"681 -122 LINE",
"606 -47 LINE",
"606 -122 LINE",
"124 -122 LINE",
"37 -35 LINE",
"31 -35 LINE",
"31 730 LINE",
"519 730 LINE",
"519 724 LINE",
"588 655 LINE",
"588 730 LINE",
"727 730 LINE"
);
},
{
nodes = (
"692 695 LINE",
"623 695 LINE",
"623 417 LINE",
"484 417 LINE",
"484 695 LINE",
"66 695 LINE",
"66 0 LINE",
"484 0 LINE",
"484 348 LINE",
"623 348 LINE",
"623 0 LINE",
"692 0 LINE"
);
}
);
width = 848;
}
);
unicode = 0068;
},
{
glyphname = i;
layers = (
{
layerId = "CD3DF19A-D83F-4C46-B819-463B69F1BB92";
paths = (
{
nodes = (
"522 724 LINE",
"609 637 LINE",
"609 -122 LINE",
"128 -122 LINE",
"41 -35 LINE",
"35 -35 LINE",
"35 730 LINE",
"522 730 LINE"
);
},
{
nodes = (
"487 695 LINE",
"70 695 LINE",
"70 0 LINE",
"487 0 LINE"
);
}
);
width = 641;
}
);
unicode = 0069;
},
{
glyphname = j;
layers = (
{
layerId = "CD3DF19A-D83F-4C46-B819-463B69F1BB92";
paths = (
{
nodes = (
"587 724 LINE",
"674 637 LINE",
"674 119 LINE SMOOTH",
"674 69 OFFCURVE",
"636 -19 OFFCURVE",
"571 -84 OFFCURVE",
"484 -122 OFFCURVE",
"434 -122 QCURVE SMOOTH",
"124 -122 LINE",
"37 -35 LINE",
"31 -35 LINE",
"31 104 LINE",
"100 104 LINE",
"100 730 LINE",
"587 730 LINE"
);
},
{
nodes = (
"552 695 LINE",
"135 695 LINE",
"135 69 LINE",
"66 69 LINE",
"66 0 LINE",
"344 0 LINE SMOOTH",
"387 0 OFFCURVE",
"463 33 OFFCURVE",
"519 90 OFFCURVE",
"552 166 OFFCURVE",
"552 209 QCURVE SMOOTH"
);
}
);
width = 702;
}
);
unicode = 006A;
},
{
glyphname = k;
layers = (
{
layerId = "CD3DF19A-D83F-4C46-B819-463B69F1BB92";
paths = (
{
nodes = (
"40 -35 LINE",
"34 -35 LINE",
"34 730 LINE",
"521 730 LINE",
"521 724 LINE",
"563 681 LINE",
"585 730 LINE",
"731 730 LINE",
"728 724 LINE",
"816 637 LINE",
"663 296 LINE",
"862 -122 LINE",
"711 -122 LINE",
"624 -35 LINE",
"619 -35 LINE",
"608 -10 LINE",
"608 -122 LINE",
"127 -122 LINE"
);
},
{
nodes = (
"538 386 LINE",
"677 695 LINE",
"608 695 LINE",
"486 424 LINE",
"486 695 LINE",
"69 695 LINE",
"69 0 LINE",
"486 0 LINE",
"486 270 LINE",
"503 309 LINE",
"642 0 LINE",
"712 0 LINE"
);
}
);
width = 842;
}
);
unicode = 006B;
},
{
glyphname = l;
layers = (
{
layerId = "CD3DF19A-D83F-4C46-B819-463B69F1BB92";
paths = (
{
nodes = (
"729 98 LINE",
"816 11 LINE",
"816 -122 LINE",
"126 -122 LINE",
"39 -35 LINE",
"33 -35 LINE",
"33 730 LINE",
"520 730 LINE",
"520 724 LINE",
"607 637 LINE",
"607 104 LINE",
"729 104 LINE"
);
},
{
nodes = (
"694 69 LINE",
"485 69 LINE",
"485 695 LINE",
"68 695 LINE",
"68 0 LINE",
"694 0 LINE"
);
}
);
width = 822;
}
);
unicode = 006C;
},
{
glyphname = m;
layers = (
{
layerId = "CD3DF19A-D83F-4C46-B819-463B69F1BB92";
paths = (
{
nodes = (
"1149 724 LINE",
"1236 637 LINE",
"1236 -122 LINE",
"755 -122 LINE",
"668 -35 LINE",
"662 -35 LINE",
"662 164 LINE",
"610 216 LINE",
"610 -122 LINE",
"129 -122 LINE",
"42 -35 LINE",
"36 -35 LINE",
"36 730 LINE",
"510 730 LINE",
"514 721 LINE",
"598 637 LINE",
"616 598 LINE",
"631 632 OFFCURVE",
"661 701 OFFCURVE",
"675 730 QCURVE",
"1149 730 LINE"
);
},
{
nodes = (
"1114 695 LINE",
"697 695 LINE",
"671 637 OFFCURVE",
"619 522 OFFCURVE",
"593 463 QCURVE",
"567 521 OFFCURVE",
"515 637 OFFCURVE",
"488 695 QCURVE",
"71 695 LINE",
"71 0 LINE",
"488 0 LINE",
"488 540 LINE",
"593 309 LINE",
"697 540 LINE",
"697 0 LINE",
"1114 0 LINE"
);
}
);
width = 1275;
}
);
unicode = 006D;
},
{
glyphname = n;
layers = (
{
layerId = "CD3DF19A-D83F-4C46-B819-463B69F1BB92";
paths = (
{
nodes = (
"726 724 LINE",
"813 637 LINE",
"813 -122 LINE",
"680 -122 LINE",
"605 -47 LINE",
"605 -122 LINE",
"124 -122 LINE",
"37 -35 LINE",
"31 -35 LINE",
"31 730 LINE",
"505 730 LINE",
"509 721 LINE",
"587 643 LINE",
"587 730 LINE",
"726 730 LINE"
);
},
{
nodes = (
"691 695 LINE",
"622 695 LINE",
"622 386 LINE",
"483 695 LINE",
"66 695 LINE",
"66 0 LINE",
"483 0 LINE",
"483 540 LINE",
"622 232 LINE",
"622 0 LINE",
"691 0 LINE"
);
}
);
width = 851;
}
);
unicode = 006E;
},
{
glyphname = o;
layers = (
{
layerId = "CD3DF19A-D83F-4C46-B819-463B69F1BB92";
paths = (
{
nodes = (
"134 10 LINE",
"88 43 OFFCURVE",
"34 146 OFFCURVE",
"34 208 QCURVE SMOOTH",
"34 486 LINE SMOOTH",
"34 537 OFFCURVE",
"72 626 OFFCURVE",
"138 692 OFFCURVE",
"226 730 OFFCURVE",
"277 730 QCURVE SMOOTH",
"486 730 LINE SMOOTH",
"547 730 OFFCURVE",
"650 675 OFFCURVE",
"683 628 QCURVE",
"745 567 LINE SMOOTH",
"778 534 OFFCURVE",
"816 447 OFFCURVE",
"816 396 QCURVE SMOOTH",
"816 111 LINE SMOOTH",
"816 63 OFFCURVE",
"776 -22 OFFCURVE",
"710 -85 OFFCURVE",
"623 -122 OFFCURVE",
"576 -122 QCURVE SMOOTH",
"367 -122 LINE SMOOTH",
"316 -122 OFFCURVE",
"229 -84 OFFCURVE",
"197 -52 QCURVE SMOOTH"
);
},
{
nodes = (
"694 486 LINE SMOOTH",
"694 529 OFFCURVE",
"661 605 OFFCURVE",
"605 662 OFFCURVE",
"529 695 OFFCURVE",
"486 695 QCURVE SMOOTH",
"277 695 LINE SMOOTH",
"234 695 OFFCURVE",
"158 662 OFFCURVE",
"102 605 OFFCURVE",
"69 529 OFFCURVE",
"69 486 QCURVE SMOOTH",
"69 208 LINE SMOOTH",
"69 165 OFFCURVE",
"102 89 OFFCURVE",
"158 33 OFFCURVE",
"234 0 OFFCURVE",
"277 0 QCURVE SMOOTH",
"486 0 LINE SMOOTH",
"526 0 OFFCURVE",
"602 32 OFFCURVE",
"659 86 OFFCURVE",
"694 159 OFFCURVE",
"694 201 QCURVE SMOOTH"
);
},
{
nodes = (
"486 625 LINE",
"515 625 OFFCURVE",
"566 603 OFFCURVE",
"603 566 OFFCURVE",
"625 515 OFFCURVE",
"625 486 QCURVE SMOOTH",
"625 232 LINE SMOOTH",
"625 199 OFFCURVE",
"609 139 OFFCURVE",
"575 95 OFFCURVE",
"523 69 OFFCURVE",
"486 69 QCURVE"
);
}
);
width = 848;
}
);
unicode = 006F;
},
{
glyphname = p;
layers = (
{
layerId = "CD3DF19A-D83F-4C46-B819-463B69F1BB92";
paths = (
{
nodes = (
"39 -35 LINE",
"33 -35 LINE",
"33 730 LINE",
"485 730 LINE SMOOTH",
"539 730 OFFCURVE",
"628 682 OFFCURVE",
"656 641 QCURVE",
"720 578 LINE SMOOTH",
"749 550 OFFCURVE",
"781 474 OFFCURVE",
"781 430 QCURVE SMOOTH",
"781 392 OFFCURVE",
"754 324 OFFCURVE",
"707 271 OFFCURVE",
"643 235 OFFCURVE",
"607 229 QCURVE",
"607 -122 LINE",
"126 -122 LINE"
);
},
{
nodes = (
"589 500 OFFCURVE",
"573 462 OFFCURVE",
"544 433 OFFCURVE",
"506 417 OFFCURVE",
"485 417 QCURVE",
"485 626 LINE",
"506 626 OFFCURVE",
"544 609 OFFCURVE",
"573 581 OFFCURVE",
"589 542 OFFCURVE",
"589 521 QCURVE SMOOTH"
);
},
{
nodes = (
"485 348 LINE",
"521 348 OFFCURVE",
"584 375 OFFCURVE",
"631 422 OFFCURVE",
"659 484 OFFCURVE",
"659 520 QCURVE SMOOTH",
"659 556 OFFCURVE",
"632 620 OFFCURVE",
"585 668 OFFCURVE",
"522 695 OFFCURVE",
"485 695 QCURVE SMOOTH",
"68 695 LINE",
"68 0 LINE",
"485 0 LINE"
);
}
);
width = 796;
}
);
unicode = 0070;
},
{
glyphname = q;
layers = (
{
layerId = "CD3DF19A-D83F-4C46-B819-463B69F1BB92";
paths = (
{
nodes = (
"132 10 LINE",
"86 43 OFFCURVE",
"32 146 OFFCURVE",
"32 208 QCURVE SMOOTH",
"32 486 LINE SMOOTH",
"32 537 OFFCURVE",
"70 626 OFFCURVE",
"136 692 OFFCURVE",
"224 730 OFFCURVE",
"275 730 QCURVE SMOOTH",
"484 730 LINE SMOOTH",
"545 730 OFFCURVE",
"648 675 OFFCURVE",
"681 628 QCURVE",
"743 567 LINE SMOOTH",
"776 534 OFFCURVE",
"814 447 OFFCURVE",
"814 396 QCURVE SMOOTH",
"814 364 OFFCURVE",
"815 300 OFFCURVE",
"815 268 QCURVE SMOOTH",
"815 142 LINE SMOOTH",
"815 103 OFFCURVE",
"793 22 OFFCURVE",
"760 -29 QCURVE",
"802 -122 LINE",
"663 -122 LINE",
"649 -108 LINE",
"602 -122 OFFCURVE",
"574 -122 QCURVE SMOOTH",
"365 -122 LINE SMOOTH",
"314 -122 OFFCURVE",
"227 -84 OFFCURVE",
"195 -52 QCURVE SMOOTH"
);
},
{
nodes = (
"623 472 OFFCURVE",
"623 419 OFFCURVE",
"623 353 OFFCURVE",
"623 282 OFFCURVE",
"621 220 OFFCURVE",
"618 172 OFFCURVE",
"615 162 QCURVE",
"650 83 LINE",
"676 118 OFFCURVE",
"693 190 OFFCURVE",
"693 232 QCURVE SMOOTH",
"693 295 OFFCURVE",
"692 422 OFFCURVE",
"692 486 QCURVE SMOOTH",
"692 529 OFFCURVE",
"659 605 OFFCURVE",
"603 662 OFFCURVE",
"527 695 OFFCURVE",
"484 695 QCURVE SMOOTH",
"275 695 LINE SMOOTH",
"232 695 OFFCURVE",
"156 662 OFFCURVE",
"100 605 OFFCURVE",
"67 529 OFFCURVE",
"67 486 QCURVE SMOOTH",
"67 208 LINE SMOOTH",
"67 165 OFFCURVE",
"100 89 OFFCURVE",
"156 33 OFFCURVE",
"232 0 OFFCURVE",
"275 0 QCURVE SMOOTH",
"484 0 LINE SMOOTH",
"523 0 OFFCURVE",
"560 14 QCURVE",
"531 78 LINE",
"508 69 OFFCURVE",
"484 69 QCURVE",
"484 625 LINE",
"513 625 OFFCURVE",
"564 603 OFFCURVE",
"601 566 OFFCURVE",
"623 515 OFFCURVE",
"623 486 QCURVE SMOOTH"
);
},
{
nodes = (
"663 0 LINE",
"595 150 LINE",
"526 150 LINE",
"543 112 OFFCURVE",
"576 37 OFFCURVE",
"593 0 QCURVE"
);
}
);
width = 848;
}
);
unicode = 0071;
},
{
glyphname = r;
layers = (
{
layerId = "CD3DF19A-D83F-4C46-B819-463B69F1BB92";
paths = (
{
nodes = (
"627 485 LINE",
"627 486 OFFCURVE",
"626 486 QCURVE"
);
},
{
nodes = (
"43 -35 LINE",
"37 -35 LINE",
"37 730 LINE",
"489 730 LINE SMOOTH",
"543 730 OFFCURVE",
"633 681 OFFCURVE",
"661 639 QCURVE",
"724 577 LINE SMOOTH",
"753 549 OFFCURVE",
"785 474 OFFCURVE",
"785 430 QCURVE SMOOTH",
"785 363 OFFCURVE",
"739 281 OFFCURVE",
"685 253 QCURVE",
"704 209 OFFCURVE",
"748 113 OFFCURVE",
"793 15 OFFCURVE",
"836 -80 OFFCURVE",
"855 -122 QCURVE",
"715 -122 LINE",
"628 -35 LINE",
"623 -35 LINE",
"611 -8 LINE",
"611 -122 LINE",
"130 -122 LINE"
);
},
{
nodes = (
"627 485 LINE",
"627 486 OFFCURVE",
"626 486 QCURVE"
);
},
{
nodes = (
"593 477 OFFCURVE",
"533 417 OFFCURVE",
"489 417 QCURVE",
"489 625 LINE",
"533 625 OFFCURVE",
"593 565 OFFCURVE",
"593 521 QCURVE SMOOTH"
);
},
{
nodes = (
"612 383 OFFCURVE",
"663 457 OFFCURVE",
"663 520 QCURVE SMOOTH",
"663 556 OFFCURVE",
"636 620 OFFCURVE",
"589 668 OFFCURVE",
"525 695 OFFCURVE",
"489 695 QCURVE SMOOTH",
"72 695 LINE",
"72 0 LINE",
"489 0 LINE",
"489 347 LINE",
"645 0 LINE",
"715 0 LINE",
"632 180 OFFCURVE",
"553 360 QCURVE"
);
}
);
width = 812;
}
);
unicode = 0072;
},
{
glyphname = s;
layers = (
{
layerId = "CD3DF19A-D83F-4C46-B819-463B69F1BB92";
paths = (
{
nodes = (
"683 351 LINE",
"739 295 LINE",
"747 288 LINE",
"779 256 OFFCURVE",
"816 170 OFFCURVE",
"816 121 QCURVE SMOOTH",
"816 72 OFFCURVE",
"779 -16 OFFCURVE",
"714 -83 OFFCURVE",
"626 -122 OFFCURVE",
"576 -122 QCURVE SMOOTH",
"367 -122 LINE SMOOTH",
"316 -122 OFFCURVE",
"229 -84 OFFCURVE",
"197 -52 QCURVE SMOOTH",
"134 10 LINE",
"88 43 OFFCURVE",
"34 146 OFFCURVE",
"34 208 QCURVE SMOOTH",
"34 313 LINE",
"159 313 LINE",
"121 350 LINE",
"81 379 OFFCURVE",
"34 467 OFFCURVE",
"34 521 QCURVE SMOOTH",
"34 564 OFFCURVE",
"67 641 OFFCURVE",
"123 697 OFFCURVE",
"199 730 OFFCURVE",
"243 730 QCURVE SMOOTH",
"486 730 LINE SMOOTH",
"541 730 OFFCURVE",
"636 679 OFFCURVE",
"669 634 QCURVE",
"735 569 LINE SMOOTH",
"773 531 OFFCURVE",
"817 425 OFFCURVE",
"817 364 QCURVE",
"683 364 LINE"
);
},
{
nodes = (
"486 0 LINE SMOOTH",
"529 0 OFFCURVE",
"605 34 OFFCURVE",
"662 92 OFFCURVE",
"694 168 OFFCURVE",
"694 211 QCURVE SMOOTH",
"694 254 OFFCURVE",
"661 329 OFFCURVE",
"604 385 OFFCURVE",
"529 417 OFFCURVE",
"486 417 QCURVE",
"486 625 LINE",
"515 625 OFFCURVE",
"566 603 OFFCURVE",
"603 566 OFFCURVE",
"625 515 OFFCURVE",
"625 486 QCURVE",
"695 486 LINE",
"695 529 OFFCURVE",
"662 605 OFFCURVE",
"605 662 OFFCURVE",
"529 695 OFFCURVE",
"486 695 QCURVE SMOOTH",
"243 695 LINE SMOOTH",
"207 695 OFFCURVE",
"144 668 OFFCURVE",
"96 620 OFFCURVE",
"69 557 OFFCURVE",
"69 521 QCURVE SMOOTH",
"69 485 OFFCURVE",
"96 422 OFFCURVE",
"144 374 OFFCURVE",
"207 347 OFFCURVE",
"243 347 QCURVE SMOOTH",
"486 347 LINE SMOOTH",
"515 347 OFFCURVE",
"566 325 OFFCURVE",
"603 288 OFFCURVE",
"625 237 OFFCURVE",
"625 208 QCURVE SMOOTH",
"625 179 OFFCURVE",
"603 128 OFFCURVE",
"566 91 OFFCURVE",
"515 69 OFFCURVE",
"486 69 QCURVE",
"486 278 LINE",
"69 278 LINE",
"69 208 LINE SMOOTH",
"69 165 OFFCURVE",
"102 89 OFFCURVE",
"158 33 OFFCURVE",
"234 0 OFFCURVE",
"277 0 QCURVE SMOOTH"
);
}
);
width = 838;
}
);
unicode = 0073;
},
{
glyphname = t;
layers = (
{
layerId = "CD3DF19A-D83F-4C46-B819-463B69F1BB92";
paths = (
{
nodes = (
"778 724 LINE",
"865 637 LINE",
"865 503 LINE",
"725 503 LINE",
"725 -122 LINE",
"247 -122 LINE",
"160 -35 LINE",
"154 -35 LINE",
"153 503 LINE",
"106 503 LINE",
"19 590 LINE",
"13 590 LINE",
"13 730 LINE",
"778 730 LINE"
);
},
{
nodes = (
"743 695 LINE",
"48 695 LINE",
"48 625 LINE",
"188 625 LINE",
"189 0 LINE",
"603 0 LINE",
"603 625 LINE",
"743 625 LINE"
);
}
);
width = 877;
}
);
unicode = 0074;
},
{
glyphname = u;
layers = (
{
layerId = "CD3DF19A-D83F-4C46-B819-463B69F1BB92";
paths = (
{
nodes = (
"135 10 LINE",
"89 43 OFFCURVE",
"34 146 OFFCURVE",
"34 208 QCURVE SMOOTH",
"34 730 LINE",
"521 730 LINE",
"521 724 LINE",
"590 655 LINE",
"590 730 LINE",
"730 730 LINE",
"730 724 LINE",
"817 637 LINE",
"817 411 LINE SMOOTH",
"817 362 OFFCURVE",
"818 266 OFFCURVE",
"818 218 QCURVE SMOOTH",
"818 191 LINE SMOOTH",
"818 171 OFFCURVE",
"818 130 OFFCURVE",
"817 110 QCURVE SMOOTH",
"815 62 OFFCURVE",
"776 -23 OFFCURVE",
"711 -86 OFFCURVE",
"625 -122 OFFCURVE",
"576 -122 QCURVE SMOOTH",
"368 -122 LINE SMOOTH",
"317 -122 OFFCURVE",
"230 -84 OFFCURVE",
"197 -51 QCURVE SMOOTH"
);
},
{
nodes = (
"696 405 OFFCURVE",
"695 598 OFFCURVE",
"695 695 QCURVE",
"625 695 LINE",
"625 255 LINE SMOOTH",
"625 220 OFFCURVE",
"621 159 OFFCURVE",
"600 128 QCURVE SMOOTH",
"578 96 OFFCURVE",
"524 69 OFFCURVE",
"486 69 QCURVE",
"486 695 LINE",
"69 695 LINE",
"69 208 LINE SMOOTH",
"69 165 OFFCURVE",
"102 89 OFFCURVE",
"159 33 OFFCURVE",
"235 0 OFFCURVE",
"278 0 QCURVE SMOOTH",
"486 0 LINE SMOOTH",
"528 0 OFFCURVE",
"603 31 OFFCURVE",
"659 86 OFFCURVE",
"693 159 OFFCURVE",
"695 201 QCURVE SMOOTH",
"697 228 OFFCURVE",
"696 281 OFFCURVE",
"696 308 QCURVE SMOOTH"
);
}
);
width = 855;
}
);
unicode = 0075;
},
{
glyphname = v;
layers = (
{
layerId = "CD3DF19A-D83F-4C46-B819-463B69F1BB92";
paths = (
{
nodes = (
"777 724 LINE",
"865 637 LINE",
"523 -122 LINE",
"414 -122 LINE",
"327 -35 LINE",
"322 -35 LINE",
"-23 730 LINE",
"471 730 LINE",
"475 721 LINE",
"559 637 LINE",
"575 601 LINE",
"633 730 LINE",
"780 730 LINE"
);
},
{
nodes = (
"726 695 LINE",
"656 695 LINE",
"552 463 LINE",
"448 695 LINE",
"31 695 LINE",
"344 0 LINE",
"413 0 LINE"
);
}
);
width = 838;
}
);
unicode = 0076;
},
{
glyphname = w;
layers = (
{
layerId = "CD3DF19A-D83F-4C46-B819-463B69F1BB92";
paths = (
{
nodes = (
"1271 724 LINE",
"1359 637 LINE",
"1018 -122 LINE",
"907 -122 LINE",
"820 -35 LINE",
"815 -35 LINE",
"675 275 LINE",
"496 -122 LINE",
"387 -122 LINE",
"300 -35 LINE",
"295 -35 LINE",
"-50 730 LINE",
"444 730 LINE",
"448 721 LINE",
"532 637 LINE",
"548 601 LINE",
"606 730 LINE",
"964 730 LINE",
"968 721 LINE",
"1052 637 LINE",
"1069 599 LINE",
"1083 632 OFFCURVE",
"1114 697 OFFCURVE",
"1128 730 QCURVE",
"1274 730 LINE"
);
},
{
nodes = (
"1220 695 LINE",
"1151 695 LINE",
"1047 463 LINE",
"942 695 LINE",
"629 695 LINE",
"525 463 LINE",
"421 695 LINE",
"4 695 LINE",
"317 0 LINE",
"386 0 LINE",
"612 502 LINE",
"838 0 LINE",
"908 0 LINE"
);
}
);
width = 1331;
}
);
unicode = 0077;
},
{
glyphname = x;
layers = (
{
layerId = "CD3DF19A-D83F-4C46-B819-463B69F1BB92";
paths = (
{
nodes = (
"775 725 LINE",
"863 637 LINE",
"682 118 LINE",
"887 -122 LINE",
"699 -122 LINE",
"623 -46 LINE",
"615 -66 OFFCURVE",
"602 -105 OFFCURVE",
"597 -122 QCURVE",
"113 -122 LINE",
"26 -35 LINE",
"19 -35 LINE",
"201 485 LINE",
"-7 730 LINE",
"187 730 LINE",
"210 702 LINE",
"260 652 LINE",
"287 730 LINE",
"777 730 LINE"
);
},
{
nodes = (
"728 695 LINE",
"311 695 LINE",
"271 579 LINE",
"172 695 LINE",
"68 695 LINE",
"240 492 LINE",
"68 0 LINE",
"485 0 LINE",
"526 115 LINE",
"624 0 LINE",
"728 0 LINE",
"556 202 LINE"
);
}
);
width = 892;
}
);
unicode = 0078;
},
{
glyphname = y;
layers = (
{
layerId = "CD3DF19A-D83F-4C46-B819-463B69F1BB92";
paths = (
{
nodes = (
"10 -35 LINE",
"3 -35 LINE",
"185 486 LINE",
"-23 731 LINE",
"171 731 LINE",
"192 705 LINE",
"243 653 LINE",
"271 731 LINE",
"761 731 LINE",
"759 726 LINE",
"847 638 LINE",
"582 -122 LINE",
"97 -122 LINE"
);
},
{
nodes = (
"255 580 LINE",
"156 696 LINE",
"52 696 LINE",
"224 493 LINE",
"52 0 LINE",
"469 0 LINE",
"712 696 LINE",
"295 696 LINE"
);
}
);
width = 856;
}
);
unicode = 0079;
},
{
glyphname = z;
layers = (
{
layerId = "CD3DF19A-D83F-4C46-B819-463B69F1BB92";
paths = (
{
nodes = (
"27 591 LINE",
"21 591 LINE",
"21 730 LINE",
"786 730 LINE",
"786 724 LINE",
"873 637 LINE",
"873 528 LINE",
"661 105 LINE",
"786 105 LINE",
"786 99 LINE",
"873 12 LINE",
"873 -122 LINE",
"114 -122 LINE",
"27 -35 LINE",
"21 -35 LINE",
"21 79 LINE",
"233 504 LINE",
"114 504 LINE"
);
},
{
nodes = (
"751 626 LINE",
"751 695 LINE",
"56 695 LINE",
"56 626 LINE",
"334 626 LINE",
"56 70 LINE",
"56 0 LINE",
"751 0 LINE",
"751 70 LINE",
"473 70 LINE"
);
}
);
width = 906;
}
);
unicode = 007A;
},
{
glyphname = quotedbl;
layers = (
{
layerId = "CD3DF19A-D83F-4C46-B819-463B69F1BB92";
paths = (
{
nodes = (
"539 730 LINE",
"627 642 LINE",
"568 286 LINE",
"383 286 LINE",
"342 326 LINE",
"336 286 LINE",
"151 286 LINE",
"64 373 LINE",
"58 373 LINE",
"27 735 LINE",
"540 735 LINE"
);
},
{
nodes = (
"499 700 LINE",
"297 700 LINE",
"323 408 LINE",
"450 408 LINE"
);
},
{
nodes = (
"267 700 LINE",
"65 700 LINE",
"91 408 LINE",
"218 408 LINE"
);
}
);
width = 638;
}
);
unicode = 0022;
},
{
glyphname = numbersign;
layers = (
{
layerId = "CD3DF19A-D83F-4C46-B819-463B69F1BB92";
paths = (
{
nodes = (
"564 609 LINE",
"651 522 LINE",
"639 469 LINE",
"646 469 LINE",
"645 463 LINE",
"732 376 LINE",
"699 220 LINE",
"674 220 LINE",
"694 200 LINE",
"662 44 LINE",
"550 44 LINE",
"543 12 OFFCURVE",
"527 -61 OFFCURVE",
"522 -89 QCURVE",
"224 -89 LINE",
"137 -2 LINE",
"130 -2 LINE",
"139 44 LINE",
"117 44 LINE",
"30 131 LINE",
"23 131 LINE",
"56 293 LINE",
"81 293 LINE",
"67 307 LINE",
"60 307 LINE",
"94 469 LINE",
"228 469 LINE",
"259 615 LINE",
"565 615 LINE"
);
},
{
nodes = (
"522 580 LINE",
"430 580 LINE",
"399 434 LINE",
"349 434 LINE",
"380 580 LINE",
"288 580 LINE",
"257 434 LINE",
"123 434 LINE",
"103 342 LINE",
"238 342 LINE",
"220 258 LINE",
"85 258 LINE",
"66 166 LINE",
"200 166 LINE",
"172 33 LINE",
"264 33 LINE",
"292 166 LINE",
"342 166 LINE",
"314 33 LINE",
"406 33 LINE",
"434 166 LINE",
"546 166 LINE",
"565 258 LINE",
"454 258 LINE",
"472 342 LINE",
"583 342 LINE",
"603 434 LINE",
"491 434 LINE"
);
},
{
nodes = (
"312 258 LINE",
"330 342 LINE",
"380 342 LINE",
"362 258 LINE"
);
}
);
width = 760;
}
);
unicode = 0023;
},
{
glyphname = dollar;
layers = (
{
layerId = "CD3DF19A-D83F-4C46-B819-463B69F1BB92";
paths = (
{
nodes = (
"608 420 LINE",
"655 392 OFFCURVE",
"685 350 QCURVE",
"747 288 LINE SMOOTH",
"779 256 OFFCURVE",
"816 171 OFFCURVE",
"816 121 QCURVE SMOOTH",
"816 72 OFFCURVE",
"779 -16 OFFCURVE",
"714 -83 OFFCURVE",
"626 -122 OFFCURVE",
"576 -122 QCURVE SMOOTH",
"544 -122 LINE",
"544 -286 LINE",
"405 -286 LINE",
"318 -199 LINE",
"312 -199 LINE",
"312 -115 LINE",
"278 -107 OFFCURVE",
"220 -75 OFFCURVE",
"197 -52 QCURVE SMOOTH",
"134 10 LINE",
"88 43 OFFCURVE",
"34 146 OFFCURVE",
"34 208 QCURVE SMOOTH",
"34 313 LINE",
"160 312 LINE",
"121 351 LINE",
"81 380 OFFCURVE",
"34 467 OFFCURVE",
"34 521 QCURVE SMOOTH",
"34 564 OFFCURVE",
"67 641 OFFCURVE",
"123 697 OFFCURVE",
"199 730 OFFCURVE",
"243 730 QCURVE SMOOTH",
"312 730 LINE",
"312 902 LINE",
"457 902 LINE",
"457 896 LINE",
"544 809 LINE",
"544 722 LINE",
"620 700 OFFCURVE",
"669 634 QCURVE",
"735 569 LINE SMOOTH",
"773 531 OFFCURVE",
"817 425 OFFCURVE",
"817 364 QCURVE",
"683 364 LINE",
"608 439 LINE"
);
},
{
nodes = (
"486 278 LINE",
"422 278 LINE",
"422 347 LINE",
"486 347 LINE SMOOTH",
"515 347 OFFCURVE",
"566 325 OFFCURVE",
"603 288 OFFCURVE",
"625 237 OFFCURVE",
"625 208 QCURVE SMOOTH",
"625 179 OFFCURVE",
"603 128 OFFCURVE",
"566 91 OFFCURVE",
"515 69 OFFCURVE",
"486 69 QCURVE"
);
},
{
nodes = (
"347 0 LINE",
"347 -164 LINE",
"422 -164 LINE",
"422 0 LINE",
"486 0 LINE SMOOTH",
"529 0 OFFCURVE",
"605 34 OFFCURVE",
"662 92 OFFCURVE",
"694 168 OFFCURVE",
"694 211 QCURVE SMOOTH",
"694 254 OFFCURVE",
"661 329 OFFCURVE",
"604 385 OFFCURVE",
"529 417 OFFCURVE",
"486 417 QCURVE",
"486 625 LINE",
"515 625 OFFCURVE",
"566 603 OFFCURVE",
"603 566 OFFCURVE",
"625 515 OFFCURVE",
"625 486 QCURVE",
"695 486 LINE",
"695 529 OFFCURVE",
"662 605 OFFCURVE",
"605 662 OFFCURVE",
"529 695 OFFCURVE",
"486 695 QCURVE SMOOTH",
"422 695 LINE",
"422 867 LINE",
"347 867 LINE",
"347 695 LINE",
"243 695 LINE SMOOTH",
"207 695 OFFCURVE",
"144 668 OFFCURVE",
"96 620 OFFCURVE",
"69 557 OFFCURVE",
"69 521 QCURVE SMOOTH",
"69 485 OFFCURVE",
"96 422 OFFCURVE",
"144 374 OFFCURVE",
"207 347 OFFCURVE",
"243 347 QCURVE SMOOTH",
"347 347 LINE",
"347 278 LINE",
"69 278 LINE",
"69 208 LINE SMOOTH",
"69 165 OFFCURVE",
"102 89 OFFCURVE",
"158 33 OFFCURVE",
"234 0 OFFCURVE",
"277 0 QCURVE SMOOTH"
);
}
);
width = 846;
}
);
unicode = 0024;
},
{
glyphname = percent;
layers = (
{
layerId = "CD3DF19A-D83F-4C46-B819-463B69F1BB92";
paths = (
{
nodes = (
"1192 730 LINE",
"1189 724 LINE",
"1277 637 LINE",
"1202 476 LINE",
"1275 476 LINE SMOOTH",
"1322 476 OFFCURVE",
"1400 433 OFFCURVE",
"1424 397 QCURVE",
"1491 331 LINE SMOOTH",
"1514 308 OFFCURVE",
"1541 246 OFFCURVE",
"1541 211 QCURVE SMOOTH",
"1541 45 LINE SMOOTH",
"1541 10 OFFCURVE",
"1512 -51 OFFCURVE",
"1463 -96 OFFCURVE",
"1399 -122 OFFCURVE",
"1365 -122 QCURVE SMOOTH",
"1238 -122 LINE SMOOTH",
"1200 -122 OFFCURVE",
"1136 -94 OFFCURVE",
"1112 -70 QCURVE SMOOTH",
"1046 -4 LINE",
"1019 13 OFFCURVE",
"1001 39 QCURVE",
"927 -122 LINE",
"423 -122 LINE",
"336 -35 LINE",
"328 -35 LINE",
"405 132 LINE",
"290 132 LINE SMOOTH",
"252 132 OFFCURVE",
"188 160 OFFCURVE",
"164 184 QCURVE SMOOTH",
"98 249 LINE",
"63 272 OFFCURVE",
"21 348 OFFCURVE",
"21 393 QCURVE SMOOTH",
"21 555 LINE SMOOTH",
"21 591 OFFCURVE",
"49 655 OFFCURVE",
"98 703 OFFCURVE",
"163 730 OFFCURVE",
"200 730 QCURVE SMOOTH",
"327 730 LINE SMOOTH",
"374 730 OFFCURVE",
"452 687 OFFCURVE",
"476 651 QCURVE",
"543 585 LINE SMOOTH",
"572 555 OFFCURVE",
"583 519 QCURVE",
"681 730 LINE"
);
},
{
nodes = (
"1292 364 LINE",
"1313 359 OFFCURVE",
"1343 324 OFFCURVE",
"1343 301 QCURVE SMOOTH",
"1343 153 LINE SMOOTH",
"1343 125 OFFCURVE",
"1318 83 OFFCURVE",
"1292 76 QCURVE"
);
},
{
nodes = (
"1419 301 LINE SMOOTH",
"1419 330 OFFCURVE",
"1396 381 OFFCURVE",
"1357 419 OFFCURVE",
"1305 441 OFFCURVE",
"1275 441 QCURVE SMOOTH",
"1148 441 LINE SMOOTH",
"1118 441 OFFCURVE",
"1066 419 OFFCURVE",
"1027 381 OFFCURVE",
"1004 330 OFFCURVE",
"1004 301 QCURVE SMOOTH",
"1004 139 LINE SMOOTH",
"1004 110 OFFCURVE",
"1027 59 OFFCURVE",
"1066 22 OFFCURVE",
"1118 0 OFFCURVE",
"1148 0 QCURVE SMOOTH",
"1275 0 LINE SMOOTH",
"1303 0 OFFCURVE",
"1355 21 OFFCURVE",
"1395 58 OFFCURVE",
"1419 107 OFFCURVE",
"1419 135 QCURVE SMOOTH"
);
},
{
nodes = (
"344 618 LINE",
"365 613 OFFCURVE",
"395 578 OFFCURVE",
"395 555 QCURVE SMOOTH",
"395 407 LINE SMOOTH",
"395 379 OFFCURVE",
"370 337 OFFCURVE",
"344 330 QCURVE"
);
},
{
nodes = (
"471 555 LINE SMOOTH",
"471 584 OFFCURVE",
"448 635 OFFCURVE",
"409 673 OFFCURVE",
"357 695 OFFCURVE",
"327 695 QCURVE SMOOTH",
"200 695 LINE SMOOTH",
"170 695 OFFCURVE",
"118 673 OFFCURVE",
"79 635 OFFCURVE",
"56 584 OFFCURVE",
"56 555 QCURVE SMOOTH",
"56 393 LINE SMOOTH",
"56 364 OFFCURVE",
"79 313 OFFCURVE",
"118 276 OFFCURVE",
"170 254 OFFCURVE",
"200 254 QCURVE SMOOTH",
"327 254 LINE SMOOTH",
"355 254 OFFCURVE",
"407 275 OFFCURVE",
"447 312 OFFCURVE",
"471 361 OFFCURVE",
"471 389 QCURVE SMOOTH"
);
},
{
nodes = (
"703 695 LINE",
"383 0 LINE",
"817 0 LINE",
"1137 695 LINE"
);
}
);
width = 1571;
}
);
unicode = 0025;
},
{
glyphname = ampersand;
layers = (
{
layerId = "CD3DF19A-D83F-4C46-B819-463B69F1BB92";
paths = (
{
nodes = (
"125 10 LINE",
"78 44 OFFCURVE",
"24 149 OFFCURVE",
"24 212 QCURVE SMOOTH",
"24 267 OFFCURVE",
"67 356 OFFCURVE",
"105 389 QCURVE",
"59 444 OFFCURVE",
"59 519 QCURVE SMOOTH",
"59 564 OFFCURVE",
"91 641 OFFCURVE",
"148 698 OFFCURVE",
"224 730 OFFCURVE",
"269 730 QCURVE SMOOTH",
"514 730 LINE SMOOTH",
"562 730 OFFCURVE",
"641 687 OFFCURVE",
"669 650 QCURVE",
"739 581 LINE SMOOTH",
"771 549 OFFCURVE",
"809 457 OFFCURVE",
"812 403 QCURVE",
"811 403 LINE",
"811 399 LINE",
"849 361 LINE",
"849 224 LINE",
"809 224 LINE",
"809 121 LINE SMOOTH",
"809 70 OFFCURVE",
"772 -18 OFFCURVE",
"707 -84 OFFCURVE",
"618 -122 OFFCURVE",
"567 -122 QCURVE SMOOTH",
"359 -122 LINE SMOOTH",
"308 -122 OFFCURVE",
"220 -84 OFFCURVE",
"188 -52 QCURVE SMOOTH"
);
},
{
nodes = (
"618 209 LINE SMOOTH",
"618 180 OFFCURVE",
"596 129 OFFCURVE",
"559 92 OFFCURVE",
"507 70 OFFCURVE",
"477 70 QCURVE",
"477 346 LINE",
"618 346 LINE"
);
},
{
nodes = (
"477 417 LINE",
"477 627 LINE",
"514 626 LINE",
"559 626 OFFCURVE",
"616 570 OFFCURVE",
"618 525 QCURVE",
"688 525 LINE",
"686 561 OFFCURVE",
"659 623 OFFCURVE",
"613 669 OFFCURVE",
"551 695 OFFCURVE",
"514 695 QCURVE SMOOTH",
"269 695 LINE SMOOTH",
"232 695 OFFCURVE",
"168 668 OFFCURVE",
"121 620 OFFCURVE",
"94 556 OFFCURVE",
"94 519 QCURVE SMOOTH",
"94 480 OFFCURVE",
"128 411 OFFCURVE",
"159 386 QCURVE",
"111 357 OFFCURVE",
"59 269 OFFCURVE",
"59 212 QCURVE SMOOTH",
"59 168 OFFCURVE",
"91 91 OFFCURVE",
"148 33 OFFCURVE",
"224 0 OFFCURVE",
"269 0 QCURVE SMOOTH",
"477 0 LINE SMOOTH",
"522 0 OFFCURVE",
"598 33 OFFCURVE",
"655 90 OFFCURVE",
"687 167 OFFCURVE",
"687 211 QCURVE SMOOTH",
"687 254 LINE",
"687 254 OFFCURVE",
"687 255 QCURVE",
"687 269 LINE",
"687 270 OFFCURVE",
"687 270 QCURVE",
"687 275 LINE",
"687 277 OFFCURVE",
"687 279 QCURVE",
"687 284 LINE",
"687 285 OFFCURVE",
"687 286 QCURVE",
"687 291 LINE SMOOTH",
"687 314 OFFCURVE",
"688 346 QCURVE",
"727 346 LINE",
"727 419 LINE",
"702 419 LINE",
"702 419 OFFCURVE",
"702 419 QCURVE",
"701 419 LINE",
"701 419 OFFCURVE",
"701 419 QCURVE",
"700 419 OFFCURVE",
"700 419 QCURVE",
"699 419 LINE",
"699 419 OFFCURVE",
"699 419 QCURVE",
"698 419 OFFCURVE",
"698 419 QCURVE",
"698 419 OFFCURVE",
"698 419 QCURVE",
"693 419 OFFCURVE",
"688 418 QCURVE",
"689 423 OFFCURVE",
"689 429 QCURVE",
"689 430 LINE",
"689 430 OFFCURVE",
"689 430 QCURVE",
"689 434 LINE",
"689 434 OFFCURVE",
"689 434 QCURVE",
"689 435 OFFCURVE",
"689 435 QCURVE",
"689 436 OFFCURVE",
"689 436 QCURVE",
"689 439 LINE",
"689 439 OFFCURVE",
"689 439 QCURVE",
"689 461 LINE",
"618 461 LINE",
"618 418 LINE"
);
}
);
width = 869;
}
);
unicode = 0026;
},
{
glyphname = quotesingle;
layers = (
{
layerId = "CD3DF19A-D83F-4C46-B819-463B69F1BB92";
paths = (
{
nodes = (
"298 730 LINE",
"386 642 LINE",
"327 286 LINE",
"142 286 LINE",
"55 373 LINE",
"49 373 LINE",
"18 735 LINE",
"299 735 LINE"
);
},
{
nodes = (
"258 700 LINE",
"56 700 LINE",
"82 408 LINE",
"209 408 LINE"
);
}
);
width = 409;
}
);
unicode = 0027;
},
{
glyphname = parenleft;
layers = (
{
layerId = "CD3DF19A-D83F-4C46-B819-463B69F1BB92";
paths = (
{
nodes = (
"497 21 LINE",
"533 21 LINE",
"533 15 LINE",
"620 -72 LINE",
"620 -205 LINE",
"366 -205 LINE SMOOTH",
"316 -205 OFFCURVE",
"229 -168 OFFCURVE",
"196 -135 QCURVE SMOOTH",
"132 -71 LINE",
"87 -38 OFFCURVE",
"33 63 OFFCURVE",
"33 125 QCURVE SMOOTH",
"33 591 LINE SMOOTH",
"33 642 OFFCURVE",
"71 731 OFFCURVE",
"137 797 OFFCURVE",
"225 835 OFFCURVE",
"276 835 QCURVE SMOOTH",
"533 835 LINE",
"533 829 LINE",
"620 742 LINE",
"620 608 LINE",
"497 610 LINE"
);
},
{
nodes = (
"498 -83 LINE",
"498 -14 LINE",
"375 -14 LINE",
"375 732 LINE",
"498 730 LINE",
"498 800 LINE",
"276 800 LINE SMOOTH",
"233 800 OFFCURVE",
"157 767 OFFCURVE",
"101 710 OFFCURVE",
"68 634 OFFCURVE",
"68 591 QCURVE SMOOTH",
"68 125 LINE SMOOTH",
"68 81 OFFCURVE",
"101 6 OFFCURVE",
"158 -51 OFFCURVE",
"233 -83 OFFCURVE",
"276 -83 QCURVE SMOOTH"
);
}
);
width = 533;
}
);
unicode = 0028;
},
{
glyphname = parenright;
layers = (
{
layerId = "CD3DF19A-D83F-4C46-B819-463B69F1BB92";
paths = (
{
nodes = (
"24 695 LINE",
"18 695 LINE",
"18 835 LINE",
"275 835 LINE SMOOTH",
"336 835 OFFCURVE",
"439 780 OFFCURVE",
"472 733 QCURVE",
"534 672 LINE SMOOTH",
"567 639 OFFCURVE",
"605 552 OFFCURVE",
"605 501 QCURVE SMOOTH",
"605 35 LINE SMOOTH",
"605 -15 OFFCURVE",
"567 -103 OFFCURVE",
"502 -168 OFFCURVE",
"414 -205 OFFCURVE",
"365 -205 QCURVE SMOOTH",
"111 -205 LINE",
"24 -118 LINE",
"18 -118 LINE",
"18 21 LINE",
"141 21 LINE",
"141 608 LINE",
"111 608 LINE"
);
},
{
nodes = (
"483 591 LINE SMOOTH",
"483 634 OFFCURVE",
"450 710 OFFCURVE",
"394 767 OFFCURVE",
"318 800 OFFCURVE",
"275 800 QCURVE SMOOTH",
"53 800 LINE",
"53 730 LINE",
"176 732 LINE",
"176 -14 LINE",
"53 -14 LINE",
"53 -83 LINE",
"275 -83 LINE SMOOTH",
"318 -83 OFFCURVE",
"393 -51 OFFCURVE",
"450 6 OFFCURVE",
"483 81 OFFCURVE",
"483 125 QCURVE SMOOTH"
);
}
);
width = 638;
}
);
unicode = 0029;
},
{
glyphname = asterisk;
layers = (
{
layerId = "CD3DF19A-D83F-4C46-B819-463B69F1BB92";
paths = (
{
nodes = (
"534 279 LINE",
"568 252 LINE",
"566 250 LINE",
"654 162 LINE",
"546 28 LINE",
"469 90 LINE",
"469 7 LINE",
"297 7 LINE",
"251 53 LINE",
"219 30 LINE",
"131 118 LINE",
"129 116 OFFCURVE",
"128 116 QCURVE",
"19 253 LINE",
"141 351 LINE",
"113 374 LINE",
"39 448 LINE",
"19 464 LINE",
"129 603 LINE",
"204 545 LINE",
"204 641 LINE",
"382 641 LINE",
"382 635 LINE",
"431 584 LINE",
"456 604 LINE",
"472 583 LINE",
"546 510 LINE",
"654 375 LINE"
);
},
{
nodes = (
"239 129 LINE",
"347 129 LINE",
"347 246 LINE",
"451 163 LINE",
"519 247 LINE",
"380 359 LINE",
"519 470 LINE",
"451 555 LINE",
"347 472 LINE",
"347 606 LINE",
"239 606 LINE",
"239 472 LINE",
"136 555 LINE",
"68 469 LINE",
"206 359 LINE",
"68 248 LINE",
"136 163 LINE",
"159 180 OFFCURVE",
"213 226 OFFCURVE",
"239 246 QCURVE"
);
}
);
width = 668;
}
);
unicode = 002A;
},
{
glyphname = plus;
layers = (
{
layerId = "CD3DF19A-D83F-4C46-B819-463B69F1BB92";
paths = (
{
nodes = (
"227 601 LINE",
"372 601 LINE",
"372 595 LINE",
"459 508 LINE",
"459 395 LINE",
"568 395 LINE",
"568 389 LINE",
"655 302 LINE",
"655 163 LINE",
"459 163 LINE",
"459 -35 LINE",
"320 -35 LINE",
"233 52 LINE",
"227 52 LINE",
"227 163 LINE",
"112 163 LINE",
"25 250 LINE",
"19 250 LINE",
"19 395 LINE",
"227 395 LINE"
);
},
{
nodes = (
"262 360 LINE",
"54 360 LINE",
"54 285 LINE",
"262 285 LINE",
"262 87 LINE",
"337 87 LINE",
"337 285 LINE",
"533 285 LINE",
"533 360 LINE",
"337 360 LINE",
"337 566 LINE",
"262 566 LINE"
);
}
);
width = 682;
}
);
unicode = 002B;
},
{
glyphname = comma;
layers = (
{
layerId = "CD3DF19A-D83F-4C46-B819-463B69F1BB92";
paths = (
{
nodes = (
"28 127 LINE",
"206 127 LINE",
"206 121 LINE",
"293 34 LINE",
"293 -107 LINE",
"121 -213 LINE",
"33 -125 LINE",
"28 -129 LINE"
);
},
{
nodes = (
"63 -66 LINE",
"171 1 LINE",
"171 92 LINE",
"63 92 LINE"
);
}
);
width = 327;
}
);
unicode = 002C;
},
{
glyphname = hyphen;
layers = (
{
layerId = "CD3DF19A-D83F-4C46-B819-463B69F1BB92";
paths = (
{
nodes = (
"431 435 LINE",
"518 348 LINE",
"518 202 LINE",
"122 202 LINE",
"35 289 LINE",
"29 289 LINE",
"29 441 LINE",
"431 441 LINE"
);
},
{
nodes = (
"396 406 LINE",
"64 406 LINE",
"64 324 LINE",
"396 324 LINE"
);
}
);
width = 552;
}
);
unicode = 002D;
},
{
glyphname = period;
layers = (
{
layerId = "CD3DF19A-D83F-4C46-B819-463B69F1BB92";
paths = (
{
nodes = (
"179 139 LINE",
"266 52 LINE",
"266 -120 LINE",
"94 -120 LINE",
"7 -33 LINE",
"1 -33 LINE",
"1 145 LINE",
"179 145 LINE"
);
},
{
nodes = (
"144 110 LINE",
"36 110 LINE",
"36 2 LINE",
"144 2 LINE"
);
}
);
width = 177;
}
);
unicode = 002E;
},
{
glyphname = slash;
layers = (
{
layerId = "CD3DF19A-D83F-4C46-B819-463B69F1BB92";
paths = (
{
nodes = (
"296 764 LINE",
"295 758 LINE",
"382 671 LINE",
"222 -168 LINE",
"100 -168 LINE",
"13 -81 LINE",
"6 -81 LINE",
"167 764 LINE"
);
},
{
nodes = (
"196 729 LINE",
"48 -46 LINE",
"106 -46 LINE",
"254 729 LINE"
);
}
);
width = 404;
}
);
unicode = 002F;
},
{
glyphname = less;
layers = (
{
layerId = "CD3DF19A-D83F-4C46-B819-463B69F1BB92";
paths = (
{
nodes = (
"575 115 LINE",
"663 28 LINE",
"607 -110 LINE",
"120 201 LINE",
"41 280 LINE",
"27 289 LINE",
"27 410 LINE",
"518 724 LINE",
"522 714 LINE",
"607 629 LINE",
"662 490 LINE",
"329 277 LINE",
"351 264 LINE",
"577 120 LINE"
);
},
{
nodes = (
"533 106 LINE",
"150 349 LINE",
"533 593 LINE",
"501 671 LINE",
"62 391 LINE",
"62 308 LINE",
"501 28 LINE"
);
}
);
width = 682;
}
);
unicode = 003C;
},
{
glyphname = equal;
layers = (
{
layerId = "CD3DF19A-D83F-4C46-B819-463B69F1BB92";
paths = (
{
nodes = (
"886 504 LINE",
"973 417 LINE",
"973 278 LINE",
"927 278 LINE",
"973 232 LINE",
"973 93 LINE",
"126 93 LINE",
"39 180 LINE",
"33 180 LINE",
"33 325 LINE",
"79 325 LINE",
"39 365 LINE",
"33 365 LINE",
"33 510 LINE",
"886 510 LINE"
);
},
{
nodes = (
"851 475 LINE",
"68 475 LINE",
"68 400 LINE",
"851 400 LINE"
);
},
{
nodes = (
"851 290 LINE",
"68 290 LINE",
"68 215 LINE",
"851 215 LINE"
);
}
);
width = 1012;
}
);
unicode = 003D;
},
{
glyphname = greater;
layers = (
{
layerId = "CD3DF19A-D83F-4C46-B819-463B69F1BB92";
paths = (
{
nodes = (
"19 121 LINE",
"356 334 LINE",
"113 490 LINE",
"36 567 LINE",
"19 578 LINE",
"76 724 LINE",
"569 411 LINE",
"569 406 LINE",
"656 319 LINE",
"656 200 LINE",
"167 -110 LINE",
"79 -22 LINE",
"76 -25 LINE"
);
},
{
nodes = (
"93 28 LINE",
"534 308 LINE",
"534 391 LINE",
"93 671 LINE",
"62 593 LINE",
"445 349 LINE",
"62 106 LINE"
);
}
);
width = 680;
}
);
unicode = 003E;
},
{
glyphname = bracketleft;
layers = (
{
layerId = "CD3DF19A-D83F-4C46-B819-463B69F1BB92";
paths = (
{
nodes = (
"485 877 LINE",
"485 871 LINE",
"572 784 LINE",
"572 597 LINE",
"424 597 LINE",
"424 21 LINE",
"485 21 LINE",
"485 15 LINE",
"572 -72 LINE",
"572 -259 LINE",
"139 -259 LINE",
"52 -172 LINE",
"46 -172 LINE",
"46 877 LINE"
);
},
{
nodes = (
"81 842 LINE",
"81 -137 LINE",
"450 -137 LINE",
"450 -14 LINE",
"302 -14 LINE",
"302 719 LINE",
"450 719 LINE",
"450 842 LINE"
);
}
);
width = 601;
}
);
unicode = 005B;
},
{
glyphname = backslash;
layers = (
{
layerId = "CD3DF19A-D83F-4C46-B819-463B69F1BB92";
paths = (
{
nodes = (
"150 764 LINE",
"151 756 LINE",
"237 671 LINE",
"397 -168 LINE",
"275 -168 LINE",
"188 -81 LINE",
"182 -81 LINE",
"21 764 LINE"
);
},
{
nodes = (
"63 729 LINE",
"211 -46 LINE",
"269 -46 LINE",
"121 729 LINE"
);
}
);
width = 418;
}
);
unicode = 005C;
},
{
glyphname = bracketright;
layers = (
{
layerId = "CD3DF19A-D83F-4C46-B819-463B69F1BB92";
paths = (
{
nodes = (
"21 684 LINE",
"15 684 LINE",
"15 877 LINE",
"454 877 LINE",
"454 871 LINE",
"541 784 LINE",
"541 -259 LINE",
"108 -259 LINE",
"21 -172 LINE",
"15 -172 LINE",
"15 21 LINE",
"163 21 LINE",
"163 597 LINE",
"108 597 LINE"
);
},
{
nodes = (
"419 -137 LINE",
"419 842 LINE",
"50 842 LINE",
"50 719 LINE",
"198 719 LINE",
"198 -14 LINE",
"50 -14 LINE",
"50 -137 LINE"
);
}
);
width = 573;
}
);
unicode = 005D;
},
{
glyphname = asciicircum;
layers = (
{
layerId = "CD3DF19A-D83F-4C46-B819-463B69F1BB92";
paths = (
{
nodes = (
"27 219 LINE",
"17 223 LINE",
"330 716 LINE",
"453 716 LINE",
"461 702 LINE",
"541 623 LINE",
"851 134 LINE",
"712 80 LINE",
"624 167 LINE",
"620 166 LINE",
"463 414 LINE",
"251 80 LINE",
"112 134 LINE"
);
},
{
nodes = (
"713 240 LINE",
"433 681 LINE",
"350 681 LINE",
"70 240 LINE",
"148 209 LINE",
"392 592 LINE",
"635 209 LINE"
);
}
);
width = 872;
}
);
unicode = 005E;
},
{
glyphname = underscore;
layers = (
{
layerId = "CD3DF19A-D83F-4C46-B819-463B69F1BB92";
paths = (
{
nodes = (
"730 -7 LINE",
"817 -94 LINE",
"817 -233 LINE",
"122 -233 LINE",
"35 -146 LINE",
"29 -146 LINE",
"29 -1 LINE",
"730 -1 LINE"
);
},
{
nodes = (
"695 -36 LINE",
"64 -36 LINE",
"64 -111 LINE",
"695 -111 LINE"
);
}
);
width = 862;
}
);
unicode = 005F;
},
{
glyphname = braceleft;
layers = (
{
layerId = "CD3DF19A-D83F-4C46-B819-463B69F1BB92";
paths = (
{
nodes = (
"432 840 LINE",
"519 753 LINE",
"517 624 LINE",
"485 624 OFFCURVE",
"448 592 OFFCURVE",
"444 574 QCURVE SMOOTH",
"439 556 OFFCURVE",
"439 537 QCURVE SMOOTH",
"439 532 OFFCURVE",
"441 496 OFFCURVE",
"444 458 QCURVE SMOOTH",
"446 420 OFFCURVE",
"447 381 OFFCURVE",
"447 379 QCURVE",
"447 337 OFFCURVE",
"438 312 QCURVE",
"428 277 OFFCURVE",
"405 254 QCURVE",
"407 253 LINE",
"430 230 OFFCURVE",
"439 195 QCURVE",
"447 172 OFFCURVE",
"447 129 QCURVE",
"447 127 OFFCURVE",
"446 88 OFFCURVE",
"444 50 QCURVE SMOOTH",
"441 12 OFFCURVE",
"439 -24 OFFCURVE",
"439 -29 QCURVE SMOOTH",
"439 -36 LINE",
"519 -116 LINE",
"519 -245 LINE",
"428 -250 LINE SMOOTH",
"417 -251 OFFCURVE",
"395 -252 OFFCURVE",
"389 -252 QCURVE SMOOTH",
"335 -252 OFFCURVE",
"260 -231 OFFCURVE",
"237 -208 QCURVE SMOOTH",
"165 -137 LINE",
"132 -116 OFFCURVE",
"102 -38 OFFCURVE",
"102 22 QCURVE SMOOTH",
"102 28 LINE SMOOTH",
"102 31 OFFCURVE",
"103 38 OFFCURVE",
"103 43 QCURVE",
"106 130 LINE",
"105 138 OFFCURVE",
"105 169 OFFCURVE",
"106 184 QCURVE",
"38 252 LINE",
"32 252 LINE",
"32 436 LINE",
"67 436 OFFCURVE",
"101 465 OFFCURVE",
"107 481 QCURVE",
"107 490 OFFCURVE",
"106 514 OFFCURVE",
"105 537 OFFCURVE",
"105 555 OFFCURVE",
"105 558 QCURVE SMOOTH",
"105 585 OFFCURVE",
"104 630 OFFCURVE",
"103 645 QCURVE",
"103 650 OFFCURVE",
"102 657 OFFCURVE",
"102 660 QCURVE SMOOTH",
"102 666 LINE SMOOTH",
"102 717 OFFCURVE",
"124 788 OFFCURVE",
"171 833 OFFCURVE",
"246 853 OFFCURVE",
"299 853 QCURVE SMOOTH",
"306 853 OFFCURVE",
"327 852 OFFCURVE",
"338 851 QCURVE SMOOTH",
"360 850 OFFCURVE",
"411 847 OFFCURVE",
"432 846 QCURVE"
);
},
{
nodes = (
"397 813 LINE",
"366 814 OFFCURVE",
"313 818 OFFCURVE",
"299 818 QCURVE SMOOTH",
"212 818 OFFCURVE",
"137 749 OFFCURVE",
"137 666 QCURVE SMOOTH",
"137 657 OFFCURVE",
"140 596 OFFCURVE",
"140 554 QCURVE",
"141 555 LINE",
"140 551 OFFCURVE",
"140 526 OFFCURVE",
"141 499 OFFCURVE",
"142 477 OFFCURVE",
"142 476 QCURVE",
"138 464 OFFCURVE",
"125 438 OFFCURVE",
"107 415 OFFCURVE",
"82 401 OFFCURVE",
"67 401 QCURVE",
"67 287 LINE",
"82 287 OFFCURVE",
"107 273 OFFCURVE",
"125 250 OFFCURVE",
"138 224 OFFCURVE",
"142 212 QCURVE",
"142 210 OFFCURVE",
"141 189 OFFCURVE",
"140 162 OFFCURVE",
"140 137 OFFCURVE",
"141 133 QCURVE",
"140 134 LINE",
"140 92 OFFCURVE",
"137 31 OFFCURVE",
"137 22 QCURVE SMOOTH",
"137 -61 OFFCURVE",
"212 -130 OFFCURVE",
"299 -130 QCURVE SMOOTH",
"313 -130 OFFCURVE",
"366 -126 OFFCURVE",
"397 -125 QCURVE",
"397 -58 LINE",
"395 -58 LINE",
"366 -58 OFFCURVE",
"329 -11 OFFCURVE",
"323 16 QCURVE",
"317 35 OFFCURVE",
"317 61 QCURVE SMOOTH",
"317 66 OFFCURVE",
"319 105 OFFCURVE",
"322 143 QCURVE SMOOTH",
"324 181 OFFCURVE",
"325 217 OFFCURVE",
"325 219 QCURVE",
"325 255 OFFCURVE",
"318 275 QCURVE",
"308 315 OFFCURVE",
"278 334 QCURVE",
"273 336 OFFCURVE",
"264 342 OFFCURVE",
"259 344 QCURVE",
"304 363 OFFCURVE",
"318 413 QCURVE",
"325 433 OFFCURVE",
"325 469 QCURVE",
"325 471 OFFCURVE",
"324 508 OFFCURVE",
"322 546 QCURVE SMOOTH",
"319 584 OFFCURVE",
"317 622 OFFCURVE",
"317 627 QCURVE SMOOTH",
"317 652 OFFCURVE",
"323 672 QCURVE",
"329 699 OFFCURVE",
"366 746 OFFCURVE",
"395 746 QCURVE",
"397 746 LINE"
);
}
);
width = 547;
}
);
unicode = 007B;
},
{
glyphname = bar;
layers = (
{
layerId = "CD3DF19A-D83F-4C46-B819-463B69F1BB92";
paths = (
{
nodes = (
"199 902 LINE",
"199 896 LINE",
"286 809 LINE",
"286 -286 LINE",
"147 -286 LINE",
"60 -199 LINE",
"54 -199 LINE",
"54 902 LINE"
);
},
{
nodes = (
"89 867 LINE",
"89 -164 LINE",
"164 -164 LINE",
"164 867 LINE"
);
}
);
width = 330;
}
);
unicode = 007C;
},
{
glyphname = braceright;
layers = (
{
layerId = "CD3DF19A-D83F-4C46-B819-463B69F1BB92";
paths = (
{
nodes = (
"354 473 LINE",
"380 447 LINE",
"380 447 OFFCURVE",
"382 445 QCURVE",
"354 474 LINE"
);
},
{
nodes = (
"26 846 LINE",
"120 851 LINE SMOOTH",
"130 852 OFFCURVE",
"154 853 OFFCURVE",
"159 853 QCURVE SMOOTH",
"224 853 OFFCURVE",
"307 822 OFFCURVE",
"329 787 QCURVE",
"401 716 LINE SMOOTH",
"443 674 OFFCURVE",
"443 576 QCURVE SMOOTH",
"443 573 OFFCURVE",
"442 563 OFFCURVE",
"442 555 QCURVE",
"439 469 LINE",
"439 417 LINE",
"513 343 LINE",
"513 165 LINE",
"478 165 OFFCURVE",
"444 135 OFFCURVE",
"438 118 QCURVE",
"438 116 LINE",
"438 108 OFFCURVE",
"439 87 OFFCURVE",
"440 64 OFFCURVE",
"440 45 OFFCURVE",
"440 40 QCURVE SMOOTH",
"440 13 OFFCURVE",
"441 -32 OFFCURVE",
"442 -47 QCURVE",
"442 -55 OFFCURVE",
"443 -65 OFFCURVE",
"443 -68 QCURVE SMOOTH",
"443 -118 OFFCURVE",
"421 -188 OFFCURVE",
"375 -232 OFFCURVE",
"301 -252 OFFCURVE",
"249 -252 QCURVE SMOOTH",
"242 -252 OFFCURVE",
"221 -251 OFFCURVE",
"210 -250 QCURVE SMOOTH",
"119 -245 LINE",
"32 -158 LINE",
"26 -158 LINE",
"28 -23 LINE",
"60 -23 OFFCURVE",
"97 8 OFFCURVE",
"101 25 QCURVE SMOOTH",
"106 43 OFFCURVE",
"106 61 QCURVE SMOOTH",
"106 66 OFFCURVE",
"104 102 OFFCURVE",
"102 140 QCURVE",
"99 176 OFFCURVE",
"98 217 OFFCURVE",
"98 219 QCURVE",
"98 263 OFFCURVE",
"106 286 QCURVE",
"115 322 OFFCURVE",
"140 345 QCURVE",
"118 370 OFFCURVE",
"107 401 QCURVE SMOOTH",
"98 426 OFFCURVE",
"98 469 QCURVE",
"98 471 OFFCURVE",
"99 512 OFFCURVE",
"102 548 QCURVE SMOOTH",
"104 583 OFFCURVE",
"106 622 OFFCURVE",
"106 627 QCURVE SMOOTH",
"106 637 LINE",
"32 711 LINE",
"26 711 LINE"
);
},
{
nodes = (
"61 746 LINE",
"63 746 LINE",
"92 746 OFFCURVE",
"129 699 OFFCURVE",
"135 672 QCURVE",
"141 652 OFFCURVE",
"141 627 QCURVE SMOOTH",
"141 622 OFFCURVE",
"139 584 OFFCURVE",
"137 546 QCURVE SMOOTH",
"134 508 OFFCURVE",
"133 471 OFFCURVE",
"133 469 QCURVE",
"133 433 OFFCURVE",
"140 413 QCURVE",
"154 363 OFFCURVE",
"199 344 QCURVE",
"194 342 OFFCURVE",
"185 336 OFFCURVE",
"180 334 QCURVE",
"150 315 OFFCURVE",
"140 275 QCURVE",
"133 255 OFFCURVE",
"133 219 QCURVE",
"133 217 OFFCURVE",
"134 181 OFFCURVE",
"137 143 QCURVE SMOOTH",
"139 105 OFFCURVE",
"141 66 OFFCURVE",
"141 61 QCURVE SMOOTH",
"141 35 OFFCURVE",
"135 16 QCURVE",
"129 -11 OFFCURVE",
"92 -58 OFFCURVE",
"63 -58 QCURVE",
"61 -58 LINE",
"61 -125 LINE",
"92 -126 OFFCURVE",
"145 -130 OFFCURVE",
"159 -130 QCURVE SMOOTH",
"246 -130 OFFCURVE",
"321 -61 OFFCURVE",
"321 22 QCURVE SMOOTH",
"321 31 OFFCURVE",
"318 92 OFFCURVE",
"318 134 QCURVE",
"317 133 LINE",
"318 137 OFFCURVE",
"318 162 OFFCURVE",
"317 189 OFFCURVE",
"316 210 OFFCURVE",
"316 212 QCURVE",
"320 224 OFFCURVE",
"333 250 OFFCURVE",
"351 273 OFFCURVE",
"376 287 OFFCURVE",
"391 287 QCURVE",
"391 401 LINE",
"376 401 OFFCURVE",
"351 415 OFFCURVE",
"333 438 OFFCURVE",
"320 464 OFFCURVE",
"316 476 QCURVE",
"316 477 OFFCURVE",
"317 499 OFFCURVE",
"318 526 OFFCURVE",
"318 551 OFFCURVE",
"317 555 QCURVE",
"318 554 LINE",
"318 596 OFFCURVE",
"321 657 OFFCURVE",
"321 666 QCURVE SMOOTH",
"321 749 OFFCURVE",
"246 818 OFFCURVE",
"159 818 QCURVE SMOOTH",
"145 818 OFFCURVE",
"92 814 OFFCURVE",
"61 813 QCURVE"
);
}
);
width = 538;
}
);
unicode = 007D;
},
{
glyphname = asciitilde;
layers = (
{
layerId = "CD3DF19A-D83F-4C46-B819-463B69F1BB92";
paths = (
{
nodes = (
"655 509 LINE",
"654 504 LINE",
"741 417 LINE",
"728 356 LINE SMOOTH",
"721 322 OFFCURVE",
"702 246 OFFCURVE",
"666 182 OFFCURVE",
"607 140 OFFCURVE",
"561 140 QCURVE SMOOTH",
"528 140 OFFCURVE",
"447 161 OFFCURVE",
"409 173 QCURVE",
"410 173 LINE",
"399 176 OFFCURVE",
"384 180 OFFCURVE",
"378 183 QCURVE",
"366 185 OFFCURVE",
"343 194 OFFCURVE",
"329 198 QCURVE SMOOTH",
"321 200 OFFCURVE",
"311 204 OFFCURVE",
"312 204 QCURVE",
"304 204 OFFCURVE",
"283 198 OFFCURVE",
"263 185 OFFCURVE",
"246 162 OFFCURVE",
"242 145 QCURVE",
"117 179 LINE",
"32 264 LINE",
"23 267 LINE",
"36 331 LINE SMOOTH",
"43 367 OFFCURVE",
"63 443 OFFCURVE",
"100 507 OFFCURVE",
"159 548 OFFCURVE",
"207 548 QCURVE SMOOTH",
"239 548 OFFCURVE",
"313 526 OFFCURVE",
"351 513 QCURVE SMOOTH",
"382 502 OFFCURVE",
"439 485 OFFCURVE",
"459 485 QCURVE SMOOTH",
"476 485 OFFCURVE",
"516 512 OFFCURVE",
"523 548 QCURVE"
);
},
{
nodes = (
"549 503 LINE",
"546 488 OFFCURVE",
"527 468 OFFCURVE",
"501 455 OFFCURVE",
"472 450 OFFCURVE",
"459 450 QCURVE SMOOTH",
"435 450 OFFCURVE",
"370 470 OFFCURVE",
"302 493 OFFCURVE",
"234 513 OFFCURVE",
"207 513 QCURVE SMOOTH",
"165 513 OFFCURVE",
"115 467 OFFCURVE",
"86 400 OFFCURVE",
"71 323 OFFCURVE",
"64 292 QCURVE",
"130 274 LINE",
"134 289 OFFCURVE",
"155 309 OFFCURVE",
"181 321 OFFCURVE",
"210 326 OFFCURVE",
"222 326 QCURVE",
"223 326 OFFCURVE",
"245 319 OFFCURVE",
"270 312 OFFCURVE",
"294 305 OFFCURVE",
"297 305 QCURVE",
"297 304 LINE",
"317 298 OFFCURVE",
"362 283 OFFCURVE",
"408 271 OFFCURVE",
"452 262 OFFCURVE",
"471 262 QCURVE SMOOTH",
"513 262 OFFCURVE",
"563 309 OFFCURVE",
"592 378 OFFCURVE",
"607 454 OFFCURVE",
"614 484 QCURVE"
);
}
);
width = 757;
}
);
unicode = 007E;
},
{
glyphname = at;
layers = (
{
layerId = "CD3DF19A-D83F-4C46-B819-463B69F1BB92";
paths = (
{
nodes = (
"800 415 LINE",
"796 422 OFFCURVE",
"788 434 OFFCURVE",
"783 441 QCURVE",
"765 452 LINE",
"767 450 OFFCURVE",
"769 446 QCURVE"
);
},
{
nodes = (
"461 155 LINE",
"437 152 OFFCURVE",
"406 116 OFFCURVE",
"406 93 QCURVE SMOOTH",
"406 45 LINE",
"461 46 LINE"
);
},
{
nodes = (
"36 335 OFFCURVE",
"110 505 OFFCURVE",
"236 631 OFFCURVE",
"406 705 OFFCURVE",
"502 705 QCURVE SMOOTH",
"613 705 OFFCURVE",
"802 608 OFFCURVE",
"867 526 QCURVE",
"919 475 LINE SMOOTH",
"982 412 OFFCURVE",
"1055 245 OFFCURVE",
"1055 149 QCURVE SMOOTH",
"1055 68 OFFCURVE",
"1006 -71 OFFCURVE",
"955 -137 QCURVE",
"963 -145 LINE",
"861 -227 OFFCURVE",
"680 -314 OFFCURVE",
"592 -314 QCURVE SMOOTH",
"497 -314 OFFCURVE",
"328 -240 OFFCURVE",
"265 -177 QCURVE SMOOTH",
"214 -126 LINE",
"133 -61 OFFCURVE",
"36 127 OFFCURVE",
"36 239 QCURVE SMOOTH"
);
},
{
nodes = (
"496 11 LINE",
"379 10 LINE",
"329 10 OFFCURVE",
"284 75 OFFCURVE",
"284 120 QCURVE SMOOTH",
"284 183 LINE SMOOTH",
"284 202 OFFCURVE",
"299 237 OFFCURVE",
"324 263 OFFCURVE",
"359 278 OFFCURVE",
"379 278 QCURVE SMOOTH",
"496 278 LINE"
);
},
{
nodes = (
"71 150 OFFCURVE",
"140 -7 OFFCURVE",
"257 -124 OFFCURVE",
"414 -192 OFFCURVE",
"502 -192 QCURVE SMOOTH",
"583 -192 OFFCURVE",
"720 -138 OFFCURVE",
"783 -87 QCURVE",
"700 -87 LINE",
"655 -113 OFFCURVE",
"557 -143 OFFCURVE",
"502 -143 QCURVE SMOOTH",
"423 -143 OFFCURVE",
"284 -83 OFFCURVE",
"180 21 OFFCURVE",
"120 160 OFFCURVE",
"120 239 QCURVE SMOOTH",
"120 318 OFFCURVE",
"180 457 OFFCURVE",
"284 561 OFFCURVE",
"423 621 OFFCURVE",
"502 621 QCURVE SMOOTH",
"581 621 OFFCURVE",
"720 561 OFFCURVE",
"824 457 OFFCURVE",
"884 318 OFFCURVE",
"884 239 QCURVE SMOOTH",
"884 173 OFFCURVE",
"843 58 OFFCURVE",
"807 10 QCURVE",
"766 11 LINE",
"766 345 LINE SMOOTH",
"766 374 OFFCURVE",
"744 426 OFFCURVE",
"706 465 OFFCURVE",
"654 487 OFFCURVE",
"625 487 QCURVE SMOOTH",
"238 487 LINE",
"239 439 LINE",
"493 439 LINE",
"493 326 LINE",
"388 325 LINE",
"350 325 OFFCURVE",
"298 303 OFFCURVE",
"279 283 QCURVE SMOOTH",
"260 264 OFFCURVE",
"237 212 OFFCURVE",
"237 183 QCURVE SMOOTH",
"237 99 LINE SMOOTH",
"237 70 OFFCURVE",
"261 21 OFFCURVE",
"300 -16 OFFCURVE",
"351 -37 OFFCURVE",
"379 -37 QCURVE SMOOTH",
"606 -37 LINE",
"832 -36 LINE",
"883 25 OFFCURVE",
"933 158 OFFCURVE",
"933 239 QCURVE SMOOTH",
"933 328 OFFCURVE",
"864 485 OFFCURVE",
"747 602 OFFCURVE",
"590 670 OFFCURVE",
"502 670 QCURVE SMOOTH",
"413 670 OFFCURVE",
"257 602 OFFCURVE",
"139 484 OFFCURVE",
"71 327 OFFCURVE",
"71 239 QCURVE SMOOTH"
);
}
);
width = 1082;
}
);
unicode = 0040;
},
{
glyphname = grave;
layers = (
{
layerId = "CD3DF19A-D83F-4C46-B819-463B69F1BB92";
paths = (
{
nodes = (
"174 998 LINE",
"366 1086 LINE",
"370 1076 LINE",
"454 992 LINE",
"547 757 LINE",
"407 701 LINE",
"319 788 LINE",
"316 787 LINE"
);
},
{
nodes = (
"329 831 LINE",
"415 865 LINE",
"346 1039 LINE",
"226 984 LINE"
);
}
);
width = 774;
}
);
unicode = 0060;
},
{
glyphname = Euro;
layers = (
{
layerId = "CD3DF19A-D83F-4C46-B819-463B69F1BB92";
paths = (
{
nodes = (
"34 180 LINE",
"28 180 LINE",
"28 325 LINE",
"74 325 LINE",
"34 365 LINE",
"28 365 LINE",
"28 510 LINE",
"108 510 LINE",
"112 556 OFFCURVE",
"154 636 OFFCURVE",
"218 696 OFFCURVE",
"302 730 OFFCURVE",
"350 730 QCURVE SMOOTH",
"789 730 LINE",
"789 724 LINE",
"876 637 LINE",
"876 503 LINE",
"789 503 LINE",
"876 417 LINE",
"876 278 LINE",
"830 278 LINE",
"876 232 LINE",
"876 93 LINE",
"794 93 LINE",
"876 11 LINE",
"876 -122 LINE",
"440 -122 LINE SMOOTH",
"389 -122 OFFCURVE",
"302 -84 OFFCURVE",
"270 -52 QCURVE SMOOTH",
"207 10 LINE",
"162 43 OFFCURVE",
"135 93 QCURVE",
"121 93 LINE"
);
},
{
nodes = (
"449 215 LINE",
"754 215 LINE",
"754 290 LINE",
"449 290 LINE",
"449 400 LINE",
"754 400 LINE",
"754 475 LINE",
"449 475 LINE",
"449 627 LINE",
"754 625 LINE",
"754 695 LINE",
"350 695 LINE SMOOTH",
"307 695 OFFCURVE",
"231 662 OFFCURVE",
"175 605 OFFCURVE",
"142 529 OFFCURVE",
"142 486 QCURVE SMOOTH",
"142 475 LINE",
"63 475 LINE",
"63 400 LINE",
"142 400 LINE",
"142 290 LINE",
"63 290 LINE",
"63 215 LINE",
"142 215 LINE",
"142 208 LINE SMOOTH",
"142 165 OFFCURVE",
"175 89 OFFCURVE",
"231 33 OFFCURVE",
"307 0 OFFCURVE",
"350 0 QCURVE SMOOTH",
"754 0 LINE",
"754 69 LINE",
"449 69 LINE"
);
}
);
width = 902;
}
);
unicode = 20AC;
},
{
glyphname = quotedblbase;
layers = (
{
layerId = "CD3DF19A-D83F-4C46-B819-463B69F1BB92";
paths = (
{
nodes = (
"31 127 LINE",
"371 127 LINE",
"371 121 LINE",
"458 34 LINE",
"458 -107 LINE",
"286 -213 LINE",
"224 -151 LINE",
"124 -213 LINE",
"36 -125 LINE",
"31 -129 LINE"
);
},
{
nodes = (
"228 -66 LINE",
"336 1 LINE",
"336 92 LINE",
"228 92 LINE"
);
},
{
nodes = (
"66 -66 LINE",
"174 1 LINE",
"174 92 LINE",
"66 92 LINE"
);
}
);
width = 481;
}
);
unicode = 201E;
},
{
glyphname = ellipsis;
layers = (
{
layerId = "CD3DF19A-D83F-4C46-B819-463B69F1BB92";
paths = (
{
nodes = (
"563 139 LINE",
"650 52 LINE",
"650 -120 LINE",
"478 -120 LINE",
"473 -115 LINE",
"473 -120 LINE",
"301 -120 LINE",
"296 -115 LINE",
"296 -120 LINE",
"124 -120 LINE",
"37 -33 LINE",
"31 -33 LINE",
"31 145 LINE",
"563 145 LINE"
);
},
{
nodes = (
"528 110 LINE",
"420 110 LINE",
"420 2 LINE",
"528 2 LINE"
);
},
{
nodes = (
"351 110 LINE",
"243 110 LINE",
"243 2 LINE",
"351 2 LINE"
);
},
{
nodes = (
"174 110 LINE",
"66 110 LINE",
"66 2 LINE",
"174 2 LINE"
);
}
);
width = 680;
}
);
unicode = 2026;
},
{
glyphname = quoteleft;
layers = (
{
layerId = "CD3DF19A-D83F-4C46-B819-463B69F1BB92";
paths = (
{
nodes = (
"210 751 LINE",
"297 664 LINE",
"297 417 LINE",
"125 417 LINE",
"38 504 LINE",
"32 504 LINE",
"32 650 LINE",
"210 760 LINE"
);
},
{
nodes = (
"175 697 LINE",
"67 630 LINE",
"67 539 LINE",
"175 539 LINE"
);
}
);
width = 330;
}
);
unicode = 2018;
},
{
glyphname = quotedblleft;
layers = (
{
layerId = "CD3DF19A-D83F-4C46-B819-463B69F1BB92";
paths = (
{
nodes = (
"365 751 LINE",
"452 664 LINE",
"452 417 LINE",
"122 417 LINE",
"35 504 LINE",
"29 504 LINE",
"29 650 LINE",
"207 760 LINE",
"207 751 LINE",
"261 695 LINE",
"365 760 LINE"
);
},
{
nodes = (
"172 697 LINE",
"64 630 LINE",
"64 539 LINE",
"172 539 LINE"
);
},
{
nodes = (
"330 697 LINE",
"222 630 LINE",
"222 539 LINE",
"330 539 LINE"
);
}
);
width = 477;
}
);
unicode = 201C;
},
{
glyphname = quotedblright;
layers = (
{
layerId = "CD3DF19A-D83F-4C46-B819-463B69F1BB92";
paths = (
{
nodes = (
"30 732 LINE",
"366 732 LINE",
"366 726 LINE",
"453 639 LINE",
"453 498 LINE",
"281 392 LINE",
"221 452 LINE",
"123 392 LINE",
"35 479 LINE",
"30 476 LINE"
);
},
{
nodes = (
"223 539 LINE",
"331 606 LINE",
"331 697 LINE",
"223 697 LINE"
);
},
{
nodes = (
"65 539 LINE",
"173 606 LINE",
"173 697 LINE",
"65 697 LINE"
);
}
);
width = 488;
}
);
unicode = 201D;
},
{
glyphname = bullet;
layers = (
{
layerId = "CD3DF19A-D83F-4C46-B819-463B69F1BB92";
paths = (
{
nodes = (
"26 389 OFFCURVE",
"53 452 OFFCURVE",
"100 499 OFFCURVE",
"163 526 OFFCURVE",
"199 526 QCURVE SMOOTH",
"244 526 OFFCURVE",
"320 483 OFFCURVE",
"343 448 QCURVE",
"409 383 LINE SMOOTH",
"432 360 OFFCURVE",
"459 298 OFFCURVE",
"459 263 QCURVE SMOOTH",
"459 228 OFFCURVE",
"432 166 OFFCURVE",
"386 120 OFFCURVE",
"324 93 OFFCURVE",
"289 93 QCURVE SMOOTH",
"254 93 OFFCURVE",
"192 120 OFFCURVE",
"169 143 QCURVE SMOOTH",
"103 208 LINE",
"68 231 OFFCURVE",
"26 307 OFFCURVE",
"26 353 QCURVE SMOOTH"
);
},
{
nodes = (
"61 324 OFFCURVE",
"83 274 OFFCURVE",
"120 237 OFFCURVE",
"170 215 OFFCURVE",
"199 215 QCURVE SMOOTH",
"227 215 OFFCURVE",
"278 237 OFFCURVE",
"315 274 OFFCURVE",
"337 324 OFFCURVE",
"337 353 QCURVE SMOOTH",
"337 381 OFFCURVE",
"315 432 OFFCURVE",
"278 469 OFFCURVE",
"227 491 OFFCURVE",
"199 491 QCURVE SMOOTH",
"170 491 OFFCURVE",
"120 469 OFFCURVE",
"83 432 OFFCURVE",
"61 381 OFFCURVE",
"61 353 QCURVE SMOOTH"
);
}
);
width = 486;
}
);
unicode = 2022;
},
{
glyphname = endash;
layers = (
{
layerId = "CD3DF19A-D83F-4C46-B819-463B69F1BB92";
paths = (
{
nodes = (
"734 389 LINE",
"821 302 LINE",
"821 163 LINE",
"120 163 LINE",
"33 250 LINE",
"27 250 LINE",
"27 395 LINE",
"734 395 LINE"
);
},
{
nodes = (
"699 360 LINE",
"62 360 LINE",
"62 285 LINE",
"699 285 LINE"
);
}
);
width = 841;
}
);
unicode = 2013;
},
{
glyphname = emdash;
layers = (
{
layerId = "CD3DF19A-D83F-4C46-B819-463B69F1BB92";
paths = (
{
nodes = (
"917 389 LINE",
"1004 302 LINE",
"1004 163 LINE",
"118 163 LINE",
"31 250 LINE",
"25 250 LINE",
"25 395 LINE",
"917 395 LINE"
);
},
{
nodes = (
"882 360 LINE",
"60 360 LINE",
"60 285 LINE",
"882 285 LINE"
);
}
);
width = 1028;
}
);
unicode = 2014;
},
{
glyphname = trademark;
layers = (
{
layerId = "CD3DF19A-D83F-4C46-B819-463B69F1BB92";
paths = (
{
nodes = (
"591 716 LINE",
"596 706 LINE",
"620 681 LINE",
"635 716 LINE",
"872 716 LINE",
"872 710 LINE",
"959 623 LINE",
"959 262 LINE",
"716 262 LINE",
"691 287 LINE",
"691 262 LINE",
"448 262 LINE",
"425 285 LINE",
"425 262 LINE",
"184 262 LINE",
"97 349 LINE",
"91 349 LINE",
"91 562 LINE",
"37 616 LINE",
"31 616 LINE",
"31 716 LINE"
);
},
{
nodes = (
"658 681 LINE",
"647 656 OFFCURVE",
"625 607 OFFCURVE",
"614 582 QCURVE",
"569 681 LINE",
"390 681 LINE",
"390 384 LINE",
"569 384 LINE",
"569 615 LINE",
"614 516 LINE",
"658 615 LINE",
"658 384 LINE",
"837 384 LINE",
"837 681 LINE"
);
},
{
nodes = (
"66 681 LINE",
"66 651 LINE",
"126 651 LINE",
"126 384 LINE",
"303 384 LINE",
"303 651 LINE",
"363 651 LINE",
"363 681 LINE"
);
}
);
width = 989;
}
);
unicode = 2122;
},
{
glyphname = section;
layers = (
{
layerId = "CD3DF19A-D83F-4C46-B819-463B69F1BB92";
paths = (
{
nodes = (
"601 609 LINE",
"601 590 LINE",
"648 562 OFFCURVE",
"678 520 QCURVE",
"737 460 LINE",
"734 463 LINE",
"740 458 LINE",
"772 426 OFFCURVE",
"809 341 OFFCURVE",
"809 291 QCURVE SMOOTH",
"809 240 OFFCURVE",
"772 152 OFFCURVE",
"739 119 QCURVE",
"742 116 LINE SMOOTH",
"774 84 OFFCURVE",
"816 -6 OFFCURVE",
"816 -57 QCURVE SMOOTH",
"816 -106 OFFCURVE",
"779 -194 OFFCURVE",
"714 -261 OFFCURVE",
"626 -300 OFFCURVE",
"576 -300 QCURVE SMOOTH",
"120 -300 LINE",
"33 -213 LINE",
"27 -213 LINE",
"27 -74 LINE",
"486 -74 LINE SMOOTH",
"507 -74 OFFCURVE",
"545 -58 OFFCURVE",
"574 -29 OFFCURVE",
"590 9 OFFCURVE",
"590 30 QCURVE SMOOTH",
"590 36 OFFCURVE",
"588 46 QCURVE",
"584 47 OFFCURVE",
"576 47 QCURVE SMOOTH",
"333 47 LINE SMOOTH",
"294 47 OFFCURVE",
"225 78 OFFCURVE",
"198 105 QCURVE SMOOTH",
"132 170 LINE",
"87 202 OFFCURVE",
"34 312 OFFCURVE",
"34 378 QCURVE",
"521 378 LINE",
"521 372 LINE",
"567 325 LINE",
"583 351 OFFCURVE",
"583 378 QCURVE SMOOTH",
"583 384 OFFCURVE",
"581 394 QCURVE",
"577 395 OFFCURVE",
"569 395 QCURVE SMOOTH",
"326 395 LINE SMOOTH",
"283 395 OFFCURVE",
"208 427 OFFCURVE",
"180 455 QCURVE SMOOTH",
"114 521 LINE",
"74 550 OFFCURVE",
"27 637 OFFCURVE",
"27 691 QCURVE SMOOTH",
"27 734 OFFCURVE",
"60 811 OFFCURVE",
"116 867 OFFCURVE",
"192 900 OFFCURVE",
"236 900 QCURVE SMOOTH",
"479 900 LINE SMOOTH",
"534 900 OFFCURVE",
"629 849 OFFCURVE",
"662 804 QCURVE",
"728 739 LINE SMOOTH",
"766 701 OFFCURVE",
"810 595 OFFCURVE",
"810 534 QCURVE",
"676 534 LINE"
);
},
{
nodes = (
"486 -178 LINE SMOOTH",
"529 -178 OFFCURVE",
"605 -144 OFFCURVE",
"662 -86 OFFCURVE",
"694 -10 OFFCURVE",
"694 33 QCURVE SMOOTH",
"694 90 OFFCURVE",
"642 179 OFFCURVE",
"597 207 QCURVE",
"639 236 OFFCURVE",
"687 327 OFFCURVE",
"687 381 QCURVE SMOOTH",
"687 424 OFFCURVE",
"654 499 OFFCURVE",
"597 555 OFFCURVE",
"522 587 OFFCURVE",
"479 587 QCURVE",
"479 795 LINE",
"508 795 OFFCURVE",
"559 773 OFFCURVE",
"596 736 OFFCURVE",
"618 685 OFFCURVE",
"618 656 QCURVE",
"688 656 LINE",
"688 699 OFFCURVE",
"655 775 OFFCURVE",
"598 832 OFFCURVE",
"522 865 OFFCURVE",
"479 865 QCURVE SMOOTH",
"236 865 LINE SMOOTH",
"200 865 OFFCURVE",
"137 838 OFFCURVE",
"89 790 OFFCURVE",
"62 727 OFFCURVE",
"62 691 QCURVE SMOOTH",
"62 655 OFFCURVE",
"89 592 OFFCURVE",
"137 544 OFFCURVE",
"200 517 OFFCURVE",
"236 517 QCURVE SMOOTH",
"479 517 LINE SMOOTH",
"508 517 OFFCURVE",
"559 495 OFFCURVE",
"596 458 OFFCURVE",
"618 407 OFFCURVE",
"618 378 QCURVE SMOOTH",
"618 350 OFFCURVE",
"597 300 OFFCURVE",
"561 263 OFFCURVE",
"513 240 OFFCURVE",
"486 239 QCURVE",
"486 343 LINE",
"69 343 LINE",
"69 307 OFFCURVE",
"96 244 OFFCURVE",
"144 196 OFFCURVE",
"207 169 OFFCURVE",
"243 169 QCURVE SMOOTH",
"486 169 LINE SMOOTH",
"515 169 OFFCURVE",
"566 147 OFFCURVE",
"603 110 OFFCURVE",
"625 59 OFFCURVE",
"625 30 QCURVE SMOOTH",
"625 1 OFFCURVE",
"603 -50 OFFCURVE",
"566 -87 OFFCURVE",
"515 -109 OFFCURVE",
"486 -109 QCURVE SMOOTH",
"62 -109 LINE",
"62 -178 LINE"
);
}
);
width = 839;
}
);
unicode = 00A7;
},
{
glyphname = dieresis;
layers = (
{
layerId = "CD3DF19A-D83F-4C46-B819-463B69F1BB92";
paths = (
{
nodes = (
"48 935 OFFCURVE",
"66 978 OFFCURVE",
"97 1009 OFFCURVE",
"139 1027 OFFCURVE",
"163 1027 QCURVE SMOOTH",
"195 1027 OFFCURVE",
"247 997 OFFCURVE",
"262 971 QCURVE",
"321 913 LINE",
"321 937 OFFCURVE",
"339 979 OFFCURVE",
"370 1009 OFFCURVE",
"412 1027 OFFCURVE",
"436 1027 QCURVE SMOOTH",
"468 1027 OFFCURVE",
"520 997 OFFCURVE",
"535 971 QCURVE",
"606 901 LINE SMOOTH",
"621 886 OFFCURVE",
"639 844 OFFCURVE",
"639 821 QCURVE SMOOTH",
"639 797 OFFCURVE",
"621 756 OFFCURVE",
"591 726 OFFCURVE",
"550 709 OFFCURVE",
"526 709 QCURVE SMOOTH",
"502 709 OFFCURVE",
"461 726 OFFCURVE",
"446 741 QCURVE SMOOTH",
"373 813 LINE",
"366 819 LINE",
"366 796 OFFCURVE",
"348 756 OFFCURVE",
"317 726 OFFCURVE",
"276 709 OFFCURVE",
"253 709 QCURVE SMOOTH",
"229 709 OFFCURVE",
"188 726 OFFCURVE",
"173 741 QCURVE SMOOTH",
"100 813 LINE",
"76 828 OFFCURVE",
"48 879 OFFCURVE",
"48 911 QCURVE SMOOTH"
);
},
{
nodes = (
"356 877 OFFCURVE",
"402 831 OFFCURVE",
"436 831 QCURVE SMOOTH",
"470 831 OFFCURVE",
"517 877 OFFCURVE",
"517 911 QCURVE SMOOTH",
"517 945 OFFCURVE",
"470 992 OFFCURVE",
"436 992 QCURVE SMOOTH",
"402 992 OFFCURVE",
"356 945 OFFCURVE",
"356 911 QCURVE SMOOTH"
);
},
{
nodes = (
"83 877 OFFCURVE",
"129 831 OFFCURVE",
"163 831 QCURVE SMOOTH",
"197 831 OFFCURVE",
"244 877 OFFCURVE",
"244 911 QCURVE SMOOTH",
"244 945 OFFCURVE",
"197 992 OFFCURVE",
"163 992 QCURVE SMOOTH",
"129 992 OFFCURVE",
"83 945 OFFCURVE",
"83 911 QCURVE SMOOTH"
);
}
);
width = 671;
}
);
unicode = 00A8;
},
{
glyphname = copyright;
layers = (
{
layerId = "CD3DF19A-D83F-4C46-B819-463B69F1BB92";
paths = (
{
nodes = (
"532 269 LINE",
"554 311 OFFCURVE",
"555 359 QCURVE",
"512 314 LINE",
"510 316 LINE",
"488 336 OFFCURVE",
"447 360 OFFCURVE",
"430 360 QCURVE SMOOTH",
"414 360 OFFCURVE",
"384 348 OFFCURVE",
"361 327 OFFCURVE",
"346 299 OFFCURVE",
"345 284 QCURVE",
"365 286 OFFCURVE",
"406 320 OFFCURVE",
"426 346 QCURVE"
);
},
{
nodes = (
"128 87 LINE",
"65 135 OFFCURVE",
"-9 279 OFFCURVE",
"-9 365 QCURVE SMOOTH",
"-9 438 OFFCURVE",
"45 565 OFFCURVE",
"140 659 OFFCURVE",
"267 714 OFFCURVE",
"340 714 QCURVE SMOOTH",
"426 714 OFFCURVE",
"570 640 OFFCURVE",
"618 577 QCURVE",
"675 520 LINE SMOOTH",
"722 472 OFFCURVE",
"776 347 OFFCURVE",
"776 275 QCURVE SMOOTH",
"776 203 OFFCURVE",
"722 77 OFFCURVE",
"628 -17 OFFCURVE",
"502 -71 OFFCURVE",
"430 -71 QCURVE SMOOTH",
"358 -71 OFFCURVE",
"232 -18 OFFCURVE",
"185 30 QCURVE SMOOTH"
);
},
{
nodes = (
"434 297 LINE",
"418 275 OFFCURVE",
"369 249 OFFCURVE",
"340 249 QCURVE SMOOTH",
"316 249 OFFCURVE",
"273 267 OFFCURVE",
"242 299 OFFCURVE",
"223 341 OFFCURVE",
"223 365 QCURVE SMOOTH",
"223 389 OFFCURVE",
"242 432 OFFCURVE",
"273 463 OFFCURVE",
"316 482 OFFCURVE",
"340 482 QCURVE SMOOTH",
"363 482 OFFCURVE",
"405 464 OFFCURVE",
"421 449 QCURVE",
"465 495 LINE",
"441 518 OFFCURVE",
"377 546 OFFCURVE",
"340 546 QCURVE SMOOTH",
"302 546 OFFCURVE",
"237 518 OFFCURVE",
"187 468 OFFCURVE",
"159 402 OFFCURVE",
"159 365 QCURVE SMOOTH",
"159 327 OFFCURVE",
"187 262 OFFCURVE",
"237 213 OFFCURVE",
"302 185 OFFCURVE",
"340 185 QCURVE SMOOTH",
"385 185 OFFCURVE",
"461 225 OFFCURVE",
"486 259 QCURVE"
);
},
{
nodes = (
"392 615 OFFCURVE",
"483 576 OFFCURVE",
"551 508 OFFCURVE",
"590 417 OFFCURVE",
"590 365 QCURVE SMOOTH",
"590 313 OFFCURVE",
"551 222 OFFCURVE",
"483 154 OFFCURVE",
"392 115 OFFCURVE",
"340 115 QCURVE SMOOTH",
"288 115 OFFCURVE",
"197 154 OFFCURVE",
"129 222 OFFCURVE",
"90 313 OFFCURVE",
"90 365 QCURVE SMOOTH",
"90 417 OFFCURVE",
"129 508 OFFCURVE",
"197 576 OFFCURVE",
"288 615 OFFCURVE",
"340 615 QCURVE SMOOTH"
);
},
{
nodes = (
"405 51 OFFCURVE",
"520 100 OFFCURVE",
"605 185 OFFCURVE",
"654 300 OFFCURVE",
"654 365 QCURVE SMOOTH",
"654 430 OFFCURVE",
"605 545 OFFCURVE",
"520 630 OFFCURVE",
"405 679 OFFCURVE",
"340 679 QCURVE SMOOTH",
"275 679 OFFCURVE",
"160 630 OFFCURVE",
"75 545 OFFCURVE",
"26 430 OFFCURVE",
"26 365 QCURVE SMOOTH",
"26 300 OFFCURVE",
"75 185 OFFCURVE",
"160 100 OFFCURVE",
"275 51 OFFCURVE",
"340 51 QCURVE SMOOTH"
);
}
);
width = 680;
}
);
unicode = 00A9;
},
{
glyphname = ogonek;
layers = (
{
layerId = "CD3DF19A-D83F-4C46-B819-463B69F1BB92";
paths = (
{
nodes = (
"227 -310 LINE SMOOTH",
"227 -344 OFFCURVE",
"273 -388 OFFCURVE",
"307 -388 QCURVE SMOOTH",
"408 -388 LINE SMOOTH",
"427 -388 OFFCURVE",
"461 -373 OFFCURVE",
"487 -346 OFFCURVE",
"502 -309 OFFCURVE",
"502 -288 QCURVE",
"456 -288 LINE",
"456 -311 OFFCURVE",
"428 -345 OFFCURVE",
"408 -345 QCURVE SMOOTH",
"338 -345 LINE",
"338 -316 OFFCURVE",
"337 -253 OFFCURVE",
"337 -224 QCURVE",
"444 -224 LINE",
"444 0 LINE",
"479 0 LINE",
"479 -6 LINE",
"566 -93 LINE",
"566 -288 LINE",
"624 -346 LINE",
"624 -381 OFFCURVE",
"604 -441 OFFCURVE",
"569 -485 OFFCURVE",
"523 -510 OFFCURVE",
"498 -510 QCURVE SMOOTH",
"397 -510 LINE SMOOTH",
"348 -510 OFFCURVE",
"316 -478 QCURVE SMOOTH",
"243 -405 LINE",
"220 -391 OFFCURVE",
"192 -341 OFFCURVE",
"192 -310 QCURVE SMOOTH",
"192 -268 LINE SMOOTH",
"192 -244 OFFCURVE",
"210 -202 OFFCURVE",
"241 -172 OFFCURVE",
"283 -154 OFFCURVE",
"307 -154 QCURVE SMOOTH",
"315 -154 LINE",
"315 0 LINE",
"350 0 LINE",
"350 -189 LINE",
"307 -189 LINE SMOOTH",
"273 -189 OFFCURVE",
"227 -235 OFFCURVE",
"227 -268 QCURVE SMOOTH"
);
}
);
width = 833;
}
);
unicode = 02DB;
},
{
glyphname = cedilla;
layers = (
{
layerId = "CD3DF19A-D83F-4C46-B819-463B69F1BB92";
paths = (
{
nodes = (
"537 -268 LINE SMOOTH",
"537 -235 OFFCURVE",
"491 -189 OFFCURVE",
"457 -189 QCURVE SMOOTH",
"414 -189 LINE",
"414 0 LINE",
"536 0 LINE",
"536 -184 LINE",
"542 -189 OFFCURVE",
"551 -202 OFFCURVE",
"556 -209 QCURVE",
"627 -280 LINE SMOOTH",
"659 -312 OFFCURVE",
"659 -358 QCURVE SMOOTH",
"659 -400 LINE SMOOTH",
"659 -448 OFFCURVE",
"595 -510 OFFCURVE",
"547 -510 QCURVE SMOOTH",
"446 -510 LINE SMOOTH",
"403 -510 OFFCURVE",
"369 -476 QCURVE SMOOTH",
"298 -405 LINE",
"266 -384 OFFCURVE",
"227 -304 OFFCURVE",
"227 -253 QCURVE",
"285 -253 LINE",
"285 0 LINE",
"320 0 LINE",
"320 -224 LINE",
"427 -224 LINE",
"427 -253 OFFCURVE",
"426 -316 OFFCURVE",
"426 -345 QCURVE",
"356 -345 LINE SMOOTH",
"336 -345 OFFCURVE",
"308 -311 OFFCURVE",
"308 -288 QCURVE",
"262 -288 LINE",
"262 -309 OFFCURVE",
"277 -346 OFFCURVE",
"303 -373 OFFCURVE",
"337 -388 OFFCURVE",
"356 -388 QCURVE SMOOTH",
"457 -388 LINE SMOOTH",
"491 -388 OFFCURVE",
"537 -344 OFFCURVE",
"537 -310 QCURVE SMOOTH"
);
}
);
width = 833;
}
);
unicode = 00B8;
},
{
glyphname = caron;
layers = (
{
layerId = "CD3DF19A-D83F-4C46-B819-463B69F1BB92";
paths = (
{
nodes = (
"163 796 LINE",
"158 796 LINE",
"67 1025 LINE",
"214 1083 LINE",
"225 1066 LINE",
"300 991 LINE",
"362 1083 LINE",
"508 1025 LINE",
"506 1020 LINE",
"594 933 LINE",
"505 709 LINE",
"250 709 LINE"
);
},
{
nodes = (
"287 908 LINE",
"199 1039 LINE",
"113 1005 LINE",
"182 831 LINE",
"393 831 LINE",
"462 1005 LINE",
"376 1039 LINE"
);
}
);
width = 605;
}
);
unicode = 02C7;
},
{
glyphname = breve;
layers = (
{
layerId = "CD3DF19A-D83F-4C46-B819-463B69F1BB92";
paths = (
{
nodes = (
"192 827 LINE",
"148 858 OFFCURVE",
"94 966 OFFCURVE",
"94 1032 QCURVE",
"258 1032 LINE",
"258 1026 LINE",
"304 980 LINE",
"312 1001 OFFCURVE",
"312 1032 QCURVE",
"476 1032 LINE",
"476 1026 LINE",
"563 939 LINE",
"563 892 OFFCURVE",
"534 809 OFFCURVE",
"483 746 OFFCURVE",
"415 709 OFFCURVE",
"375 709 QCURVE SMOOTH",
"342 709 OFFCURVE",
"283 737 OFFCURVE",
"258 761 QCURVE SMOOTH"
);
},
{
nodes = (
"259 925 OFFCURVE",
"223 968 OFFCURVE",
"223 997 QCURVE",
"129 997 LINE",
"129 963 OFFCURVE",
"154 903 OFFCURVE",
"197 858 OFFCURVE",
"253 831 OFFCURVE",
"285 831 QCURVE SMOOTH",
"318 831 OFFCURVE",
"375 858 OFFCURVE",
"417 903 OFFCURVE",
"441 963 OFFCURVE",
"441 997 QCURVE",
"347 997 LINE",
"347 968 OFFCURVE",
"311 925 OFFCURVE",
"285 925 QCURVE SMOOTH"
);
}
);
width = 622;
}
);
unicode = 02D8;
},
{
glyphname = acute;
layers = (
{
layerId = "CD3DF19A-D83F-4C46-B819-463B69F1BB92";
paths = (
{
nodes = (
"364 987 LINE",
"452 899 LINE",
"320 701 LINE",
"180 756 LINE",
"96 840 LINE",
"86 844 LINE",
"172 1083 LINE",
"366 990 LINE"
);
},
{
nodes = (
"314 976 LINE",
"192 1035 LINE",
"131 865 LINE",
"217 831 LINE"
);
}
);
width = 484;
}
);
unicode = 00B4;
},
{
glyphname = dcaron;
layers = (
{
layerId = "CD3DF19A-D83F-4C46-B819-463B69F1BB92";
paths = (
{
nodes = (
"831 732 LINE",
"1009 732 LINE",
"1009 726 LINE",
"1096 639 LINE",
"1096 498 LINE",
"924 392 LINE",
"836 479 LINE",
"831 476 LINE"
);
},
{
nodes = (
"866 539 LINE",
"974 606 LINE",
"974 697 LINE",
"866 697 LINE"
);
},
{
nodes = (
"37 -35 LINE",
"31 -35 LINE",
"31 730 LINE",
"483 730 LINE SMOOTH",
"545 730 OFFCURVE",
"649 675 OFFCURVE",
"682 628 QCURVE",
"744 566 LINE SMOOTH",
"776 534 OFFCURVE",
"814 447 OFFCURVE",
"814 397 QCURVE SMOOTH",
"814 312 LINE SMOOTH",
"814 290 OFFCURVE",
"815 247 OFFCURVE",
"815 225 QCURVE SMOOTH",
"815 196 OFFCURVE",
"815 138 OFFCURVE",
"813 109 QCURVE SMOOTH",
"810 61 OFFCURVE",
"772 -24 OFFCURVE",
"708 -86 OFFCURVE",
"622 -122 OFFCURVE",
"573 -122 QCURVE SMOOTH",
"124 -122 LINE"
);
},
{
nodes = (
"693 359 OFFCURVE",
"692 444 OFFCURVE",
"692 487 QCURVE SMOOTH",
"692 530 OFFCURVE",
"659 606 OFFCURVE",
"602 662 OFFCURVE",
"526 695 OFFCURVE",
"483 695 QCURVE SMOOTH",
"66 695 LINE",
"66 0 LINE",
"483 0 LINE SMOOTH",
"526 0 OFFCURVE",
"600 31 OFFCURVE",
"655 86 OFFCURVE",
"689 159 OFFCURVE",
"691 201 QCURVE SMOOTH",
"693 230 OFFCURVE",
"693 286 OFFCURVE",
"693 315 QCURVE SMOOTH"
);
},
{
nodes = (
"483 626 LINE",
"511 626 OFFCURVE",
"562 604 OFFCURVE",
"600 566 OFFCURVE",
"622 515 OFFCURVE",
"622 487 QCURVE SMOOTH",
"622 227 LINE SMOOTH",
"622 194 OFFCURVE",
"605 136 OFFCURVE",
"570 94 OFFCURVE",
"518 69 OFFCURVE",
"483 69 QCURVE"
);
}
);
width = 1124;
}
);
unicode = 010F;
},
{
glyphname = hungarumlaut;
layers = (
{
layerId = "CD3DF19A-D83F-4C46-B819-463B69F1BB92";
paths = (
{
nodes = (
"600 987 LINE",
"688 899 LINE",
"556 701 LINE",
"416 756 LINE",
"358 814 LINE",
"283 701 LINE",
"143 756 LINE",
"59 840 LINE",
"49 844 LINE",
"135 1083 LINE",
"329 990 LINE",
"327 987 LINE",
"361 952 LINE",
"408 1083 LINE",
"602 990 LINE"
);
},
{
nodes = (
"550 976 LINE",
"428 1035 LINE",
"367 865 LINE",
"453 831 LINE"
);
},
{
nodes = (
"277 976 LINE",
"155 1035 LINE",
"94 865 LINE",
"180 831 LINE"
);
}
);
width = 734;
}
);
unicode = 02DD;
},
{
glyphname = R;
layers = (
{
layerId = "CD3DF19A-D83F-4C46-B819-463B69F1BB92";
paths = (
{
nodes = (
"627 485 LINE",
"627 486 OFFCURVE",
"626 486 QCURVE"
);
},
{
nodes = (
"43 -35 LINE",
"37 -35 LINE",
"37 730 LINE",
"489 730 LINE SMOOTH",
"543 730 OFFCURVE",
"633 681 OFFCURVE",
"661 639 QCURVE",
"724 577 LINE SMOOTH",
"753 549 OFFCURVE",
"785 474 OFFCURVE",
"785 430 QCURVE SMOOTH",
"785 363 OFFCURVE",
"739 281 OFFCURVE",
"685 253 QCURVE",
"704 209 OFFCURVE",
"748 113 OFFCURVE",
"793 15 OFFCURVE",
"836 -80 OFFCURVE",
"855 -122 QCURVE",
"715 -122 LINE",
"628 -35 LINE",
"623 -35 LINE",
"611 -8 LINE",
"611 -122 LINE",
"130 -122 LINE"
);
},
{
nodes = (
"627 485 LINE",
"627 486 OFFCURVE",
"626 486 QCURVE"
);
},
{
nodes = (
"593 477 OFFCURVE",
"533 417 OFFCURVE",
"489 417 QCURVE",
"489 625 LINE",
"533 625 OFFCURVE",
"593 565 OFFCURVE",
"593 521 QCURVE SMOOTH"
);
},
{
nodes = (
"612 383 OFFCURVE",
"663 457 OFFCURVE",
"663 520 QCURVE SMOOTH",
"663 556 OFFCURVE",
"636 620 OFFCURVE",
"589 668 OFFCURVE",
"525 695 OFFCURVE",
"489 695 QCURVE SMOOTH",
"72 695 LINE",
"72 0 LINE",
"489 0 LINE",
"489 347 LINE",
"645 0 LINE",
"715 0 LINE",
"632 180 OFFCURVE",
"553 360 QCURVE"
);
}
);
width = 812;
}
);
unicode = 0052;
},
{
glyphname = divide;
layers = (
{
layerId = "CD3DF19A-D83F-4C46-B819-463B69F1BB92";
paths = (
{
nodes = (
"198 553 OFFCURVE",
"255 611 OFFCURVE",
"297 611 QCURVE SMOOTH",
"324 611 OFFCURVE",
"368 585 OFFCURVE",
"382 563 QCURVE",
"456 490 LINE",
"469 476 OFFCURVE",
"484 441 OFFCURVE",
"484 421 QCURVE SMOOTH",
"484 414 OFFCURVE",
"482 401 OFFCURVE",
"480 395 QCURVE",
"572 395 LINE",
"572 389 LINE",
"659 302 LINE",
"659 163 LINE",
"410 163 LINE",
"456 117 LINE",
"469 103 OFFCURVE",
"484 68 OFFCURVE",
"484 48 QCURVE SMOOTH",
"484 7 OFFCURVE",
"428 -48 OFFCURVE",
"387 -48 QCURVE SMOOTH",
"367 -48 OFFCURVE",
"332 -33 OFFCURVE",
"319 -20 QCURVE SMOOTH",
"247 51 LINE",
"224 64 OFFCURVE",
"198 109 OFFCURVE",
"198 138 QCURVE SMOOTH",
"198 151 OFFCURVE",
"201 163 QCURVE",
"116 163 LINE",
"29 250 LINE",
"23 250 LINE",
"23 395 LINE",
"277 395 LINE",
"247 424 LINE",
"224 437 OFFCURVE",
"198 482 OFFCURVE",
"198 511 QCURVE SMOOTH"
);
},
{
nodes = (
"233 111 OFFCURVE",
"270 74 OFFCURVE",
"297 74 QCURVE SMOOTH",
"324 74 OFFCURVE",
"362 111 OFFCURVE",
"362 138 QCURVE SMOOTH",
"362 165 OFFCURVE",
"324 203 OFFCURVE",
"297 203 QCURVE SMOOTH",
"270 203 OFFCURVE",
"233 165 OFFCURVE",
"233 138 QCURVE SMOOTH"
);
},
{
nodes = (
"537 360 LINE",
"58 360 LINE",
"58 285 LINE",
"537 285 LINE"
);
},
{
nodes = (
"233 484 OFFCURVE",
"270 447 OFFCURVE",
"297 447 QCURVE SMOOTH",
"324 447 OFFCURVE",
"362 484 OFFCURVE",
"362 511 QCURVE SMOOTH",
"362 538 OFFCURVE",
"324 576 OFFCURVE",
"297 576 QCURVE SMOOTH",
"270 576 OFFCURVE",
"233 538 OFFCURVE",
"233 511 QCURVE SMOOTH"
);
}
);
width = 666;
}
);
unicode = 00F7;
},
{
glyphname = multiply;
layers = (
{
layerId = "CD3DF19A-D83F-4C46-B819-463B69F1BB92";
paths = (
{
nodes = (
"466 565 LINE",
"539 493 LINE",
"626 385 LINE",
"495 279 LINE",
"540 243 LINE",
"538 241 LINE",
"626 153 LINE",
"539 45 LINE",
"370 180 LINE",
"202 45 LINE",
"114 133 LINE",
"112 131 LINE",
"21 244 LINE",
"155 351 LINE",
"115 384 LINE",
"42 457 LINE",
"21 474 LINE",
"112 587 LINE",
"280 452 LINE",
"449 587 LINE"
);
},
{
nodes = (
"444 538 LINE",
"280 407 LINE",
"117 538 LINE",
"70 479 LINE",
"220 359 LINE",
"70 239 LINE",
"117 180 LINE",
"280 311 LINE",
"444 180 LINE",
"491 238 LINE",
"340 359 LINE",
"491 480 LINE"
);
}
);
width = 654;
}
);
unicode = 00D7;
},
{
glyphname = germandbls;
layers = (
{
layerId = "CD3DF19A-D83F-4C46-B819-463B69F1BB92";
paths = (
{
nodes = (
"744 293 LINE",
"745 293 OFFCURVE",
"745 292 QCURVE"
);
},
{
nodes = (
"32 -35 LINE",
"26 -35 LINE",
"26 486 LINE SMOOTH",
"26 537 OFFCURVE",
"64 626 OFFCURVE",
"130 692 OFFCURVE",
"218 730 OFFCURVE",
"269 730 QCURVE SMOOTH",
"488 730 LINE SMOOTH",
"542 730 OFFCURVE",
"631 683 OFFCURVE",
"659 642 QCURVE",
"724 578 LINE SMOOTH",
"752 550 OFFCURVE",
"784 475 OFFCURVE",
"784 430 QCURVE SMOOTH",
"784 356 OFFCURVE",
"737 300 QCURVE",
"745 292 LINE",
"753 285 LINE",
"819 219 OFFCURVE",
"819 120 QCURVE SMOOTH",
"819 70 OFFCURVE",
"782 -18 OFFCURVE",
"717 -84 OFFCURVE",
"629 -122 OFFCURVE",
"578 -122 QCURVE SMOOTH",
"119 -122 LINE"
);
},
{
nodes = (
"627 179 OFFCURVE",
"605 128 OFFCURVE",
"568 91 OFFCURVE",
"517 69 OFFCURVE",
"488 69 QCURVE",
"488 347 LINE",
"517 347 OFFCURVE",
"568 325 OFFCURVE",
"605 288 OFFCURVE",
"627 237 OFFCURVE",
"627 208 QCURVE SMOOTH"
);
},
{
nodes = (
"592 476 OFFCURVE",
"533 417 OFFCURVE",
"488 417 QCURVE",
"488 625 LINE",
"533 625 OFFCURVE",
"592 566 OFFCURVE",
"592 521 QCURVE SMOOTH"
);
},
{
nodes = (
"628 411 OFFCURVE",
"662 480 OFFCURVE",
"662 520 QCURVE SMOOTH",
"662 557 OFFCURVE",
"635 621 OFFCURVE",
"588 668 OFFCURVE",
"525 695 OFFCURVE",
"488 695 QCURVE SMOOTH",
"269 695 LINE SMOOTH",
"226 695 OFFCURVE",
"150 662 OFFCURVE",
"94 605 OFFCURVE",
"61 529 OFFCURVE",
"61 486 QCURVE SMOOTH",
"61 0 LINE",
"488 0 LINE SMOOTH",
"532 0 OFFCURVE",
"609 33 OFFCURVE",
"665 90 OFFCURVE",
"697 166 OFFCURVE",
"697 210 QCURVE SMOOTH",
"697 267 OFFCURVE",
"645 357 OFFCURVE",
"597 386 QCURVE"
);
}
);
width = 851;
}
);
unicode = 00DF;
},
{
glyphname = guilsinglright;
layers = (
{
layerId = "CD3DF19A-D83F-4C46-B819-463B69F1BB92";
paths = (
{
nodes = (
"465 413 LINE",
"552 326 LINE",
"552 193 LINE",
"120 -84 LINE",
"33 3 LINE",
"27 0 LINE",
"27 222 LINE",
"56 239 OFFCURVE",
"127 286 OFFCURVE",
"156 305 QCURVE",
"156 304 LINE",
"203 334 LINE",
"120 389 LINE",
"41 468 LINE",
"27 477 LINE",
"27 698 LINE",
"465 418 LINE"
);
},
{
nodes = (
"430 399 LINE",
"62 634 LINE",
"62 496 LINE",
"291 349 LINE",
"234 314 OFFCURVE",
"119 237 OFFCURVE",
"62 202 QCURVE",
"62 64 LINE",
"430 300 LINE"
);
}
);
width = 591;
}
);
unicode = 203A;
},
{
glyphname = guilsinglleft;
layers = (
{
layerId = "CD3DF19A-D83F-4C46-B819-463B69F1BB92";
paths = (
{
nodes = (
"26 418 LINE",
"464 698 LINE",
"464 689 LINE",
"551 602 LINE",
"551 389 LINE",
"377 276 LINE",
"464 222 LINE",
"464 217 LINE",
"551 130 LINE",
"551 -84 LINE",
"119 193 LINE",
"40 272 LINE",
"26 281 LINE"
);
},
{
nodes = (
"61 300 LINE",
"429 64 LINE",
"429 202 LINE",
"372 237 OFFCURVE",
"257 314 OFFCURVE",
"200 349 QCURVE",
"429 496 LINE",
"429 634 LINE",
"61 399 LINE"
);
}
);
width = 570;
}
);
unicode = 2039;
},
{
glyphname = tcaron;
layers = (
{
layerId = "CD3DF19A-D83F-4C46-B819-463B69F1BB92";
paths = (
{
nodes = (
"906 732 LINE",
"1084 732 LINE",
"1084 726 LINE",
"1171 639 LINE",
"1171 498 LINE",
"999 392 LINE",
"911 479 LINE",
"906 476 LINE"
);
},
{
nodes = (
"941 539 LINE",
"1049 606 LINE",
"1049 697 LINE",
"941 697 LINE"
);
},
{
nodes = (
"778 724 LINE",
"865 637 LINE",
"865 503 LINE",
"725 503 LINE",
"725 -122 LINE",
"247 -122 LINE",
"160 -35 LINE",
"154 -35 LINE",
"153 503 LINE",
"106 503 LINE",
"19 590 LINE",
"13 590 LINE",
"13 730 LINE",
"778 730 LINE"
);
},
{
nodes = (
"743 695 LINE",
"48 695 LINE",
"48 625 LINE",
"188 625 LINE",
"189 0 LINE",
"603 0 LINE",
"603 625 LINE",
"743 625 LINE"
);
}
);
width = 1207;
}
);
unicode = 0165;
},
{
glyphname = Tcaron;
layers = (
{
layerId = "CD3DF19A-D83F-4C46-B819-463B69F1BB92";
paths = (
{
nodes = (
"906 732 LINE",
"1084 732 LINE",
"1084 726 LINE",
"1171 639 LINE",
"1171 498 LINE",
"999 392 LINE",
"911 479 LINE",
"906 476 LINE"
);
},
{
nodes = (
"941 539 LINE",
"1049 606 LINE",
"1049 697 LINE",
"941 697 LINE"
);
},
{
nodes = (
"778 724 LINE",
"865 637 LINE",
"865 503 LINE",
"725 503 LINE",
"725 -122 LINE",
"247 -122 LINE",
"160 -35 LINE",
"154 -35 LINE",
"153 503 LINE",
"106 503 LINE",
"19 590 LINE",
"13 590 LINE",
"13 730 LINE",
"778 730 LINE"
);
},
{
nodes = (
"743 695 LINE",
"48 695 LINE",
"48 625 LINE",
"188 625 LINE",
"189 0 LINE",
"603 0 LINE",
"603 625 LINE",
"743 625 LINE"
);
}
);
width = 1207;
}
);
unicode = 0164;
},
{
glyphname = registered;
layers = (
{
layerId = "CD3DF19A-D83F-4C46-B819-463B69F1BB92";
paths = (
{
nodes = (
"164 100 LINE",
"146 115 OFFCURVE",
"130 131 QCURVE SMOOTH",
"28 233 OFFCURVE",
"28 376 QCURVE SMOOTH",
"28 519 OFFCURVE",
"130 621 QCURVE SMOOTH",
"231 722 OFFCURVE",
"374 722 QCURVE SMOOTH",
"445 722 OFFCURVE",
"568 672 OFFCURVE",
"619 621 QCURVE SMOOTH",
"627 613 OFFCURVE",
"642 595 OFFCURVE",
"649 587 QCURVE",
"707 529 LINE SMOOTH",
"808 428 OFFCURVE",
"808 286 QCURVE SMOOTH",
"808 144 OFFCURVE",
"707 43 QCURVE SMOOTH",
"657 -7 OFFCURVE",
"534 -57 OFFCURVE",
"464 -57 QCURVE SMOOTH",
"322 -57 OFFCURVE",
"222 43 QCURVE SMOOTH"
);
},
{
nodes = (
"485 444 OFFCURVE",
"453 413 OFFCURVE",
"430 413 QCURVE",
"430 524 LINE",
"453 524 OFFCURVE",
"485 492 OFFCURVE",
"485 468 QCURVE SMOOTH"
);
},
{
nodes = (
"495 395 OFFCURVE",
"522 434 OFFCURVE",
"522 468 QCURVE SMOOTH",
"522 507 OFFCURVE",
"469 561 OFFCURVE",
"430 561 QCURVE SMOOTH",
"208 561 LINE",
"208 191 LINE",
"430 191 LINE",
"430 376 LINE",
"512 191 LINE",
"550 191 LINE",
"528 239 OFFCURVE",
"485 335 OFFCURVE",
"464 383 QCURVE"
);
},
{
nodes = (
"429 641 OFFCURVE",
"526 599 OFFCURVE",
"598 527 OFFCURVE",
"640 431 OFFCURVE",
"640 376 QCURVE SMOOTH",
"640 321 OFFCURVE",
"598 225 OFFCURVE",
"526 153 OFFCURVE",
"429 111 OFFCURVE",
"374 111 QCURVE SMOOTH",
"319 111 OFFCURVE",
"223 153 OFFCURVE",
"151 225 OFFCURVE",
"109 321 OFFCURVE",
"109 376 QCURVE SMOOTH",
"109 431 OFFCURVE",
"151 527 OFFCURVE",
"223 599 OFFCURVE",
"319 641 OFFCURVE",
"374 641 QCURVE SMOOTH"
);
},
{
nodes = (
"437 65 OFFCURVE",
"549 111 OFFCURVE",
"594 156 QCURVE SMOOTH",
"686 248 OFFCURVE",
"686 376 QCURVE SMOOTH",
"686 439 OFFCURVE",
"639 551 OFFCURVE",
"594 596 QCURVE SMOOTH",
"549 641 OFFCURVE",
"437 687 OFFCURVE",
"374 687 QCURVE SMOOTH",
"311 687 OFFCURVE",
"200 641 OFFCURVE",
"155 596 QCURVE SMOOTH",
"110 551 OFFCURVE",
"63 439 OFFCURVE",
"63 376 QCURVE SMOOTH",
"63 248 OFFCURVE",
"155 156 QCURVE SMOOTH",
"200 111 OFFCURVE",
"311 65 OFFCURVE",
"374 65 QCURVE SMOOTH"
);
}
);
width = 839;
}
);
unicode = 00AE;
},
{
glyphname = degree;
layers = (
{
layerId = "CD3DF19A-D83F-4C46-B819-463B69F1BB92";
paths = (
{
nodes = (
"290 491 OFFCURVE",
"245 447 OFFCURVE",
"243 415 QCURVE",
"275 417 OFFCURVE",
"320 462 OFFCURVE",
"322 494 QCURVE"
);
},
{
nodes = (
"113 319 LINE",
"71 348 OFFCURVE",
"22 441 OFFCURVE",
"22 498 QCURVE SMOOTH",
"22 542 OFFCURVE",
"55 621 OFFCURVE",
"114 680 OFFCURVE",
"193 715 OFFCURVE",
"239 715 QCURVE SMOOTH",
"294 715 OFFCURVE",
"389 662 OFFCURVE",
"418 618 QCURVE",
"479 558 LINE SMOOTH",
"508 529 OFFCURVE",
"543 452 OFFCURVE",
"543 408 QCURVE SMOOTH",
"543 363 OFFCURVE",
"509 285 OFFCURVE",
"450 227 OFFCURVE",
"372 194 OFFCURVE",
"329 194 QCURVE SMOOTH",
"284 194 OFFCURVE",
"206 227 OFFCURVE",
"177 256 QCURVE SMOOTH"
);
},
{
nodes = (
"263 616 OFFCURVE",
"306 597 OFFCURVE",
"338 565 OFFCURVE",
"357 522 OFFCURVE",
"357 498 QCURVE SMOOTH",
"357 474 OFFCURVE",
"338 431 OFFCURVE",
"306 399 OFFCURVE",
"263 380 OFFCURVE",
"239 380 QCURVE SMOOTH",
"215 380 OFFCURVE",
"172 399 OFFCURVE",
"140 431 OFFCURVE",
"121 474 OFFCURVE",
"121 498 QCURVE SMOOTH",
"121 522 OFFCURVE",
"140 565 OFFCURVE",
"172 597 OFFCURVE",
"215 616 OFFCURVE",
"239 616 QCURVE SMOOTH"
);
},
{
nodes = (
"276 316 OFFCURVE",
"342 344 OFFCURVE",
"392 393 OFFCURVE",
"421 460 OFFCURVE",
"421 498 QCURVE SMOOTH",
"421 535 OFFCURVE",
"392 601 OFFCURVE",
"342 651 OFFCURVE",
"276 680 OFFCURVE",
"239 680 QCURVE SMOOTH",
"201 680 OFFCURVE",
"134 651 OFFCURVE",
"85 601 OFFCURVE",
"57 535 OFFCURVE",
"57 498 QCURVE SMOOTH",
"57 460 OFFCURVE",
"85 393 OFFCURVE",
"134 344 OFFCURVE",
"201 316 OFFCURVE",
"239 316 QCURVE SMOOTH"
);
}
);
width = 576;
}
);
unicode = 00B0;
},
{
glyphname = paragraph;
layers = (
{
layerId = "CD3DF19A-D83F-4C46-B819-463B69F1BB92";
paths = (
{
nodes = (
"786 724 LINE",
"873 637 LINE",
"873 498 LINE",
"793 498 LINE",
"793 -294 LINE",
"654 -294 LINE",
"580 -220 LINE",
"580 -294 LINE",
"441 -294 LINE",
"354 -207 LINE",
"348 -207 LINE",
"348 225 LINE",
"327 225 LINE SMOOTH",
"284 225 OFFCURVE",
"209 257 OFFCURVE",
"181 285 QCURVE SMOOTH",
"115 351 LINE",
"75 380 OFFCURVE",
"28 467 OFFCURVE",
"28 521 QCURVE SMOOTH",
"28 564 OFFCURVE",
"61 641 OFFCURVE",
"117 697 OFFCURVE",
"193 730 OFFCURVE",
"237 730 QCURVE SMOOTH",
"786 730 LINE"
);
},
{
nodes = (
"751 695 LINE",
"237 695 LINE SMOOTH",
"201 695 OFFCURVE",
"138 668 OFFCURVE",
"90 620 OFFCURVE",
"63 557 OFFCURVE",
"63 521 QCURVE SMOOTH",
"63 485 OFFCURVE",
"90 422 OFFCURVE",
"138 374 OFFCURVE",
"201 347 OFFCURVE",
"237 347 QCURVE SMOOTH",
"383 347 LINE",
"383 -172 LINE",
"458 -172 LINE",
"458 620 LINE",
"596 620 LINE",
"596 -172 LINE",
"671 -172 LINE",
"671 620 LINE",
"751 620 LINE"
);
}
);
width = 901;
}
);
unicode = 00B6;
},
{
glyphname = middot.001;
layers = (
{
layerId = "CD3DF19A-D83F-4C46-B819-463B69F1BB92";
paths = (
{
nodes = (
"29 341 OFFCURVE",
"48 387 OFFCURVE",
"82 421 OFFCURVE",
"127 440 OFFCURVE",
"154 440 QCURVE SMOOTH",
"189 440 OFFCURVE",
"246 407 OFFCURVE",
"262 379 QCURVE",
"331 311 LINE SMOOTH",
"348 294 OFFCURVE",
"367 250 OFFCURVE",
"367 224 QCURVE SMOOTH",
"367 198 OFFCURVE",
"348 154 OFFCURVE",
"315 121 OFFCURVE",
"270 102 OFFCURVE",
"244 102 QCURVE SMOOTH",
"192 102 OFFCURVE",
"157 137 QCURVE SMOOTH",
"85 208 LINE",
"59 225 OFFCURVE",
"29 279 OFFCURVE",
"29 314 QCURVE SMOOTH"
);
},
{
nodes = (
"64 276 OFFCURVE",
"116 224 OFFCURVE",
"154 224 QCURVE SMOOTH",
"192 224 OFFCURVE",
"245 276 OFFCURVE",
"245 314 QCURVE SMOOTH",
"245 352 OFFCURVE",
"192 405 OFFCURVE",
"154 405 QCURVE SMOOTH",
"116 405 OFFCURVE",
"64 352 OFFCURVE",
"64 314 QCURVE SMOOTH"
);
}
);
width = 403;
}
);
},
{
glyphname = Lslash;
layers = (
{
layerId = "CD3DF19A-D83F-4C46-B819-463B69F1BB92";
paths = (
{
nodes = (
"111 -35 LINE",
"105 -35 LINE",
"105 154 LINE",
"61 197 LINE",
"57 196 LINE",
"13 331 LINE",
"105 365 LINE",
"105 730 LINE",
"592 730 LINE",
"592 724 LINE",
"679 637 LINE",
"679 548 LINE",
"750 477 LINE",
"801 354 LINE",
"679 308 LINE",
"679 104 LINE",
"801 104 LINE",
"801 98 LINE",
"888 11 LINE",
"888 -122 LINE",
"198 -122 LINE"
);
},
{
nodes = (
"642 527 LINE",
"557 495 LINE",
"557 695 LINE",
"140 695 LINE",
"140 340 LINE",
"57 309 LINE",
"79 241 LINE",
"140 264 LINE",
"140 0 LINE",
"766 0 LINE",
"766 69 LINE",
"557 69 LINE",
"557 420 LINE",
"669 462 LINE"
);
}
);
width = 913;
}
);
unicode = 0141;
},
{
glyphname = lslash;
layers = (
{
layerId = "CD3DF19A-D83F-4C46-B819-463B69F1BB92";
paths = (
{
nodes = (
"114 -35 LINE",
"108 -35 LINE",
"108 154 LINE",
"64 197 LINE",
"60 196 LINE",
"16 331 LINE",
"108 365 LINE",
"108 730 LINE",
"595 730 LINE",
"595 724 LINE",
"682 637 LINE",
"682 548 LINE",
"753 477 LINE",
"804 354 LINE",
"682 308 LINE",
"682 104 LINE",
"804 104 LINE",
"804 98 LINE",
"891 11 LINE",
"891 -122 LINE",
"201 -122 LINE"
);
},
{
nodes = (
"645 527 LINE",
"560 495 LINE",
"560 695 LINE",
"143 695 LINE",
"143 340 LINE",
"60 309 LINE",
"82 241 LINE",
"143 264 LINE",
"143 0 LINE",
"769 0 LINE",
"769 69 LINE",
"560 69 LINE",
"560 420 LINE",
"672 462 LINE"
);
}
);
width = 913;
}
);
unicode = 0142;
},
{
glyphname = lcaron;
layers = (
{
layerId = "CD3DF19A-D83F-4C46-B819-463B69F1BB92";
paths = (
{
nodes = (
"660 732 LINE",
"838 732 LINE",
"838 726 LINE",
"925 639 LINE",
"925 498 LINE",
"753 392 LINE",
"665 479 LINE",
"660 476 LINE"
);
},
{
nodes = (
"695 539 LINE",
"803 606 LINE",
"803 697 LINE",
"695 697 LINE"
);
},
{
nodes = (
"729 98 LINE",
"816 11 LINE",
"816 -122 LINE",
"126 -122 LINE",
"39 -35 LINE",
"33 -35 LINE",
"33 730 LINE",
"520 730 LINE",
"520 724 LINE",
"607 637 LINE",
"607 104 LINE",
"729 104 LINE"
);
},
{
nodes = (
"694 69 LINE",
"485 69 LINE",
"485 695 LINE",
"68 695 LINE",
"68 0 LINE",
"694 0 LINE"
);
}
);
width = 949;
}
);
unicode = 013E;
},
{
glyphname = quoteright;
layers = (
{
layerId = "CD3DF19A-D83F-4C46-B819-463B69F1BB92";
paths = (
{
nodes = (
"26 732 LINE",
"204 732 LINE",
"204 726 LINE",
"291 639 LINE",
"291 498 LINE",
"119 392 LINE",
"31 479 LINE",
"26 476 LINE"
);
},
{
nodes = (
"61 539 LINE",
"169 606 LINE",
"169 697 LINE",
"61 697 LINE"
);
}
);
width = 313;
}
);
unicode = 2019;
},
{
glyphname = Dcroat;
layers = (
{
layerId = "CD3DF19A-D83F-4C46-B819-463B69F1BB92";
paths = (
{
nodes = (
"699 475 LINE",
"699 477 OFFCURVE",
"698 477 QCURVE"
);
},
{
nodes = (
"92 -35 LINE",
"86 -35 LINE",
"86 224 LINE",
"24 286 LINE",
"18 286 LINE",
"18 418 LINE",
"86 418 LINE",
"86 730 LINE",
"538 730 LINE SMOOTH",
"600 730 OFFCURVE",
"704 675 OFFCURVE",
"737 628 QCURVE",
"799 566 LINE SMOOTH",
"831 534 OFFCURVE",
"869 447 OFFCURVE",
"869 397 QCURVE SMOOTH",
"869 313 LINE SMOOTH",
"869 291 OFFCURVE",
"870 248 OFFCURVE",
"870 225 QCURVE SMOOTH",
"870 168 LINE SMOOTH",
"870 154 OFFCURVE",
"869 123 OFFCURVE",
"868 109 QCURVE SMOOTH",
"865 61 OFFCURVE",
"827 -23 OFFCURVE",
"763 -86 OFFCURVE",
"677 -122 OFFCURVE",
"628 -122 QCURVE SMOOTH",
"179 -122 LINE"
);
},
{
nodes = (
"538 321 LINE",
"594 321 LINE",
"594 383 LINE",
"538 383 LINE",
"538 626 LINE",
"566 626 OFFCURVE",
"617 604 OFFCURVE",
"655 566 OFFCURVE",
"677 515 OFFCURVE",
"677 487 QCURVE SMOOTH",
"677 227 LINE SMOOTH",
"677 194 OFFCURVE",
"660 136 OFFCURVE",
"625 94 OFFCURVE",
"573 69 OFFCURVE",
"538 69 QCURVE"
);
},
{
nodes = (
"748 315 LINE SMOOTH",
"748 360 OFFCURVE",
"747 444 OFFCURVE",
"747 487 QCURVE SMOOTH",
"747 530 OFFCURVE",
"714 606 OFFCURVE",
"657 662 OFFCURVE",
"581 695 OFFCURVE",
"538 695 QCURVE SMOOTH",
"121 695 LINE",
"121 383 LINE",
"53 383 LINE",
"53 321 LINE",
"121 321 LINE",
"121 0 LINE",
"538 0 LINE SMOOTH",
"581 0 OFFCURVE",
"655 31 OFFCURVE",
"711 86 OFFCURVE",
"744 159 OFFCURVE",
"746 201 QCURVE SMOOTH",
"747 215 OFFCURVE",
"748 244 OFFCURVE",
"748 258 QCURVE SMOOTH"
);
}
);
width = 919;
}
);
unicode = 0110;
},
{
glyphname = dcroat;
layers = (
{
layerId = "CD3DF19A-D83F-4C46-B819-463B69F1BB92";
paths = (
{
nodes = (
"699 475 LINE",
"699 477 OFFCURVE",
"698 477 QCURVE"
);
},
{
nodes = (
"92 -35 LINE",
"86 -35 LINE",
"86 224 LINE",
"24 286 LINE",
"18 286 LINE",
"18 418 LINE",
"86 418 LINE",
"86 730 LINE",
"538 730 LINE SMOOTH",
"600 730 OFFCURVE",
"704 675 OFFCURVE",
"737 628 QCURVE",
"799 566 LINE SMOOTH",
"831 534 OFFCURVE",
"869 447 OFFCURVE",
"869 397 QCURVE SMOOTH",
"869 313 LINE SMOOTH",
"869 291 OFFCURVE",
"870 248 OFFCURVE",
"870 225 QCURVE SMOOTH",
"870 168 LINE SMOOTH",
"870 154 OFFCURVE",
"869 123 OFFCURVE",
"868 109 QCURVE SMOOTH",
"865 61 OFFCURVE",
"827 -23 OFFCURVE",
"763 -86 OFFCURVE",
"677 -122 OFFCURVE",
"628 -122 QCURVE SMOOTH",
"179 -122 LINE"
);
},
{
nodes = (
"538 321 LINE",
"594 321 LINE",
"594 383 LINE",
"538 383 LINE",
"538 626 LINE",
"566 626 OFFCURVE",
"617 604 OFFCURVE",
"655 566 OFFCURVE",
"677 515 OFFCURVE",
"677 487 QCURVE SMOOTH",
"677 227 LINE SMOOTH",
"677 194 OFFCURVE",
"660 136 OFFCURVE",
"625 94 OFFCURVE",
"573 69 OFFCURVE",
"538 69 QCURVE"
);
},
{
nodes = (
"748 315 LINE SMOOTH",
"748 360 OFFCURVE",
"747 444 OFFCURVE",
"747 487 QCURVE SMOOTH",
"747 530 OFFCURVE",
"714 606 OFFCURVE",
"657 662 OFFCURVE",
"581 695 OFFCURVE",
"538 695 QCURVE SMOOTH",
"121 695 LINE",
"121 383 LINE",
"53 383 LINE",
"53 321 LINE",
"121 321 LINE",
"121 0 LINE",
"538 0 LINE SMOOTH",
"581 0 OFFCURVE",
"655 31 OFFCURVE",
"711 86 OFFCURVE",
"744 159 OFFCURVE",
"746 201 QCURVE SMOOTH",
"747 215 OFFCURVE",
"748 244 OFFCURVE",
"748 258 QCURVE SMOOTH"
);
}
);
width = 919;
}
);
unicode = 0111;
},
{
glyphname = ring;
layers = (
{
layerId = "CD3DF19A-D83F-4C46-B819-463B69F1BB92";
paths = (
{
nodes = (
"137 813 LINE",
"108 831 OFFCURVE",
"72 893 OFFCURVE",
"72 930 QCURVE SMOOTH",
"72 959 OFFCURVE",
"93 1009 OFFCURVE",
"131 1045 OFFCURVE",
"181 1066 OFFCURVE",
"210 1066 QCURVE SMOOTH",
"246 1066 OFFCURVE",
"308 1031 OFFCURVE",
"327 1002 QCURVE",
"396 933 LINE SMOOTH",
"414 915 OFFCURVE",
"435 867 OFFCURVE",
"435 840 QCURVE SMOOTH",
"435 813 OFFCURVE",
"413 764 OFFCURVE",
"376 727 OFFCURVE",
"327 705 OFFCURVE",
"300 705 QCURVE SMOOTH",
"272 705 OFFCURVE",
"223 727 OFFCURVE",
"205 745 QCURVE SMOOTH"
);
},
{
nodes = (
"233 977 OFFCURVE",
"261 951 OFFCURVE",
"261 931 QCURVE SMOOTH",
"261 914 OFFCURVE",
"233 885 OFFCURVE",
"213 885 QCURVE SMOOTH",
"191 885 OFFCURVE",
"164 914 OFFCURVE",
"164 931 QCURVE SMOOTH",
"164 951 OFFCURVE",
"191 977 OFFCURVE",
"213 977 QCURVE SMOOTH"
);
},
{
nodes = (
"231 827 OFFCURVE",
"268 843 OFFCURVE",
"296 872 OFFCURVE",
"313 909 OFFCURVE",
"313 930 QCURVE SMOOTH",
"313 951 OFFCURVE",
"296 988 OFFCURVE",
"268 1015 OFFCURVE",
"231 1031 OFFCURVE",
"210 1031 QCURVE SMOOTH",
"167 1031 OFFCURVE",
"107 973 OFFCURVE",
"107 930 QCURVE SMOOTH",
"107 909 OFFCURVE",
"123 872 OFFCURVE",
"151 843 OFFCURVE",
"189 827 OFFCURVE",
"210 827 QCURVE SMOOTH"
);
}
);
width = 543;
}
);
unicode = 02DA;
},
{
glyphname = Oslash;
layers = (
{
layerId = "CD3DF19A-D83F-4C46-B819-463B69F1BB92";
paths = (
{
nodes = (
"138 10 LINE",
"92 43 OFFCURVE",
"38 146 OFFCURVE",
"38 208 QCURVE SMOOTH",
"38 486 LINE SMOOTH",
"38 537 OFFCURVE",
"76 626 OFFCURVE",
"142 692 OFFCURVE",
"230 730 OFFCURVE",
"281 730 QCURVE SMOOTH",
"490 730 LINE SMOOTH",
"530 730 OFFCURVE",
"565 718 QCURVE",
"574 764 LINE",
"703 764 LINE",
"702 758 LINE",
"789 671 LINE",
"766 548 LINE",
"777 535 OFFCURVE",
"793 506 OFFCURVE",
"801 490 QCURVE SMOOTH",
"820 449 OFFCURVE",
"820 396 QCURVE SMOOTH",
"820 111 LINE SMOOTH",
"820 74 OFFCURVE",
"797 8 OFFCURVE",
"757 -47 OFFCURVE",
"703 -90 OFFCURVE",
"671 -103 QCURVE SMOOTH",
"661 -107 OFFCURVE",
"647 -111 OFFCURVE",
"639 -113 QCURVE",
"636 -127 OFFCURVE",
"631 -160 OFFCURVE",
"629 -168 QCURVE",
"514 -168 LINE",
"468 -122 LINE",
"371 -122 LINE SMOOTH",
"320 -122 OFFCURVE",
"233 -84 OFFCURVE",
"201 -52 QCURVE SMOOTH"
);
},
{
nodes = (
"623 528 LINE",
"629 508 OFFCURVE",
"629 486 QCURVE SMOOTH",
"629 232 LINE SMOOTH",
"629 181 OFFCURVE",
"592 102 OFFCURVE",
"553 82 QCURVE SMOOTH",
"549 80 OFFCURVE",
"541 77 OFFCURVE",
"536 75 QCURVE"
);
},
{
nodes = (
"490 625 LINE",
"518 625 OFFCURVE",
"545 614 QCURVE SMOOTH",
"563 607 OFFCURVE",
"577 594 QCURVE",
"490 137 LINE"
);
},
{
nodes = (
"698 486 LINE SMOOTH",
"698 531 OFFCURVE",
"682 567 QCURVE SMOOTH",
"674 584 OFFCURVE",
"654 615 OFFCURVE",
"642 628 QCURVE",
"661 729 LINE",
"603 729 LINE",
"591 668 LINE",
"581 675 OFFCURVE",
"571 679 QCURVE SMOOTH",
"535 695 OFFCURVE",
"490 695 QCURVE SMOOTH",
"281 695 LINE SMOOTH",
"238 695 OFFCURVE",
"162 662 OFFCURVE",
"106 605 OFFCURVE",
"73 529 OFFCURVE",
"73 486 QCURVE SMOOTH",
"73 208 LINE SMOOTH",
"73 165 OFFCURVE",
"106 89 OFFCURVE",
"162 33 OFFCURVE",
"238 0 OFFCURVE",
"281 0 QCURVE SMOOTH",
"464 0 LINE",
"455 -46 LINE",
"513 -46 LINE",
"522 3 LINE",
"533 5 OFFCURVE",
"557 11 OFFCURVE",
"568 16 QCURVE SMOOTH",
"596 28 OFFCURVE",
"643 65 OFFCURVE",
"678 113 OFFCURVE",
"698 169 OFFCURVE",
"698 201 QCURVE SMOOTH"
);
}
);
width = 863;
}
);
unicode = 00D8;
},
{
glyphname = oslash;
layers = (
{
layerId = "CD3DF19A-D83F-4C46-B819-463B69F1BB92";
paths = (
{
nodes = (
"138 10 LINE",
"92 43 OFFCURVE",
"38 146 OFFCURVE",
"38 208 QCURVE SMOOTH",
"38 486 LINE SMOOTH",
"38 537 OFFCURVE",
"76 626 OFFCURVE",
"142 692 OFFCURVE",
"230 730 OFFCURVE",
"281 730 QCURVE SMOOTH",
"490 730 LINE SMOOTH",
"530 730 OFFCURVE",
"565 718 QCURVE",
"574 764 LINE",
"703 764 LINE",
"702 758 LINE",
"789 671 LINE",
"766 548 LINE",
"777 535 OFFCURVE",
"793 506 OFFCURVE",
"801 490 QCURVE SMOOTH",
"820 449 OFFCURVE",
"820 396 QCURVE SMOOTH",
"820 111 LINE SMOOTH",
"820 74 OFFCURVE",
"797 8 OFFCURVE",
"757 -47 OFFCURVE",
"703 -90 OFFCURVE",
"671 -103 QCURVE SMOOTH",
"661 -107 OFFCURVE",
"647 -111 OFFCURVE",
"639 -113 QCURVE",
"636 -127 OFFCURVE",
"631 -160 OFFCURVE",
"629 -168 QCURVE",
"514 -168 LINE",
"468 -122 LINE",
"371 -122 LINE SMOOTH",
"320 -122 OFFCURVE",
"233 -84 OFFCURVE",
"201 -52 QCURVE SMOOTH"
);
},
{
nodes = (
"623 528 LINE",
"629 508 OFFCURVE",
"629 486 QCURVE SMOOTH",
"629 232 LINE SMOOTH",
"629 181 OFFCURVE",
"592 102 OFFCURVE",
"553 82 QCURVE SMOOTH",
"549 80 OFFCURVE",
"541 77 OFFCURVE",
"536 75 QCURVE"
);
},
{
nodes = (
"490 625 LINE",
"518 625 OFFCURVE",
"545 614 QCURVE SMOOTH",
"563 607 OFFCURVE",
"577 594 QCURVE",
"490 137 LINE"
);
},
{
nodes = (
"698 486 LINE SMOOTH",
"698 531 OFFCURVE",
"682 567 QCURVE SMOOTH",
"674 584 OFFCURVE",
"654 615 OFFCURVE",
"642 628 QCURVE",
"661 729 LINE",
"603 729 LINE",
"591 668 LINE",
"581 675 OFFCURVE",
"571 679 QCURVE SMOOTH",
"535 695 OFFCURVE",
"490 695 QCURVE SMOOTH",
"281 695 LINE SMOOTH",
"238 695 OFFCURVE",
"162 662 OFFCURVE",
"106 605 OFFCURVE",
"73 529 OFFCURVE",
"73 486 QCURVE SMOOTH",
"73 208 LINE SMOOTH",
"73 165 OFFCURVE",
"106 89 OFFCURVE",
"162 33 OFFCURVE",
"238 0 OFFCURVE",
"281 0 QCURVE SMOOTH",
"464 0 LINE",
"455 -46 LINE",
"513 -46 LINE",
"522 3 LINE",
"533 5 OFFCURVE",
"557 11 OFFCURVE",
"568 16 QCURVE SMOOTH",
"596 28 OFFCURVE",
"643 65 OFFCURVE",
"678 113 OFFCURVE",
"698 169 OFFCURVE",
"698 201 QCURVE SMOOTH"
);
}
);
width = 863;
}
);
unicode = 00F8;
},
{
glyphname = ae;
layers = (
{
layerId = "CD3DF19A-D83F-4C46-B819-463B69F1BB92";
paths = (
{
nodes = (
"486 174 LINE",
"486 241 LINE",
"442 174 LINE"
);
},
{
nodes = (
"1061 104 LINE",
"1147 104 LINE",
"1147 98 LINE",
"1234 11 LINE",
"1234 -122 LINE",
"579 -122 LINE",
"510 -53 LINE",
"296 -53 LINE",
"247 -122 LINE",
"103 -122 LINE",
"16 -35 LINE",
"7 -35 LINE",
"496 730 LINE",
"1147 730 LINE",
"1147 724 LINE",
"1234 637 LINE",
"1234 503 LINE",
"1061 503 LINE",
"1061 452 LINE",
"1147 452 LINE",
"1147 446 LINE",
"1234 359 LINE",
"1234 225 LINE",
"1061 225 LINE"
);
},
{
nodes = (
"521 69 LINE",
"521 0 LINE",
"1112 0 LINE",
"1112 69 LINE",
"939 69 LINE",
"939 347 LINE",
"1112 347 LINE",
"1112 417 LINE",
"939 417 LINE",
"939 625 LINE",
"1112 625 LINE",
"1112 695 LINE",
"515 695 LINE",
"71 0 LINE",
"141 0 LINE",
"190 69 LINE"
);
},
{
nodes = (
"521 583 LINE",
"521 139 LINE",
"233 139 LINE"
);
}
);
width = 1286;
}
);
unicode = 00E6;
},
{
glyphname = AE;
layers = (
{
layerId = "CD3DF19A-D83F-4C46-B819-463B69F1BB92";
paths = (
{
nodes = (
"486 174 LINE",
"486 241 LINE",
"442 174 LINE"
);
},
{
nodes = (
"1061 104 LINE",
"1147 104 LINE",
"1147 98 LINE",
"1234 11 LINE",
"1234 -122 LINE",
"579 -122 LINE",
"510 -53 LINE",
"296 -53 LINE",
"247 -122 LINE",
"103 -122 LINE",
"16 -35 LINE",
"7 -35 LINE",
"496 730 LINE",
"1147 730 LINE",
"1147 724 LINE",
"1234 637 LINE",
"1234 503 LINE",
"1061 503 LINE",
"1061 452 LINE",
"1147 452 LINE",
"1147 446 LINE",
"1234 359 LINE",
"1234 225 LINE",
"1061 225 LINE"
);
},
{
nodes = (
"521 69 LINE",
"521 0 LINE",
"1112 0 LINE",
"1112 69 LINE",
"939 69 LINE",
"939 347 LINE",
"1112 347 LINE",
"1112 417 LINE",
"939 417 LINE",
"939 625 LINE",
"1112 625 LINE",
"1112 695 LINE",
"515 695 LINE",
"71 0 LINE",
"141 0 LINE",
"190 69 LINE"
);
},
{
nodes = (
"521 583 LINE",
"521 139 LINE",
"233 139 LINE"
);
}
);
width = 1286;
}
);
unicode = 00C6;
},
{
glyphname = Eth;
layers = (
{
layerId = "CD3DF19A-D83F-4C46-B819-463B69F1BB92";
paths = (
{
nodes = (
"699 475 LINE",
"699 477 OFFCURVE",
"698 477 QCURVE"
);
},
{
nodes = (
"92 -35 LINE",
"86 -35 LINE",
"86 224 LINE",
"24 286 LINE",
"18 286 LINE",
"18 418 LINE",
"86 418 LINE",
"86 730 LINE",
"538 730 LINE SMOOTH",
"600 730 OFFCURVE",
"704 675 OFFCURVE",
"737 628 QCURVE",
"799 566 LINE SMOOTH",
"831 534 OFFCURVE",
"869 447 OFFCURVE",
"869 397 QCURVE SMOOTH",
"869 313 LINE SMOOTH",
"869 291 OFFCURVE",
"870 248 OFFCURVE",
"870 225 QCURVE SMOOTH",
"870 168 LINE SMOOTH",
"870 154 OFFCURVE",
"869 123 OFFCURVE",
"868 109 QCURVE SMOOTH",
"865 61 OFFCURVE",
"827 -23 OFFCURVE",
"763 -86 OFFCURVE",
"677 -122 OFFCURVE",
"628 -122 QCURVE SMOOTH",
"179 -122 LINE"
);
},
{
nodes = (
"538 321 LINE",
"594 321 LINE",
"594 383 LINE",
"538 383 LINE",
"538 626 LINE",
"566 626 OFFCURVE",
"617 604 OFFCURVE",
"655 566 OFFCURVE",
"677 515 OFFCURVE",
"677 487 QCURVE SMOOTH",
"677 227 LINE SMOOTH",
"677 194 OFFCURVE",
"660 136 OFFCURVE",
"625 94 OFFCURVE",
"573 69 OFFCURVE",
"538 69 QCURVE"
);
},
{
nodes = (
"748 315 LINE SMOOTH",
"748 360 OFFCURVE",
"747 444 OFFCURVE",
"747 487 QCURVE SMOOTH",
"747 530 OFFCURVE",
"714 606 OFFCURVE",
"657 662 OFFCURVE",
"581 695 OFFCURVE",
"538 695 QCURVE SMOOTH",
"121 695 LINE",
"121 383 LINE",
"53 383 LINE",
"53 321 LINE",
"121 321 LINE",
"121 0 LINE",
"538 0 LINE SMOOTH",
"581 0 OFFCURVE",
"655 31 OFFCURVE",
"711 86 OFFCURVE",
"744 159 OFFCURVE",
"746 201 QCURVE SMOOTH",
"747 215 OFFCURVE",
"748 244 OFFCURVE",
"748 258 QCURVE SMOOTH"
);
}
);
width = 919;
}
);
unicode = 00D0;
},
{
glyphname = eth;
layers = (
{
layerId = "CD3DF19A-D83F-4C46-B819-463B69F1BB92";
paths = (
{
nodes = (
"699 475 LINE",
"699 477 OFFCURVE",
"698 477 QCURVE"
);
},
{
nodes = (
"92 -35 LINE",
"86 -35 LINE",
"86 224 LINE",
"24 286 LINE",
"18 286 LINE",
"18 418 LINE",
"86 418 LINE",
"86 730 LINE",
"538 730 LINE SMOOTH",
"600 730 OFFCURVE",
"704 675 OFFCURVE",
"737 628 QCURVE",
"799 566 LINE SMOOTH",
"831 534 OFFCURVE",
"869 447 OFFCURVE",
"869 397 QCURVE SMOOTH",
"869 313 LINE SMOOTH",
"869 291 OFFCURVE",
"870 248 OFFCURVE",
"870 225 QCURVE SMOOTH",
"870 168 LINE SMOOTH",
"870 154 OFFCURVE",
"869 123 OFFCURVE",
"868 109 QCURVE SMOOTH",
"865 61 OFFCURVE",
"827 -23 OFFCURVE",
"763 -86 OFFCURVE",
"677 -122 OFFCURVE",
"628 -122 QCURVE SMOOTH",
"179 -122 LINE"
);
},
{
nodes = (
"538 321 LINE",
"594 321 LINE",
"594 383 LINE",
"538 383 LINE",
"538 626 LINE",
"566 626 OFFCURVE",
"617 604 OFFCURVE",
"655 566 OFFCURVE",
"677 515 OFFCURVE",
"677 487 QCURVE SMOOTH",
"677 227 LINE SMOOTH",
"677 194 OFFCURVE",
"660 136 OFFCURVE",
"625 94 OFFCURVE",
"573 69 OFFCURVE",
"538 69 QCURVE"
);
},
{
nodes = (
"748 315 LINE SMOOTH",
"748 360 OFFCURVE",
"747 444 OFFCURVE",
"747 487 QCURVE SMOOTH",
"747 530 OFFCURVE",
"714 606 OFFCURVE",
"657 662 OFFCURVE",
"581 695 OFFCURVE",
"538 695 QCURVE SMOOTH",
"121 695 LINE",
"121 383 LINE",
"53 383 LINE",
"53 321 LINE",
"121 321 LINE",
"121 0 LINE",
"538 0 LINE SMOOTH",
"581 0 OFFCURVE",
"655 31 OFFCURVE",
"711 86 OFFCURVE",
"744 159 OFFCURVE",
"746 201 QCURVE SMOOTH",
"747 215 OFFCURVE",
"748 244 OFFCURVE",
"748 258 QCURVE SMOOTH"
);
}
);
width = 919;
}
);
unicode = 00F0;
},
{
glyphname = dotaccent;
layers = (
{
layerId = "CD3DF19A-D83F-4C46-B819-463B69F1BB92";
paths = (
{
nodes = (
"137 945 OFFCURVE",
"156 990 OFFCURVE",
"189 1024 OFFCURVE",
"233 1044 OFFCURVE",
"259 1044 QCURVE SMOOTH",
"291 1044 OFFCURVE",
"344 1013 OFFCURVE",
"361 987 QCURVE",
"433 916 LINE SMOOTH",
"450 899 OFFCURVE",
"469 855 OFFCURVE",
"469 830 QCURVE SMOOTH",
"469 805 OFFCURVE",
"450 761 OFFCURVE",
"417 728 OFFCURVE",
"373 709 OFFCURVE",
"349 709 QCURVE SMOOTH",
"324 709 OFFCURVE",
"281 728 OFFCURVE",
"265 744 QCURVE SMOOTH",
"194 814 LINE",
"168 831 OFFCURVE",
"137 886 OFFCURVE",
"137 920 QCURVE SMOOTH"
);
},
{
nodes = (
"172 883 OFFCURVE",
"223 831 OFFCURVE",
"259 831 QCURVE SMOOTH",
"277 831 OFFCURVE",
"309 845 OFFCURVE",
"333 869 OFFCURVE",
"347 902 OFFCURVE",
"347 920 QCURVE SMOOTH",
"347 938 OFFCURVE",
"333 970 OFFCURVE",
"309 995 OFFCURVE",
"277 1009 OFFCURVE",
"259 1009 QCURVE SMOOTH",
"241 1009 OFFCURVE",
"209 995 OFFCURVE",
"186 970 OFFCURVE",
"172 938 OFFCURVE",
"172 920 QCURVE SMOOTH"
);
}
);
width = 695;
}
);
unicode = 02D9;
},
{
glyphname = dotlessi;
layers = (
{
layerId = "CD3DF19A-D83F-4C46-B819-463B69F1BB92";
paths = (
{
nodes = (
"522 724 LINE",
"609 637 LINE",
"609 -122 LINE",
"128 -122 LINE",
"41 -35 LINE",
"35 -35 LINE",
"35 730 LINE",
"522 730 LINE"
);
},
{
nodes = (
"487 695 LINE",
"70 695 LINE",
"70 0 LINE",
"487 0 LINE"
);
}
);
width = 641;
}
);
unicode = 0131;
},
{
glyphname = oe;
layers = (
{
layerId = "CD3DF19A-D83F-4C46-B819-463B69F1BB92";
paths = (
{
nodes = (
"1075 452 LINE",
"1161 452 LINE",
"1161 446 LINE",
"1248 359 LINE",
"1248 225 LINE",
"1075 225 LINE",
"1075 104 LINE",
"1161 104 LINE",
"1161 98 LINE",
"1248 11 LINE",
"1248 -122 LINE",
"659 -122 LINE",
"630 -93 LINE",
"604 -107 OFFCURVE",
"548 -122 OFFCURVE",
"519 -122 QCURVE SMOOTH",
"372 -122 LINE SMOOTH",
"321 -122 OFFCURVE",
"234 -84 OFFCURVE",
"202 -52 QCURVE SMOOTH",
"139 10 LINE",
"93 43 OFFCURVE",
"39 146 OFFCURVE",
"39 208 QCURVE SMOOTH",
"39 486 LINE SMOOTH",
"39 537 OFFCURVE",
"77 626 OFFCURVE",
"143 692 OFFCURVE",
"231 730 OFFCURVE",
"282 730 QCURVE SMOOTH",
"429 730 LINE SMOOTH",
"467 730 OFFCURVE",
"537 708 OFFCURVE",
"566 688 QCURVE",
"566 730 LINE",
"1161 730 LINE",
"1161 724 LINE",
"1248 637 LINE",
"1248 503 LINE",
"1075 503 LINE"
);
},
{
nodes = (
"429 625 LINE",
"458 625 OFFCURVE",
"509 603 OFFCURVE",
"546 566 OFFCURVE",
"568 515 OFFCURVE",
"568 486 QCURVE SMOOTH",
"568 232 LINE SMOOTH",
"568 199 OFFCURVE",
"552 139 OFFCURVE",
"518 95 OFFCURVE",
"466 69 OFFCURVE",
"429 69 QCURVE"
);
},
{
nodes = (
"953 69 LINE",
"953 347 LINE",
"1126 347 LINE",
"1126 417 LINE",
"953 417 LINE",
"953 625 LINE",
"1126 625 LINE",
"1126 695 LINE",
"601 695 LINE",
"601 603 LINE",
"596 611 OFFCURVE",
"583 626 OFFCURVE",
"576 633 QCURVE SMOOTH",
"548 662 OFFCURVE",
"472 695 OFFCURVE",
"429 695 QCURVE SMOOTH",
"282 695 LINE SMOOTH",
"239 695 OFFCURVE",
"163 662 OFFCURVE",
"107 605 OFFCURVE",
"74 529 OFFCURVE",
"74 486 QCURVE SMOOTH",
"74 208 LINE SMOOTH",
"74 165 OFFCURVE",
"107 89 OFFCURVE",
"163 33 OFFCURVE",
"239 0 OFFCURVE",
"282 0 QCURVE SMOOTH",
"429 0 LINE SMOOTH",
"469 0 OFFCURVE",
"545 32 OFFCURVE",
"573 59 QCURVE SMOOTH",
"581 66 OFFCURVE",
"594 82 OFFCURVE",
"601 90 QCURVE",
"601 0 LINE",
"1126 0 LINE",
"1126 69 LINE"
);
}
);
width = 1289;
}
);
unicode = 0153;
},
{
glyphname = OE;
layers = (
{
layerId = "CD3DF19A-D83F-4C46-B819-463B69F1BB92";
paths = (
{
nodes = (
"1075 452 LINE",
"1161 452 LINE",
"1161 446 LINE",
"1248 359 LINE",
"1248 225 LINE",
"1075 225 LINE",
"1075 104 LINE",
"1161 104 LINE",
"1161 98 LINE",
"1248 11 LINE",
"1248 -122 LINE",
"659 -122 LINE",
"630 -93 LINE",
"604 -107 OFFCURVE",
"548 -122 OFFCURVE",
"519 -122 QCURVE SMOOTH",
"372 -122 LINE SMOOTH",
"321 -122 OFFCURVE",
"234 -84 OFFCURVE",
"202 -52 QCURVE SMOOTH",
"139 10 LINE",
"93 43 OFFCURVE",
"39 146 OFFCURVE",
"39 208 QCURVE SMOOTH",
"39 486 LINE SMOOTH",
"39 537 OFFCURVE",
"77 626 OFFCURVE",
"143 692 OFFCURVE",
"231 730 OFFCURVE",
"282 730 QCURVE SMOOTH",
"429 730 LINE SMOOTH",
"467 730 OFFCURVE",
"537 708 OFFCURVE",
"566 688 QCURVE",
"566 730 LINE",
"1161 730 LINE",
"1161 724 LINE",
"1248 637 LINE",
"1248 503 LINE",
"1075 503 LINE"
);
},
{
nodes = (
"429 625 LINE",
"458 625 OFFCURVE",
"509 603 OFFCURVE",
"546 566 OFFCURVE",
"568 515 OFFCURVE",
"568 486 QCURVE SMOOTH",
"568 232 LINE SMOOTH",
"568 199 OFFCURVE",
"552 139 OFFCURVE",
"518 95 OFFCURVE",
"466 69 OFFCURVE",
"429 69 QCURVE"
);
},
{
nodes = (
"953 69 LINE",
"953 347 LINE",
"1126 347 LINE",
"1126 417 LINE",
"953 417 LINE",
"953 625 LINE",
"1126 625 LINE",
"1126 695 LINE",
"601 695 LINE",
"601 603 LINE",
"596 611 OFFCURVE",
"583 626 OFFCURVE",
"576 633 QCURVE SMOOTH",
"548 662 OFFCURVE",
"472 695 OFFCURVE",
"429 695 QCURVE SMOOTH",
"282 695 LINE SMOOTH",
"239 695 OFFCURVE",
"163 662 OFFCURVE",
"107 605 OFFCURVE",
"74 529 OFFCURVE",
"74 486 QCURVE SMOOTH",
"74 208 LINE SMOOTH",
"74 165 OFFCURVE",
"107 89 OFFCURVE",
"163 33 OFFCURVE",
"239 0 OFFCURVE",
"282 0 QCURVE SMOOTH",
"429 0 LINE SMOOTH",
"469 0 OFFCURVE",
"545 32 OFFCURVE",
"573 59 QCURVE SMOOTH",
"581 66 OFFCURVE",
"594 82 OFFCURVE",
"601 90 QCURVE",
"601 0 LINE",
"1126 0 LINE",
"1126 69 LINE"
);
}
);
width = 1289;
}
);
unicode = 0152;
},
{
glyphname = exclamdown;
layers = (
{
layerId = "CD3DF19A-D83F-4C46-B819-463B69F1BB92";
paths = (
{
nodes = (
"40 730 LINE",
"419 730 LINE",
"419 724 LINE",
"506 637 LINE",
"506 -122 LINE",
"133 -122 LINE",
"46 -35 LINE",
"40 -35 LINE"
);
},
{
nodes = (
"75 604 LINE",
"384 604 LINE",
"384 695 LINE",
"75 695 LINE"
);
},
{
nodes = (
"75 0 LINE",
"384 0 LINE",
"384 548 LINE",
"75 548 LINE"
);
}
);
width = 551;
}
);
unicode = 00A1;
},
{
glyphname = cent;
layers = (
{
layerId = "CD3DF19A-D83F-4C46-B819-463B69F1BB92";
paths = (
{
nodes = (
"546 724 LINE",
"584 713 OFFCURVE",
"651 666 OFFCURVE",
"676 633 QCURVE",
"739 570 LINE SMOOTH",
"777 532 OFFCURVE",
"821 426 OFFCURVE",
"821 365 QCURVE",
"688 365 LINE",
"613 440 LINE",
"613 244 LINE",
"734 244 LINE",
"734 238 LINE",
"821 151 LINE",
"821 95 OFFCURVE",
"783 -5 OFFCURVE",
"718 -79 OFFCURVE",
"631 -122 OFFCURVE",
"581 -122 QCURVE SMOOTH",
"546 -122 LINE",
"546 -286 LINE",
"407 -286 LINE",
"320 -199 LINE",
"314 -199 LINE",
"314 -114 LINE",
"282 -106 OFFCURVE",
"225 -74 OFFCURVE",
"203 -52 QCURVE SMOOTH",
"141 10 LINE",
"94 43 OFFCURVE",
"39 146 OFFCURVE",
"39 209 QCURVE SMOOTH",
"39 487 LINE SMOOTH",
"39 538 OFFCURVE",
"77 627 OFFCURVE",
"143 693 OFFCURVE",
"231 731 OFFCURVE",
"282 731 QCURVE SMOOTH",
"314 731 LINE",
"314 902 LINE",
"459 902 LINE",
"459 896 LINE",
"546 809 LINE"
);
},
{
nodes = (
"699 487 LINE",
"699 530 OFFCURVE",
"666 606 OFFCURVE",
"610 663 OFFCURVE",
"534 696 OFFCURVE",
"491 696 QCURVE SMOOTH",
"424 696 LINE",
"424 867 LINE",
"349 867 LINE",
"349 696 LINE",
"282 696 LINE SMOOTH",
"239 696 OFFCURVE",
"163 663 OFFCURVE",
"107 606 OFFCURVE",
"74 530 OFFCURVE",
"74 487 QCURVE SMOOTH",
"74 209 LINE SMOOTH",
"74 166 OFFCURVE",
"107 90 OFFCURVE",
"163 33 OFFCURVE",
"239 0 OFFCURVE",
"282 0 QCURVE SMOOTH",
"349 0 LINE",
"349 -164 LINE",
"424 -164 LINE",
"424 0 LINE",
"491 0 LINE SMOOTH",
"534 0 OFFCURVE",
"610 33 OFFCURVE",
"666 90 OFFCURVE",
"699 166 OFFCURVE",
"699 209 QCURVE",
"630 209 LINE",
"630 180 OFFCURVE",
"608 129 OFFCURVE",
"571 92 OFFCURVE",
"520 70 OFFCURVE",
"491 70 QCURVE",
"491 626 LINE",
"520 626 OFFCURVE",
"571 604 OFFCURVE",
"608 567 OFFCURVE",
"630 516 OFFCURVE",
"630 487 QCURVE"
);
}
);
width = 859;
}
);
unicode = 00A2;
},
{
glyphname = sterling;
layers = (
{
layerId = "CD3DF19A-D83F-4C46-B819-463B69F1BB92";
paths = (
{
nodes = (
"286 506 LINE SMOOTH",
"286 555 OFFCURVE",
"323 632 OFFCURVE",
"385 686 OFFCURVE",
"467 714 OFFCURVE",
"512 714 QCURVE SMOOTH",
"564 714 LINE SMOOTH",
"574 714 OFFCURVE",
"593 713 OFFCURVE",
"603 713 QCURVE SMOOTH",
"720 713 LINE SMOOTH",
"742 713 OFFCURVE",
"785 709 OFFCURVE",
"805 703 QCURVE SMOOTH",
"835 694 OFFCURVE",
"888 657 OFFCURVE",
"910 631 QCURVE",
"987 555 LINE SMOOTH",
"1025 517 OFFCURVE",
"1068 409 OFFCURVE",
"1068 347 QCURVE",
"1033 347 LINE",
"1033 235 LINE",
"860 235 LINE",
"859 197 OFFCURVE",
"840 131 OFFCURVE",
"821 105 QCURVE",
"976 105 LINE",
"976 99 LINE",
"1063 12 LINE",
"1063 -122 LINE",
"171 -122 LINE",
"84 -35 LINE",
"78 -35 LINE",
"78 178 LINE SMOOTH",
"78 192 OFFCURVE",
"80 229 OFFCURVE",
"83 245 QCURVE SMOOTH",
"84 253 OFFCURVE",
"88 267 OFFCURVE",
"90 274 QCURVE",
"43 322 LINE",
"37 322 LINE",
"37 467 LINE",
"286 467 LINE"
);
},
{
nodes = (
"321 432 LINE",
"72 432 LINE",
"72 357 LINE",
"190 357 LINE",
"162 334 OFFCURVE",
"124 273 OFFCURVE",
"117 237 QCURVE SMOOTH",
"114 223 OFFCURVE",
"113 193 OFFCURVE",
"113 178 QCURVE SMOOTH",
"113 0 LINE",
"941 0 LINE",
"941 70 LINE",
"322 70 LINE",
"322 142 LINE",
"564 142 LINE SMOOTH",
"604 142 OFFCURVE",
"669 171 OFFCURVE",
"714 222 OFFCURVE",
"738 289 OFFCURVE",
"738 328 QCURVE SMOOTH",
"738 357 LINE",
"911 357 LINE",
"911 432 LINE",
"738 432 LINE",
"738 607 LINE",
"766 607 OFFCURVE",
"817 585 OFFCURVE",
"854 548 OFFCURVE",
"876 497 OFFCURVE",
"876 469 QCURVE",
"946 469 LINE",
"946 503 OFFCURVE",
"924 567 OFFCURVE",
"884 621 OFFCURVE",
"829 660 OFFCURVE",
"796 669 QCURVE SMOOTH",
"777 674 OFFCURVE",
"739 678 OFFCURVE",
"720 678 QCURVE SMOOTH",
"681 678 OFFCURVE",
"603 679 OFFCURVE",
"564 679 QCURVE SMOOTH",
"512 679 LINE SMOOTH",
"474 679 OFFCURVE",
"405 656 OFFCURVE",
"352 611 OFFCURVE",
"321 547 OFFCURVE",
"321 506 QCURVE SMOOTH"
);
}
);
width = 1111;
}
);
unicode = 00A3;
},
{
glyphname = yen;
layers = (
{
layerId = "CD3DF19A-D83F-4C46-B819-463B69F1BB92";
paths = (
{
nodes = (
"56 -35 LINE",
"48 -35 LINE",
"114 111 LINE",
"46 180 LINE",
"40 180 LINE",
"40 325 LINE",
"86 325 LINE",
"46 365 LINE",
"40 365 LINE",
"40 510 LINE",
"222 510 LINE",
"122 730 LINE",
"286 730 LINE",
"290 721 LINE",
"357 654 LINE",
"392 730 LINE",
"886 730 LINE",
"883 724 LINE",
"971 637 LINE",
"905 491 LINE",
"980 417 LINE",
"980 278 LINE",
"934 278 LINE",
"980 232 LINE",
"980 93 LINE",
"727 93 LINE",
"704 42 OFFCURVE",
"651 -73 OFFCURVE",
"629 -122 QCURVE",
"143 -122 LINE"
);
},
{
nodes = (
"858 475 LINE",
"733 475 LINE",
"832 695 LINE",
"415 695 LINE",
"339 526 LINE",
"263 695 LINE",
"176 695 LINE",
"276 475 LINE",
"75 475 LINE",
"75 400 LINE",
"282 400 LINE",
"233 290 LINE",
"75 290 LINE",
"75 215 LINE",
"199 215 LINE",
"102 0 LINE",
"519 0 LINE",
"616 215 LINE",
"858 215 LINE",
"858 290 LINE",
"650 290 LINE",
"699 400 LINE",
"858 400 LINE"
);
}
);
width = 1027;
}
);
unicode = 00A5;
},
{
glyphname = guillemotleft;
layers = (
{
layerId = "CD3DF19A-D83F-4C46-B819-463B69F1BB92";
paths = (
{
nodes = (
"20 424 LINE",
"415 658 LINE",
"415 649 LINE",
"502 562 LINE",
"502 539 LINE",
"702 658 LINE",
"702 649 LINE",
"789 562 LINE",
"789 375 LINE",
"650 292 LINE",
"678 277 LINE",
"677 277 LINE",
"702 263 LINE",
"702 258 LINE",
"789 171 LINE",
"789 -17 LINE",
"502 153 LINE",
"502 -17 LINE",
"113 213 LINE",
"32 293 LINE",
"20 301 LINE"
);
},
{
nodes = (
"55 322 LINE",
"380 129 LINE",
"380 242 LINE",
"331 271 OFFCURVE",
"229 333 OFFCURVE",
"178 362 QCURVE",
"380 483 LINE",
"380 596 LINE",
"55 403 LINE"
);
},
{
nodes = (
"342 322 LINE",
"667 129 LINE",
"667 242 LINE",
"618 271 OFFCURVE",
"516 333 OFFCURVE",
"465 362 QCURVE",
"667 483 LINE",
"667 596 LINE",
"342 403 LINE"
);
}
);
width = 833;
}
);
unicode = 00AB;
},
{
glyphname = ordfeminine;
layers = (
{
layerId = "CD3DF19A-D83F-4C46-B819-463B69F1BB92";
paths = (
{
nodes = (
"89 373 LINE",
"65 388 OFFCURVE",
"35 438 OFFCURVE",
"35 467 QCURVE SMOOTH",
"35 513 LINE SMOOTH",
"35 560 OFFCURVE",
"67 592 QCURVE",
"42 618 LINE",
"36 618 LINE",
"36 715 LINE",
"330 715 LINE SMOOTH",
"362 715 OFFCURVE",
"412 685 OFFCURVE",
"427 661 QCURVE",
"498 590 LINE SMOOTH",
"530 558 OFFCURVE",
"530 512 QCURVE SMOOTH",
"530 271 LINE",
"410 270 LINE",
"238 270 LINE SMOOTH",
"215 270 OFFCURVE",
"175 288 OFFCURVE",
"160 303 QCURVE SMOOTH"
);
},
{
nodes = (
"212 565 LINE",
"212 419 LINE",
"148 418 LINE",
"120 418 OFFCURVE",
"96 454 OFFCURVE",
"96 478 QCURVE SMOOTH",
"96 513 LINE SMOOTH",
"96 534 OFFCURVE",
"126 565 OFFCURVE",
"148 565 QCURVE SMOOTH"
);
},
{
nodes = (
"408 602 LINE SMOOTH",
"408 634 OFFCURVE",
"363 680 OFFCURVE",
"330 680 QCURVE SMOOTH",
"71 680 LINE",
"71 653 LINE",
"210 653 LINE",
"210 591 LINE",
"153 591 LINE SMOOTH",
"132 591 OFFCURVE",
"104 579 OFFCURVE",
"93 568 QCURVE SMOOTH",
"70 545 OFFCURVE",
"70 513 QCURVE SMOOTH",
"70 467 LINE SMOOTH",
"70 436 OFFCURVE",
"117 392 OFFCURVE",
"148 392 QCURVE SMOOTH",
"320 392 LINE",
"408 393 LINE"
);
}
);
width = 568;
}
);
unicode = 00AA;
},
{
glyphname = guillemotright;
layers = (
{
layerId = "CD3DF19A-D83F-4C46-B819-463B69F1BB92";
paths = (
{
nodes = (
"702 419 LINE",
"789 332 LINE",
"789 213 LINE",
"400 -17 LINE",
"312 70 LINE",
"307 67 LINE",
"307 97 LINE",
"113 -17 LINE",
"25 70 LINE",
"20 67 LINE",
"20 262 LINE",
"160 345 LINE",
"113 374 LINE",
"31 455 LINE",
"20 462 LINE",
"20 658 LINE",
"307 488 LINE",
"307 658 LINE",
"702 424 LINE"
);
},
{
nodes = (
"380 403 LINE",
"55 596 LINE",
"55 483 LINE",
"104 454 OFFCURVE",
"206 392 OFFCURVE",
"257 363 QCURVE",
"55 242 LINE",
"55 129 LINE",
"380 322 LINE"
);
},
{
nodes = (
"667 403 LINE",
"342 596 LINE",
"342 483 LINE",
"391 454 OFFCURVE",
"493 392 OFFCURVE",
"544 363 QCURVE",
"342 242 LINE",
"342 129 LINE",
"667 322 LINE"
);
}
);
width = 833;
}
);
unicode = 00BB;
},
{
glyphname = Thorn;
layers = (
{
layerId = "CD3DF19A-D83F-4C46-B819-463B69F1BB92";
paths = (
{
nodes = (
"265 730 LINE",
"486 730 LINE SMOOTH",
"547 730 OFFCURVE",
"650 675 OFFCURVE",
"683 628 QCURVE",
"745 567 LINE SMOOTH",
"778 534 OFFCURVE",
"816 447 OFFCURVE",
"816 396 QCURVE SMOOTH",
"816 111 LINE SMOOTH",
"816 63 OFFCURVE",
"776 -22 OFFCURVE",
"710 -85 OFFCURVE",
"623 -122 OFFCURVE",
"576 -122 QCURVE SMOOTH",
"265 -122 LINE",
"265 -286 LINE",
"126 -286 LINE",
"39 -199 LINE",
"33 -199 LINE",
"33 902 LINE",
"178 902 LINE",
"178 896 LINE",
"265 809 LINE"
);
},
{
nodes = (
"486 625 LINE",
"515 625 OFFCURVE",
"566 603 OFFCURVE",
"603 566 OFFCURVE",
"625 515 OFFCURVE",
"625 486 QCURVE SMOOTH",
"625 232 LINE SMOOTH",
"625 199 OFFCURVE",
"609 139 OFFCURVE",
"575 95 OFFCURVE",
"523 69 OFFCURVE",
"486 69 QCURVE"
);
},
{
nodes = (
"694 486 LINE SMOOTH",
"694 529 OFFCURVE",
"661 605 OFFCURVE",
"605 662 OFFCURVE",
"529 695 OFFCURVE",
"486 695 QCURVE SMOOTH",
"143 695 LINE",
"143 867 LINE",
"68 867 LINE",
"68 -164 LINE",
"143 -164 LINE",
"143 0 LINE",
"486 0 LINE SMOOTH",
"526 0 OFFCURVE",
"602 32 OFFCURVE",
"659 86 OFFCURVE",
"694 159 OFFCURVE",
"694 201 QCURVE SMOOTH"
);
}
);
width = 869;
}
);
unicode = 00DE;
},
{
glyphname = thorn;
layers = (
{
layerId = "CD3DF19A-D83F-4C46-B819-463B69F1BB92";
paths = (
{
nodes = (
"265 730 LINE",
"486 730 LINE SMOOTH",
"547 730 OFFCURVE",
"650 675 OFFCURVE",
"683 628 QCURVE",
"745 567 LINE SMOOTH",
"778 534 OFFCURVE",
"816 447 OFFCURVE",
"816 396 QCURVE SMOOTH",
"816 111 LINE SMOOTH",
"816 63 OFFCURVE",
"776 -22 OFFCURVE",
"710 -85 OFFCURVE",
"623 -122 OFFCURVE",
"576 -122 QCURVE SMOOTH",
"265 -122 LINE",
"265 -286 LINE",
"126 -286 LINE",
"39 -199 LINE",
"33 -199 LINE",
"33 902 LINE",
"178 902 LINE",
"178 896 LINE",
"265 809 LINE"
);
},
{
nodes = (
"486 625 LINE",
"515 625 OFFCURVE",
"566 603 OFFCURVE",
"603 566 OFFCURVE",
"625 515 OFFCURVE",
"625 486 QCURVE SMOOTH",
"625 232 LINE SMOOTH",
"625 199 OFFCURVE",
"609 139 OFFCURVE",
"575 95 OFFCURVE",
"523 69 OFFCURVE",
"486 69 QCURVE"
);
},
{
nodes = (
"694 486 LINE SMOOTH",
"694 529 OFFCURVE",
"661 605 OFFCURVE",
"605 662 OFFCURVE",
"529 695 OFFCURVE",
"486 695 QCURVE SMOOTH",
"143 695 LINE",
"143 867 LINE",
"68 867 LINE",
"68 -164 LINE",
"143 -164 LINE",
"143 0 LINE",
"486 0 LINE SMOOTH",
"526 0 OFFCURVE",
"602 32 OFFCURVE",
"659 86 OFFCURVE",
"694 159 OFFCURVE",
"694 201 QCURVE SMOOTH"
);
}
);
width = 869;
}
);
unicode = 00FE;
},
{
glyphname = quotesinglbase;
layers = (
{
layerId = "CD3DF19A-D83F-4C46-B819-463B69F1BB92";
paths = (
{
nodes = (
"27 127 LINE",
"205 127 LINE",
"205 121 LINE",
"292 34 LINE",
"292 -107 LINE",
"120 -213 LINE",
"32 -125 LINE",
"27 -129 LINE"
);
},
{
nodes = (
"62 -66 LINE",
"170 1 LINE",
"170 92 LINE",
"62 92 LINE"
);
}
);
width = 333;
}
);
unicode = 201A;
},
{
glyphname = gravecomb;
layers = (
{
layerId = "CD3DF19A-D83F-4C46-B819-463B69F1BB92";
paths = (
{
nodes = (
"92 990 LINE",
"286 1083 LINE",
"289 1073 LINE",
"374 989 LINE",
"458 756 LINE",
"318 701 LINE",
"230 788 LINE",
"227 787 LINE"
);
},
{
nodes = (
"241 831 LINE",
"327 865 LINE",
"266 1035 LINE",
"144 976 LINE"
);
}
);
width = 535;
}
);
unicode = 0300;
},
{
glyphname = acutecomb;
layers = (
{
layerId = "CD3DF19A-D83F-4C46-B819-463B69F1BB92";
paths = (
{
nodes = (
"373 987 LINE",
"461 899 LINE",
"329 701 LINE",
"189 756 LINE",
"105 840 LINE",
"95 844 LINE",
"181 1083 LINE",
"375 990 LINE"
);
},
{
nodes = (
"323 976 LINE",
"201 1035 LINE",
"140 865 LINE",
"226 831 LINE"
);
}
);
width = 508;
}
);
unicode = 0301;
},
{
glyphname = tildecomb;
layers = (
{
layerId = "CD3DF19A-D83F-4C46-B819-463B69F1BB92";
paths = (
{
nodes = (
"560 1005 LINE",
"558 1000 LINE",
"646 913 LINE",
"632 860 LINE",
"627 836 OFFCURVE",
"613 782 OFFCURVE",
"586 738 OFFCURVE",
"543 709 OFFCURVE",
"509 709 QCURVE SMOOTH",
"488 709 OFFCURVE",
"439 721 OFFCURVE",
"416 729 QCURVE SMOOTH",
"407 732 OFFCURVE",
"392 735 OFFCURVE",
"384 738 QCURVE SMOOTH",
"376 740 OFFCURVE",
"356 746 OFFCURVE",
"348 748 QCURVE SMOOTH",
"342 749 OFFCURVE",
"340 751 QCURVE",
"339 752 LINE",
"330 751 OFFCURVE",
"307 733 OFFCURVE",
"301 710 QCURVE",
"197 737 LINE",
"111 823 LINE",
"103 825 LINE",
"113 880 LINE SMOOTH",
"118 905 OFFCURVE",
"132 961 OFFCURVE",
"159 1006 OFFCURVE",
"204 1036 OFFCURVE",
"240 1036 QCURVE SMOOTH",
"262 1036 OFFCURVE",
"316 1020 OFFCURVE",
"341 1012 QCURVE SMOOTH",
"361 1005 OFFCURVE",
"400 993 OFFCURVE",
"411 993 QCURVE SMOOTH",
"419 993 OFFCURVE",
"441 1012 OFFCURVE",
"447 1038 QCURVE"
);
},
{
nodes = (
"472 994 LINE",
"467 974 OFFCURVE",
"429 958 OFFCURVE",
"411 958 QCURVE SMOOTH",
"394 958 OFFCURVE",
"351 971 OFFCURVE",
"304 988 OFFCURVE",
"259 1001 OFFCURVE",
"240 1001 QCURVE SMOOTH",
"211 1001 OFFCURVE",
"178 970 OFFCURVE",
"158 924 OFFCURVE",
"148 872 OFFCURVE",
"143 851 QCURVE",
"188 839 LINE",
"193 859 OFFCURVE",
"233 874 OFFCURVE",
"250 874 QCURVE",
"251 874 OFFCURVE",
"266 870 OFFCURVE",
"283 864 OFFCURVE",
"299 860 OFFCURVE",
"301 860 QCURVE",
"301 859 LINE",
"328 852 OFFCURVE",
"393 831 OFFCURVE",
"419 831 QCURVE SMOOTH",
"447 831 OFFCURVE",
"481 863 OFFCURVE",
"501 909 OFFCURVE",
"511 961 OFFCURVE",
"516 981 QCURVE"
);
}
);
width = 690;
}
);
unicode = 0303;
},
{
glyphname = uni0304;
layers = (
{
layerId = "CD3DF19A-D83F-4C46-B819-463B69F1BB92";
paths = (
{
nodes = (
"50 977 LINE",
"521 977 LINE",
"521 971 LINE",
"608 884 LINE",
"608 709 LINE",
"143 709 LINE",
"56 796 LINE",
"50 796 LINE"
);
},
{
nodes = (
"85 831 LINE",
"486 831 LINE",
"486 942 LINE",
"85 942 LINE"
);
}
);
width = 639;
}
);
unicode = 0304;
},
{
glyphname = uni0306;
layers = (
{
layerId = "CD3DF19A-D83F-4C46-B819-463B69F1BB92";
paths = (
{
nodes = (
"163 827 LINE",
"119 858 OFFCURVE",
"65 966 OFFCURVE",
"65 1032 QCURVE",
"229 1032 LINE",
"229 1026 LINE",
"275 980 LINE",
"283 1001 OFFCURVE",
"283 1032 QCURVE",
"447 1032 LINE",
"447 1026 LINE",
"534 939 LINE",
"534 892 OFFCURVE",
"505 809 OFFCURVE",
"454 746 OFFCURVE",
"386 709 OFFCURVE",
"346 709 QCURVE SMOOTH",
"313 709 OFFCURVE",
"254 737 OFFCURVE",
"229 761 QCURVE SMOOTH"
);
},
{
nodes = (
"230 925 OFFCURVE",
"194 968 OFFCURVE",
"194 997 QCURVE",
"100 997 LINE",
"100 963 OFFCURVE",
"125 903 OFFCURVE",
"168 858 OFFCURVE",
"224 831 OFFCURVE",
"256 831 QCURVE SMOOTH",
"289 831 OFFCURVE",
"346 858 OFFCURVE",
"388 903 OFFCURVE",
"412 963 OFFCURVE",
"412 997 QCURVE",
"318 997 LINE",
"318 968 OFFCURVE",
"282 925 OFFCURVE",
"256 925 QCURVE SMOOTH"
);
}
);
width = 585;
}
);
unicode = 0306;
},
{
glyphname = uni0307;
layers = (
{
layerId = "CD3DF19A-D83F-4C46-B819-463B69F1BB92";
paths = (
{
nodes = (
"59 945 OFFCURVE",
"78 990 OFFCURVE",
"111 1024 OFFCURVE",
"155 1044 OFFCURVE",
"181 1044 QCURVE SMOOTH",
"213 1044 OFFCURVE",
"266 1013 OFFCURVE",
"283 987 QCURVE",
"355 916 LINE SMOOTH",
"372 899 OFFCURVE",
"391 855 OFFCURVE",
"391 830 QCURVE SMOOTH",
"391 805 OFFCURVE",
"372 761 OFFCURVE",
"339 728 OFFCURVE",
"295 709 OFFCURVE",
"271 709 QCURVE SMOOTH",
"246 709 OFFCURVE",
"203 728 OFFCURVE",
"187 744 QCURVE SMOOTH",
"116 814 LINE",
"90 831 OFFCURVE",
"59 886 OFFCURVE",
"59 920 QCURVE SMOOTH"
);
},
{
nodes = (
"94 883 OFFCURVE",
"145 831 OFFCURVE",
"181 831 QCURVE SMOOTH",
"199 831 OFFCURVE",
"231 845 OFFCURVE",
"255 869 OFFCURVE",
"269 902 OFFCURVE",
"269 920 QCURVE SMOOTH",
"269 938 OFFCURVE",
"255 970 OFFCURVE",
"231 995 OFFCURVE",
"199 1009 OFFCURVE",
"181 1009 QCURVE SMOOTH",
"163 1009 OFFCURVE",
"131 995 OFFCURVE",
"108 970 OFFCURVE",
"94 938 OFFCURVE",
"94 920 QCURVE SMOOTH"
);
}
);
width = 443;
}
);
unicode = 0307;
},
{
glyphname = Ygrave;
layers = (
{
layerId = "CD3DF19A-D83F-4C46-B819-463B69F1BB92";
paths = (
{
nodes = (
"74 985 LINE",
"268 1078 LINE",
"271 1068 LINE",
"356 984 LINE",
"440 751 LINE",
"300 696 LINE",
"212 783 LINE",
"209 782 LINE"
);
},
{
nodes = (
"223 826 LINE",
"309 860 LINE",
"248 1030 LINE",
"126 971 LINE"
);
}
);
width = 499;
}
);
unicode = 1EF2;
},
{
glyphname = ygrave;
layers = (
{
layerId = "CD3DF19A-D83F-4C46-B819-463B69F1BB92";
paths = (
{
nodes = (
"49 990 LINE",
"243 1083 LINE",
"246 1073 LINE",
"331 989 LINE",
"415 756 LINE",
"275 701 LINE",
"187 788 LINE",
"184 787 LINE"
);
},
{
nodes = (
"198 831 LINE",
"284 865 LINE",
"223 1035 LINE",
"101 976 LINE"
);
}
);
width = 482;
}
);
unicode = 1EF3;
},
{
glyphname = periodcentered.loclCAT;
layers = (
{
layerId = "CD3DF19A-D83F-4C46-B819-463B69F1BB92";
paths = (
{
nodes = (
"52 945 OFFCURVE",
"71 990 OFFCURVE",
"104 1024 OFFCURVE",
"148 1044 OFFCURVE",
"174 1044 QCURVE SMOOTH",
"206 1044 OFFCURVE",
"259 1013 OFFCURVE",
"276 987 QCURVE",
"348 916 LINE SMOOTH",
"365 899 OFFCURVE",
"384 855 OFFCURVE",
"384 830 QCURVE SMOOTH",
"384 805 OFFCURVE",
"365 761 OFFCURVE",
"332 728 OFFCURVE",
"288 709 OFFCURVE",
"264 709 QCURVE SMOOTH",
"239 709 OFFCURVE",
"196 728 OFFCURVE",
"180 744 QCURVE SMOOTH",
"109 814 LINE",
"83 831 OFFCURVE",
"52 886 OFFCURVE",
"52 920 QCURVE SMOOTH"
);
},
{
nodes = (
"87 883 OFFCURVE",
"138 831 OFFCURVE",
"174 831 QCURVE SMOOTH",
"192 831 OFFCURVE",
"224 845 OFFCURVE",
"248 869 OFFCURVE",
"262 902 OFFCURVE",
"262 920 QCURVE SMOOTH",
"262 938 OFFCURVE",
"248 970 OFFCURVE",
"224 995 OFFCURVE",
"192 1009 OFFCURVE",
"174 1009 QCURVE SMOOTH",
"156 1009 OFFCURVE",
"124 995 OFFCURVE",
"101 970 OFFCURVE",
"87 938 OFFCURVE",
"87 920 QCURVE SMOOTH"
);
}
);
width = 437;
}
);
},
{
glyphname = uni0237;
layers = (
{
layerId = "CD3DF19A-D83F-4C46-B819-463B69F1BB92";
paths = (
{
nodes = (
"577 730 LINE",
"577 724 LINE",
"664 637 LINE",
"664 119 LINE SMOOTH",
"664 69 OFFCURVE",
"626 -19 OFFCURVE",
"561 -84 OFFCURVE",
"474 -122 OFFCURVE",
"424 -122 QCURVE SMOOTH",
"114 -122 LINE",
"27 -35 LINE",
"21 -35 LINE",
"21 104 LINE",
"90 104 LINE",
"90 730 LINE"
);
},
{
nodes = (
"125 695 LINE",
"125 69 LINE",
"56 69 LINE",
"56 0 LINE",
"334 0 LINE SMOOTH",
"377 0 OFFCURVE",
"453 33 OFFCURVE",
"509 90 OFFCURVE",
"542 166 OFFCURVE",
"542 209 QCURVE SMOOTH",
"542 695 LINE"
);
}
);
width = 701;
}
);
unicode = 0237;
},
{
glyphname = uni030A;
layers = (
{
layerId = "CD3DF19A-D83F-4C46-B819-463B69F1BB92";
paths = (
{
nodes = (
"112 817 LINE",
"83 835 OFFCURVE",
"47 897 OFFCURVE",
"47 934 QCURVE SMOOTH",
"47 963 OFFCURVE",
"68 1013 OFFCURVE",
"106 1049 OFFCURVE",
"156 1070 OFFCURVE",
"185 1070 QCURVE SMOOTH",
"221 1070 OFFCURVE",
"283 1035 OFFCURVE",
"302 1006 QCURVE",
"371 937 LINE SMOOTH",
"389 919 OFFCURVE",
"410 871 OFFCURVE",
"410 844 QCURVE SMOOTH",
"410 817 OFFCURVE",
"388 768 OFFCURVE",
"351 731 OFFCURVE",
"302 709 OFFCURVE",
"275 709 QCURVE SMOOTH",
"247 709 OFFCURVE",
"198 731 OFFCURVE",
"180 749 QCURVE SMOOTH"
);
},
{
nodes = (
"208 981 OFFCURVE",
"236 955 OFFCURVE",
"236 935 QCURVE SMOOTH",
"236 918 OFFCURVE",
"208 889 OFFCURVE",
"188 889 QCURVE SMOOTH",
"166 889 OFFCURVE",
"139 918 OFFCURVE",
"139 935 QCURVE SMOOTH",
"139 955 OFFCURVE",
"166 981 OFFCURVE",
"188 981 QCURVE SMOOTH"
);
},
{
nodes = (
"206 831 OFFCURVE",
"243 847 OFFCURVE",
"271 876 OFFCURVE",
"288 913 OFFCURVE",
"288 934 QCURVE SMOOTH",
"288 955 OFFCURVE",
"271 992 OFFCURVE",
"243 1019 OFFCURVE",
"206 1035 OFFCURVE",
"185 1035 QCURVE SMOOTH",
"142 1035 OFFCURVE",
"82 977 OFFCURVE",
"82 934 QCURVE SMOOTH",
"82 913 OFFCURVE",
"98 876 OFFCURVE",
"126 847 OFFCURVE",
"164 831 OFFCURVE",
"185 831 QCURVE SMOOTH"
);
}
);
width = 460;
}
);
unicode = 030A;
},
{
glyphname = uni030B;
layers = (
{
layerId = "CD3DF19A-D83F-4C46-B819-463B69F1BB92";
paths = (
{
nodes = (
"151 976 LINE",
"294 915 LINE",
"292 911 LINE",
"380 823 LINE",
"285 594 LINE",
"102 693 LINE",
"19 776 LINE",
"8 782 LINE"
);
},
{
nodes = (
"60 793 LINE",
"179 729 LINE",
"248 896 LINE",
"163 933 LINE"
);
}
);
width = 336;
}
);
unicode = 030B;
},
{
glyphname = uni030C;
layers = (
{
layerId = "CD3DF19A-D83F-4C46-B819-463B69F1BB92";
paths = (
{
nodes = (
"313 896 LINE",
"401 808 LINE",
"269 610 LINE",
"129 665 LINE",
"45 749 LINE",
"35 753 LINE",
"121 992 LINE",
"315 899 LINE"
);
},
{
nodes = (
"263 885 LINE",
"141 944 LINE",
"80 774 LINE",
"166 740 LINE"
);
}
);
width = 365;
}
);
unicode = 030C;
},
{
glyphname = uni030C.alt;
layers = (
{
layerId = "CD3DF19A-D83F-4C46-B819-463B69F1BB92";
paths = (
{
nodes = (
"360 987 LINE",
"448 899 LINE",
"316 701 LINE",
"176 756 LINE",
"92 840 LINE",
"82 844 LINE",
"168 1083 LINE",
"362 990 LINE"
);
},
{
nodes = (
"310 976 LINE",
"188 1035 LINE",
"127 865 LINE",
"213 831 LINE"
);
}
);
width = 479;
}
);
},
{
glyphname = uni0326;
layers = (
{
layerId = "CD3DF19A-D83F-4C46-B819-463B69F1BB92";
paths = (
{
nodes = (
"37 -200 LINE",
"215 -200 LINE",
"215 -206 LINE",
"302 -293 LINE",
"302 -434 LINE",
"130 -540 LINE",
"42 -452 LINE",
"37 -456 LINE"
);
},
{
nodes = (
"72 -393 LINE",
"180 -326 LINE",
"180 -235 LINE",
"72 -235 LINE"
);
}
);
width = 267;
}
);
unicode = 0326;
},
{
glyphname = uni0327;
layers = (
{
layerId = "CD3DF19A-D83F-4C46-B819-463B69F1BB92";
paths = (
{
nodes = (
"392 -268 LINE SMOOTH",
"392 -235 OFFCURVE",
"346 -189 OFFCURVE",
"312 -189 QCURVE SMOOTH",
"269 -189 LINE",
"269 0 LINE",
"391 0 LINE",
"391 -184 LINE",
"397 -189 OFFCURVE",
"406 -202 OFFCURVE",
"411 -209 QCURVE",
"482 -280 LINE SMOOTH",
"514 -312 OFFCURVE",
"514 -358 QCURVE SMOOTH",
"514 -400 LINE SMOOTH",
"514 -448 OFFCURVE",
"450 -510 OFFCURVE",
"402 -510 QCURVE SMOOTH",
"301 -510 LINE SMOOTH",
"258 -510 OFFCURVE",
"224 -476 QCURVE SMOOTH",
"153 -405 LINE",
"121 -384 OFFCURVE",
"82 -304 OFFCURVE",
"82 -253 QCURVE",
"140 -253 LINE",
"140 0 LINE",
"175 0 LINE",
"175 -224 LINE",
"282 -224 LINE",
"282 -253 OFFCURVE",
"281 -316 OFFCURVE",
"281 -345 QCURVE",
"211 -345 LINE SMOOTH",
"191 -345 OFFCURVE",
"163 -311 OFFCURVE",
"163 -288 QCURVE",
"117 -288 LINE",
"117 -309 OFFCURVE",
"132 -346 OFFCURVE",
"158 -373 OFFCURVE",
"192 -388 OFFCURVE",
"211 -388 QCURVE SMOOTH",
"312 -388 LINE SMOOTH",
"346 -388 OFFCURVE",
"392 -344 OFFCURVE",
"392 -310 QCURVE SMOOTH"
);
}
);
width = 563;
}
);
unicode = 0327;
},
{
glyphname = uni0328;
layers = (
{
layerId = "CD3DF19A-D83F-4C46-B819-463B69F1BB92";
paths = (
{
nodes = (
"75 -310 LINE SMOOTH",
"75 -344 OFFCURVE",
"121 -388 OFFCURVE",
"155 -388 QCURVE SMOOTH",
"256 -388 LINE SMOOTH",
"275 -388 OFFCURVE",
"309 -373 OFFCURVE",
"335 -346 OFFCURVE",
"350 -309 OFFCURVE",
"350 -288 QCURVE",
"304 -288 LINE",
"304 -311 OFFCURVE",
"276 -345 OFFCURVE",
"256 -345 QCURVE SMOOTH",
"186 -345 LINE",
"186 -316 OFFCURVE",
"185 -253 OFFCURVE",
"185 -224 QCURVE",
"292 -224 LINE",
"292 0 LINE",
"327 0 LINE",
"327 -6 LINE",
"414 -93 LINE",
"414 -288 LINE",
"472 -346 LINE",
"472 -381 OFFCURVE",
"452 -441 OFFCURVE",
"417 -485 OFFCURVE",
"371 -510 OFFCURVE",
"346 -510 QCURVE SMOOTH",
"245 -510 LINE SMOOTH",
"196 -510 OFFCURVE",
"164 -478 QCURVE SMOOTH",
"91 -405 LINE",
"68 -391 OFFCURVE",
"40 -341 OFFCURVE",
"40 -310 QCURVE SMOOTH",
"40 -268 LINE SMOOTH",
"40 -244 OFFCURVE",
"58 -202 OFFCURVE",
"89 -172 OFFCURVE",
"131 -154 OFFCURVE",
"155 -154 QCURVE SMOOTH",
"163 -154 LINE",
"163 0 LINE",
"198 0 LINE",
"198 -189 LINE",
"155 -189 LINE SMOOTH",
"121 -189 OFFCURVE",
"75 -235 OFFCURVE",
"75 -268 QCURVE SMOOTH"
);
}
);
width = 499;
}
);
unicode = 0328;
},
{
glyphname = Germandbls;
layers = (
{
layerId = "CD3DF19A-D83F-4C46-B819-463B69F1BB92";
paths = (
{
nodes = (
"759 293 LINE",
"760 293 OFFCURVE",
"760 292 QCURVE"
);
},
{
nodes = (
"47 -35 LINE",
"41 -35 LINE",
"41 486 LINE SMOOTH",
"41 537 OFFCURVE",
"79 626 OFFCURVE",
"145 692 OFFCURVE",
"233 730 OFFCURVE",
"284 730 QCURVE SMOOTH",
"712 730 LINE",
"712 724 LINE",
"799 637 LINE",
"799 430 LINE SMOOTH",
"799 356 OFFCURVE",
"752 300 QCURVE",
"760 292 LINE",
"768 285 LINE",
"834 219 OFFCURVE",
"834 120 QCURVE SMOOTH",
"834 70 OFFCURVE",
"797 -18 OFFCURVE",
"732 -84 OFFCURVE",
"644 -122 OFFCURVE",
"593 -122 QCURVE SMOOTH",
"134 -122 LINE"
);
},
{
nodes = (
"642 179 OFFCURVE",
"620 128 OFFCURVE",
"583 91 OFFCURVE",
"532 69 OFFCURVE",
"503 69 QCURVE",
"503 347 LINE",
"532 347 OFFCURVE",
"583 325 OFFCURVE",
"620 288 OFFCURVE",
"642 237 OFFCURVE",
"642 208 QCURVE SMOOTH"
);
},
{
nodes = (
"607 521 LINE SMOOTH",
"607 476 OFFCURVE",
"548 417 OFFCURVE",
"503 417 QCURVE",
"503 625 LINE",
"607 625 LINE"
);
},
{
nodes = (
"643 411 OFFCURVE",
"677 480 OFFCURVE",
"677 520 QCURVE SMOOTH",
"677 695 LINE",
"284 695 LINE SMOOTH",
"241 695 OFFCURVE",
"165 662 OFFCURVE",
"109 605 OFFCURVE",
"76 529 OFFCURVE",
"76 486 QCURVE SMOOTH",
"76 0 LINE",
"503 0 LINE SMOOTH",
"547 0 OFFCURVE",
"624 33 OFFCURVE",
"680 90 OFFCURVE",
"712 166 OFFCURVE",
"712 210 QCURVE SMOOTH",
"712 267 OFFCURVE",
"660 357 OFFCURVE",
"612 386 QCURVE"
);
}
);
width = 869;
}
);
},
{
glyphname = Ygrave.001;
layers = (
{
layerId = "CD3DF19A-D83F-4C46-B819-463B69F1BB92";
paths = (
{
nodes = (
"219 990 LINE",
"413 1083 LINE",
"416 1073 LINE",
"501 989 LINE",
"585 756 LINE",
"518 730 LINE",
"811 730 LINE",
"808 724 LINE",
"896 637 LINE",
"554 -122 LINE",
"68 -122 LINE",
"-19 -35 LINE",
"-27 -35 LINE",
"183 430 LINE",
"150 504 OFFCURVE",
"79 656 OFFCURVE",
"47 730 QCURVE",
"211 730 LINE",
"215 721 LINE",
"282 653 LINE",
"317 730 LINE",
"416 730 LINE",
"357 788 LINE",
"354 787 LINE"
);
},
{
nodes = (
"368 831 LINE",
"454 865 LINE",
"393 1035 LINE",
"271 976 LINE"
);
},
{
nodes = (
"264 526 LINE",
"188 695 LINE",
"101 695 LINE",
"221 430 LINE",
"27 0 LINE",
"444 0 LINE",
"757 695 LINE",
"340 695 LINE"
);
}
);
width = 0;
}
);
},
{
glyphname = ygrave.001;
layers = (
{
layerId = "CD3DF19A-D83F-4C46-B819-463B69F1BB92";
paths = (
{
nodes = (
"219 990 LINE",
"413 1083 LINE",
"416 1073 LINE",
"501 989 LINE",
"585 756 LINE",
"518 730 LINE",
"811 730 LINE",
"808 724 LINE",
"896 637 LINE",
"554 -122 LINE",
"68 -122 LINE",
"-19 -35 LINE",
"-27 -35 LINE",
"183 430 LINE",
"150 504 OFFCURVE",
"79 656 OFFCURVE",
"47 730 QCURVE",
"211 730 LINE",
"215 721 LINE",
"282 653 LINE",
"317 730 LINE",
"416 730 LINE",
"357 788 LINE",
"354 787 LINE"
);
},
{
nodes = (
"368 831 LINE",
"454 865 LINE",
"393 1035 LINE",
"271 976 LINE"
);
},
{
nodes = (
"264 526 LINE",
"188 695 LINE",
"101 695 LINE",
"221 430 LINE",
"27 0 LINE",
"444 0 LINE",
"757 695 LINE",
"340 695 LINE"
);
}
);
width = 0;
}
);
},
{
glyphname = questiondown;
layers = (
{
layerId = "CD3DF19A-D83F-4C46-B819-463B69F1BB92";
paths = (
{
nodes = (
"638 727 LINE",
"725 640 LINE",
"725 485 LINE",
"724 485 LINE",
"724 245 LINE",
"846 245 LINE",
"846 239 LINE",
"933 152 LINE",
"933 105 OFFCURVE",
"907 20 OFFCURVE",
"861 -51 OFFCURVE",
"797 -101 OFFCURVE",
"759 -111 QCURVE SMOOTH",
"738 -117 OFFCURVE",
"695 -121 OFFCURVE",
"675 -121 QCURVE SMOOTH",
"547 -121 LINE SMOOTH",
"515 -121 OFFCURVE",
"452 -120 OFFCURVE",
"420 -120 QCURVE SMOOTH",
"400 -120 OFFCURVE",
"371 -121 OFFCURVE",
"361 -122 QCURVE",
"346 -122 LINE SMOOTH",
"298 -122 OFFCURVE",
"214 -88 OFFCURVE",
"183 -57 QCURVE SMOOTH",
"118 8 LINE",
"80 35 OFFCURVE",
"33 119 OFFCURVE",
"33 173 QCURVE SMOOTH",
"33 280 LINE SMOOTH",
"33 326 OFFCURVE",
"62 407 OFFCURVE",
"116 467 OFFCURVE",
"193 501 OFFCURVE",
"242 501 QCURVE SMOOTH",
"258 501 LINE",
"258 586 LINE",
"259 586 LINE",
"259 733 LINE",
"638 733 LINE"
);
},
{
nodes = (
"68 173 LINE SMOOTH",
"68 134 OFFCURVE",
"99 70 OFFCURVE",
"151 25 OFFCURVE",
"219 0 OFFCURVE",
"256 0 QCURVE SMOOTH",
"263 0 OFFCURVE",
"301 2 OFFCURVE",
"330 2 QCURVE SMOOTH",
"394 2 OFFCURVE",
"521 1 OFFCURVE",
"585 1 QCURVE SMOOTH",
"604 1 OFFCURVE",
"642 5 OFFCURVE",
"661 10 QCURVE SMOOTH",
"694 19 OFFCURVE",
"749 58 OFFCURVE",
"789 112 OFFCURVE",
"811 176 OFFCURVE",
"811 210 QCURVE",
"741 210 LINE",
"741 181 OFFCURVE",
"719 131 OFFCURVE",
"682 94 OFFCURVE",
"631 72 OFFCURVE",
"603 72 QCURVE",
"602 551 LINE",
"293 551 LINE",
"293 466 LINE",
"242 466 LINE SMOOTH",
"201 466 OFFCURVE",
"137 437 OFFCURVE",
"92 386 OFFCURVE",
"68 319 OFFCURVE",
"68 280 QCURVE SMOOTH"
);
},
{
nodes = (
"603 698 LINE",
"294 698 LINE",
"294 607 LINE",
"603 607 LINE"
);
}
);
width = 966;
}
);
unicode = 00BF;
},
{
glyphname = B;
layers = (
{
layerId = "CD3DF19A-D83F-4C46-B819-463B69F1BB92";
paths = (
{
nodes = (
"38 -35 LINE",
"32 -35 LINE",
"32 730 LINE",
"484 730 LINE SMOOTH",
"538 730 OFFCURVE",
"626 683 OFFCURVE",
"654 643 QCURVE",
"720 578 LINE SMOOTH",
"748 550 OFFCURVE",
"780 474 OFFCURVE",
"780 430 QCURVE SMOOTH",
"780 356 OFFCURVE",
"733 300 QCURVE",
"747 286 LINE SMOOTH",
"779 254 OFFCURVE",
"815 169 OFFCURVE",
"815 120 QCURVE SMOOTH",
"815 69 OFFCURVE",
"778 -19 OFFCURVE",
"713 -84 OFFCURVE",
"625 -122 OFFCURVE",
"574 -122 QCURVE SMOOTH",
"125 -122 LINE"
);
},
{
nodes = (
"588 476 OFFCURVE",
"529 417 OFFCURVE",
"484 417 QCURVE",
"484 625 LINE",
"529 625 OFFCURVE",
"588 566 OFFCURVE",
"588 521 QCURVE SMOOTH"
);
},
{
nodes = (
"623 179 OFFCURVE",
"601 128 OFFCURVE",
"564 91 OFFCURVE",
"513 69 OFFCURVE",
"484 69 QCURVE",
"484 347 LINE",
"513 347 OFFCURVE",
"564 325 OFFCURVE",
"601 288 OFFCURVE",
"623 237 OFFCURVE",
"623 208 QCURVE SMOOTH"
);
},
{
nodes = (
"624 411 OFFCURVE",
"658 480 OFFCURVE",
"658 520 QCURVE SMOOTH",
"658 557 OFFCURVE",
"631 621 OFFCURVE",
"584 668 OFFCURVE",
"521 695 OFFCURVE",
"484 695 QCURVE SMOOTH",
"67 695 LINE",
"67 0 LINE",
"484 0 LINE SMOOTH",
"528 0 OFFCURVE",
"605 33 OFFCURVE",
"661 90 OFFCURVE",
"693 166 OFFCURVE",
"693 210 QCURVE SMOOTH",
"693 266 OFFCURVE",
"640 357 OFFCURVE",
"593 386 QCURVE"
);
}
);
width = 838;
}
);
unicode = 0042;
},
{
glyphname = circumflex;
layers = (
{
layerId = "CD3DF19A-D83F-4C46-B819-463B69F1BB92";
paths = (
{
nodes = (
"379 846 LINE",
"282 701 LINE",
"142 756 LINE",
"58 840 LINE",
"48 844 LINE",
"134 1083 LINE",
"306 1000 LINE",
"478 1083 LINE",
"481 1073 LINE",
"566 989 LINE",
"650 756 LINE",
"510 701 LINE",
"422 788 LINE",
"419 787 LINE"
);
},
{
nodes = (
"276 976 LINE",
"154 1035 LINE",
"93 865 LINE",
"179 831 LINE"
);
},
{
nodes = (
"433 831 LINE",
"519 865 LINE",
"458 1035 LINE",
"336 976 LINE"
);
}
);
width = 673;
}
);
unicode = 02C6;
},
{
glyphname = euro;
layers = (
{
layerId = "CD3DF19A-D83F-4C46-B819-463B69F1BB92";
paths = (
{
nodes = (
"-884 180 LINE",
"-890 180 LINE",
"-890 325 LINE",
"-844 325 LINE",
"-884 365 LINE",
"-890 365 LINE",
"-890 510 LINE",
"-810 510 LINE",
"-806 556 OFFCURVE",
"-764 636 OFFCURVE",
"-700 696 OFFCURVE",
"-616 730 OFFCURVE",
"-568 730 QCURVE SMOOTH",
"-129 730 LINE",
"-129 724 LINE",
"-42 637 LINE",
"-42 503 LINE",
"-129 503 LINE",
"-42 417 LINE",
"-42 278 LINE",
"-88 278 LINE",
"-42 232 LINE",
"-42 93 LINE",
"-124 93 LINE",
"-42 11 LINE",
"-42 -122 LINE",
"-478 -122 LINE SMOOTH",
"-529 -122 OFFCURVE",
"-616 -84 OFFCURVE",
"-648 -52 QCURVE SMOOTH",
"-711 10 LINE",
"-756 43 OFFCURVE",
"-783 93 QCURVE",
"-797 93 LINE"
);
},
{
nodes = (
"-469 215 LINE",
"-164 215 LINE",
"-164 290 LINE",
"-469 290 LINE",
"-469 400 LINE",
"-164 400 LINE",
"-164 475 LINE",
"-469 475 LINE",
"-469 627 LINE",
"-164 625 LINE",
"-164 695 LINE",
"-568 695 LINE SMOOTH",
"-611 695 OFFCURVE",
"-687 662 OFFCURVE",
"-743 605 OFFCURVE",
"-776 529 OFFCURVE",
"-776 486 QCURVE SMOOTH",
"-776 475 LINE",
"-855 475 LINE",
"-855 400 LINE",
"-776 400 LINE",
"-776 290 LINE",
"-855 290 LINE",
"-855 215 LINE",
"-776 215 LINE",
"-776 208 LINE SMOOTH",
"-776 165 OFFCURVE",
"-743 89 OFFCURVE",
"-687 33 OFFCURVE",
"-611 0 OFFCURVE",
"-568 0 QCURVE SMOOTH",
"-164 0 LINE",
"-164 69 LINE",
"-469 69 LINE"
);
}
);
width = -918;
}
);
},
{
glyphname = minus;
layers = (
{
layerId = "CD3DF19A-D83F-4C46-B819-463B69F1BB92";
paths = (
{
nodes = (
"-117 400 LINE",
"-30 313 LINE",
"-30 141 LINE",
"-518 141 LINE",
"-605 228 LINE",
"-611 228 LINE",
"-611 406 LINE",
"-117 406 LINE"
);
},
{
nodes = (
"-152 371 LINE",
"-576 371 LINE",
"-576 263 LINE",
"-152 263 LINE"
);
}
);
width = -638;
}
);
unicode = 2212;
},
{
glyphname = periodcentered.loclCAT.case;
layers = (
{
layerId = "CD3DF19A-D83F-4C46-B819-463B69F1BB92";
paths = (
{
nodes = (
"52 945 OFFCURVE",
"71 990 OFFCURVE",
"104 1024 OFFCURVE",
"148 1044 OFFCURVE",
"174 1044 QCURVE SMOOTH",
"206 1044 OFFCURVE",
"259 1013 OFFCURVE",
"276 987 QCURVE",
"348 916 LINE SMOOTH",
"365 899 OFFCURVE",
"384 855 OFFCURVE",
"384 830 QCURVE SMOOTH",
"384 805 OFFCURVE",
"365 761 OFFCURVE",
"332 728 OFFCURVE",
"288 709 OFFCURVE",
"264 709 QCURVE SMOOTH",
"239 709 OFFCURVE",
"196 728 OFFCURVE",
"180 744 QCURVE SMOOTH",
"109 814 LINE",
"83 831 OFFCURVE",
"52 886 OFFCURVE",
"52 920 QCURVE SMOOTH"
);
},
{
nodes = (
"87 883 OFFCURVE",
"138 831 OFFCURVE",
"174 831 QCURVE SMOOTH",
"192 831 OFFCURVE",
"224 845 OFFCURVE",
"248 869 OFFCURVE",
"262 902 OFFCURVE",
"262 920 QCURVE SMOOTH",
"262 938 OFFCURVE",
"248 970 OFFCURVE",
"224 995 OFFCURVE",
"192 1009 OFFCURVE",
"174 1009 QCURVE SMOOTH",
"156 1009 OFFCURVE",
"124 995 OFFCURVE",
"101 970 OFFCURVE",
"87 938 OFFCURVE",
"87 920 QCURVE SMOOTH"
);
}
);
width = 437;
}
);
},
{
glyphname = guillemetleft;
layers = (
{
layerId = "CD3DF19A-D83F-4C46-B819-463B69F1BB92";
paths = (
{
nodes = (
"-804 424 LINE",
"-409 658 LINE",
"-409 649 LINE",
"-322 562 LINE",
"-322 539 LINE",
"-122 658 LINE",
"-122 649 LINE",
"-35 562 LINE",
"-35 375 LINE",
"-174 292 LINE",
"-146 277 LINE",
"-147 277 LINE",
"-122 263 LINE",
"-122 258 LINE",
"-35 171 LINE",
"-35 -17 LINE",
"-322 153 LINE",
"-322 -17 LINE",
"-711 213 LINE",
"-792 293 LINE",
"-804 301 LINE"
);
},
{
nodes = (
"-769 322 LINE",
"-444 129 LINE",
"-444 242 LINE",
"-493 271 OFFCURVE",
"-595 333 OFFCURVE",
"-646 362 QCURVE",
"-444 483 LINE",
"-444 596 LINE",
"-769 403 LINE"
);
},
{
nodes = (
"-482 322 LINE",
"-157 129 LINE",
"-157 242 LINE",
"-206 271 OFFCURVE",
"-308 333 OFFCURVE",
"-359 362 QCURVE",
"-157 483 LINE",
"-157 596 LINE",
"-482 403 LINE"
);
}
);
width = -824;
}
);
},
{
glyphname = guillemetright;
layers = (
{
layerId = "CD3DF19A-D83F-4C46-B819-463B69F1BB92";
paths = (
{
nodes = (
"-118 419 LINE",
"-31 332 LINE",
"-31 213 LINE",
"-420 -17 LINE",
"-508 70 LINE",
"-513 67 LINE",
"-513 97 LINE",
"-707 -17 LINE",
"-795 70 LINE",
"-800 67 LINE",
"-800 262 LINE",
"-660 345 LINE",
"-707 374 LINE",
"-789 455 LINE",
"-800 462 LINE",
"-800 658 LINE",
"-513 488 LINE",
"-513 658 LINE",
"-118 424 LINE"
);
},
{
nodes = (
"-440 403 LINE",
"-765 596 LINE",
"-765 483 LINE",
"-716 454 OFFCURVE",
"-614 392 OFFCURVE",
"-563 363 QCURVE",
"-765 242 LINE",
"-765 129 LINE",
"-440 322 LINE"
);
},
{
nodes = (
"-153 403 LINE",
"-478 596 LINE",
"-478 483 LINE",
"-429 454 OFFCURVE",
"-327 392 OFFCURVE",
"-276 363 QCURVE",
"-478 242 LINE",
"-478 129 LINE",
"-153 322 LINE"
);
}
);
width = -820;
}
);
},
{
glyphname = macron;
layers = (
{
layerId = "CD3DF19A-D83F-4C46-B819-463B69F1BB92";
paths = (
{
nodes = (
"50 977 LINE",
"521 977 LINE",
"521 971 LINE",
"608 884 LINE",
"608 709 LINE",
"143 709 LINE",
"56 796 LINE",
"50 796 LINE"
);
},
{
nodes = (
"85 831 LINE",
"486 831 LINE",
"486 942 LINE",
"85 942 LINE"
);
}
);
width = 649;
}
);
unicode = 00AF;
},
{
glyphname = tilde;
layers = (
{
layerId = "CD3DF19A-D83F-4C46-B819-463B69F1BB92";
paths = (
{
nodes = (
"-155 1005 LINE",
"-157 1000 LINE",
"-69 913 LINE",
"-83 860 LINE",
"-88 836 OFFCURVE",
"-102 782 OFFCURVE",
"-129 738 OFFCURVE",
"-172 709 OFFCURVE",
"-206 709 QCURVE SMOOTH",
"-227 709 OFFCURVE",
"-276 721 OFFCURVE",
"-299 729 QCURVE SMOOTH",
"-308 732 OFFCURVE",
"-323 735 OFFCURVE",
"-331 738 QCURVE SMOOTH",
"-339 740 OFFCURVE",
"-359 746 OFFCURVE",
"-367 748 QCURVE SMOOTH",
"-373 749 OFFCURVE",
"-375 751 QCURVE",
"-376 752 LINE",
"-385 751 OFFCURVE",
"-408 733 OFFCURVE",
"-414 710 QCURVE",
"-518 737 LINE",
"-604 823 LINE",
"-612 825 LINE",
"-602 880 LINE SMOOTH",
"-597 905 OFFCURVE",
"-583 961 OFFCURVE",
"-556 1006 OFFCURVE",
"-511 1036 OFFCURVE",
"-475 1036 QCURVE SMOOTH",
"-453 1036 OFFCURVE",
"-399 1020 OFFCURVE",
"-374 1012 QCURVE SMOOTH",
"-354 1005 OFFCURVE",
"-315 993 OFFCURVE",
"-304 993 QCURVE SMOOTH",
"-296 993 OFFCURVE",
"-274 1012 OFFCURVE",
"-268 1038 QCURVE"
);
},
{
nodes = (
"-243 994 LINE",
"-248 974 OFFCURVE",
"-286 958 OFFCURVE",
"-304 958 QCURVE SMOOTH",
"-321 958 OFFCURVE",
"-364 971 OFFCURVE",
"-411 988 OFFCURVE",
"-456 1001 OFFCURVE",
"-475 1001 QCURVE SMOOTH",
"-504 1001 OFFCURVE",
"-537 970 OFFCURVE",
"-557 924 OFFCURVE",
"-567 872 OFFCURVE",
"-572 851 QCURVE",
"-527 839 LINE",
"-522 859 OFFCURVE",
"-482 874 OFFCURVE",
"-465 874 QCURVE",
"-464 874 OFFCURVE",
"-449 870 OFFCURVE",
"-432 864 OFFCURVE",
"-416 860 OFFCURVE",
"-414 860 QCURVE",
"-414 859 LINE",
"-387 852 OFFCURVE",
"-322 831 OFFCURVE",
"-296 831 QCURVE SMOOTH",
"-268 831 OFFCURVE",
"-234 863 OFFCURVE",
"-214 909 OFFCURVE",
"-204 961 OFFCURVE",
"-199 981 QCURVE"
);
}
);
width = -715;
}
);
unicode = 02DC;
},
{
glyphname = circumflexcomb;
layers = (
{
layerId = "CD3DF19A-D83F-4C46-B819-463B69F1BB92";
paths = (
{
nodes = (
"379 846 LINE",
"282 701 LINE",
"142 756 LINE",
"58 840 LINE",
"48 844 LINE",
"134 1083 LINE",
"306 1000 LINE",
"478 1083 LINE",
"481 1073 LINE",
"566 989 LINE",
"650 756 LINE",
"510 701 LINE",
"422 788 LINE",
"419 787 LINE"
);
},
{
nodes = (
"276 976 LINE",
"154 1035 LINE",
"93 865 LINE",
"179 831 LINE"
);
},
{
nodes = (
"433 831 LINE",
"519 865 LINE",
"458 1035 LINE",
"336 976 LINE"
);
}
);
width = 673;
}
);
unicode = 0302;
},
{
glyphname = macroncomb;
layers = (
{
layerId = "CD3DF19A-D83F-4C46-B819-463B69F1BB92";
paths = (
{
nodes = (
"-594 977 LINE",
"-123 977 LINE",
"-123 971 LINE",
"-36 884 LINE",
"-36 709 LINE",
"-501 709 LINE",
"-588 796 LINE",
"-594 796 LINE"
);
},
{
nodes = (
"-559 831 LINE",
"-158 831 LINE",
"-158 942 LINE",
"-559 942 LINE"
);
}
);
width = -644;
}
);
},
{
glyphname = brevecomb;
layers = (
{
layerId = "CD3DF19A-D83F-4C46-B819-463B69F1BB92";
paths = (
{
nodes = (
"192 827 LINE",
"148 858 OFFCURVE",
"94 966 OFFCURVE",
"94 1032 QCURVE",
"258 1032 LINE",
"258 1026 LINE",
"304 980 LINE",
"312 1001 OFFCURVE",
"312 1032 QCURVE",
"476 1032 LINE",
"476 1026 LINE",
"563 939 LINE",
"563 892 OFFCURVE",
"534 809 OFFCURVE",
"483 746 OFFCURVE",
"415 709 OFFCURVE",
"375 709 QCURVE SMOOTH",
"342 709 OFFCURVE",
"283 737 OFFCURVE",
"258 761 QCURVE SMOOTH"
);
},
{
nodes = (
"259 925 OFFCURVE",
"223 968 OFFCURVE",
"223 997 QCURVE",
"129 997 LINE",
"129 963 OFFCURVE",
"154 903 OFFCURVE",
"197 858 OFFCURVE",
"253 831 OFFCURVE",
"285 831 QCURVE SMOOTH",
"318 831 OFFCURVE",
"375 858 OFFCURVE",
"417 903 OFFCURVE",
"441 963 OFFCURVE",
"441 997 QCURVE",
"347 997 LINE",
"347 968 OFFCURVE",
"311 925 OFFCURVE",
"285 925 QCURVE SMOOTH"
);
}
);
width = 622;
}
);
},
{
glyphname = dotaccentcomb;
layers = (
{
layerId = "CD3DF19A-D83F-4C46-B819-463B69F1BB92";
paths = (
{
nodes = (
"137 945 OFFCURVE",
"156 990 OFFCURVE",
"189 1024 OFFCURVE",
"233 1044 OFFCURVE",
"259 1044 QCURVE SMOOTH",
"291 1044 OFFCURVE",
"344 1013 OFFCURVE",
"361 987 QCURVE",
"433 916 LINE SMOOTH",
"450 899 OFFCURVE",
"469 855 OFFCURVE",
"469 830 QCURVE SMOOTH",
"469 805 OFFCURVE",
"450 761 OFFCURVE",
"417 728 OFFCURVE",
"373 709 OFFCURVE",
"349 709 QCURVE SMOOTH",
"324 709 OFFCURVE",
"281 728 OFFCURVE",
"265 744 QCURVE SMOOTH",
"194 814 LINE",
"168 831 OFFCURVE",
"137 886 OFFCURVE",
"137 920 QCURVE SMOOTH"
);
},
{
nodes = (
"172 883 OFFCURVE",
"223 831 OFFCURVE",
"259 831 QCURVE SMOOTH",
"277 831 OFFCURVE",
"309 845 OFFCURVE",
"333 869 OFFCURVE",
"347 902 OFFCURVE",
"347 920 QCURVE SMOOTH",
"347 938 OFFCURVE",
"333 970 OFFCURVE",
"309 995 OFFCURVE",
"277 1009 OFFCURVE",
"259 1009 QCURVE SMOOTH",
"241 1009 OFFCURVE",
"209 995 OFFCURVE",
"186 970 OFFCURVE",
"172 938 OFFCURVE",
"172 920 QCURVE SMOOTH"
);
}
);
width = 695;
}
);
},
{
glyphname = dieresiscomb;
layers = (
{
layerId = "CD3DF19A-D83F-4C46-B819-463B69F1BB92";
paths = (
{
nodes = (
"48 935 OFFCURVE",
"66 978 OFFCURVE",
"97 1009 OFFCURVE",
"139 1027 OFFCURVE",
"163 1027 QCURVE SMOOTH",
"195 1027 OFFCURVE",
"247 997 OFFCURVE",
"262 971 QCURVE",
"321 913 LINE",
"321 937 OFFCURVE",
"339 979 OFFCURVE",
"370 1009 OFFCURVE",
"412 1027 OFFCURVE",
"436 1027 QCURVE SMOOTH",
"468 1027 OFFCURVE",
"520 997 OFFCURVE",
"535 971 QCURVE",
"606 901 LINE SMOOTH",
"621 886 OFFCURVE",
"639 844 OFFCURVE",
"639 821 QCURVE SMOOTH",
"639 797 OFFCURVE",
"621 756 OFFCURVE",
"591 726 OFFCURVE",
"550 709 OFFCURVE",
"526 709 QCURVE SMOOTH",
"502 709 OFFCURVE",
"461 726 OFFCURVE",
"446 741 QCURVE SMOOTH",
"373 813 LINE",
"366 819 LINE",
"366 796 OFFCURVE",
"348 756 OFFCURVE",
"317 726 OFFCURVE",
"276 709 OFFCURVE",
"253 709 QCURVE SMOOTH",
"229 709 OFFCURVE",
"188 726 OFFCURVE",
"173 741 QCURVE SMOOTH",
"100 813 LINE",
"76 828 OFFCURVE",
"48 879 OFFCURVE",
"48 911 QCURVE SMOOTH"
);
},
{
nodes = (
"356 877 OFFCURVE",
"402 831 OFFCURVE",
"436 831 QCURVE SMOOTH",
"470 831 OFFCURVE",
"517 877 OFFCURVE",
"517 911 QCURVE SMOOTH",
"517 945 OFFCURVE",
"470 992 OFFCURVE",
"436 992 QCURVE SMOOTH",
"402 992 OFFCURVE",
"356 945 OFFCURVE",
"356 911 QCURVE SMOOTH"
);
},
{
nodes = (
"83 877 OFFCURVE",
"129 831 OFFCURVE",
"163 831 QCURVE SMOOTH",
"197 831 OFFCURVE",
"244 877 OFFCURVE",
"244 911 QCURVE SMOOTH",
"244 945 OFFCURVE",
"197 992 OFFCURVE",
"163 992 QCURVE SMOOTH",
"129 992 OFFCURVE",
"83 945 OFFCURVE",
"83 911 QCURVE SMOOTH"
);
}
);
width = 671;
}
);
},
{
glyphname = ringcomb;
layers = (
{
layerId = "CD3DF19A-D83F-4C46-B819-463B69F1BB92";
paths = (
{
nodes = (
"137 813 LINE",
"108 831 OFFCURVE",
"72 893 OFFCURVE",
"72 930 QCURVE SMOOTH",
"72 959 OFFCURVE",
"93 1009 OFFCURVE",
"131 1045 OFFCURVE",
"181 1066 OFFCURVE",
"210 1066 QCURVE SMOOTH",
"246 1066 OFFCURVE",
"308 1031 OFFCURVE",
"327 1002 QCURVE",
"396 933 LINE SMOOTH",
"414 915 OFFCURVE",
"435 867 OFFCURVE",
"435 840 QCURVE SMOOTH",
"435 813 OFFCURVE",
"413 764 OFFCURVE",
"376 727 OFFCURVE",
"327 705 OFFCURVE",
"300 705 QCURVE SMOOTH",
"272 705 OFFCURVE",
"223 727 OFFCURVE",
"205 745 QCURVE SMOOTH"
);
},
{
nodes = (
"233 977 OFFCURVE",
"261 951 OFFCURVE",
"261 931 QCURVE SMOOTH",
"261 914 OFFCURVE",
"233 885 OFFCURVE",
"213 885 QCURVE SMOOTH",
"191 885 OFFCURVE",
"164 914 OFFCURVE",
"164 931 QCURVE SMOOTH",
"164 951 OFFCURVE",
"191 977 OFFCURVE",
"213 977 QCURVE SMOOTH"
);
},
{
nodes = (
"231 827 OFFCURVE",
"268 843 OFFCURVE",
"296 872 OFFCURVE",
"313 909 OFFCURVE",
"313 930 QCURVE SMOOTH",
"313 951 OFFCURVE",
"296 988 OFFCURVE",
"268 1015 OFFCURVE",
"231 1031 OFFCURVE",
"210 1031 QCURVE SMOOTH",
"167 1031 OFFCURVE",
"107 973 OFFCURVE",
"107 930 QCURVE SMOOTH",
"107 909 OFFCURVE",
"123 872 OFFCURVE",
"151 843 OFFCURVE",
"189 827 OFFCURVE",
"210 827 QCURVE SMOOTH"
);
}
);
width = 543;
}
);
},
{
glyphname = hungarumlautcomb;
layers = (
{
layerId = "CD3DF19A-D83F-4C46-B819-463B69F1BB92";
paths = (
{
nodes = (
"600 987 LINE",
"688 899 LINE",
"556 701 LINE",
"416 756 LINE",
"358 814 LINE",
"283 701 LINE",
"143 756 LINE",
"59 840 LINE",
"49 844 LINE",
"135 1083 LINE",
"329 990 LINE",
"327 987 LINE",
"361 952 LINE",
"408 1083 LINE",
"602 990 LINE"
);
},
{
nodes = (
"550 976 LINE",
"428 1035 LINE",
"367 865 LINE",
"453 831 LINE"
);
},
{
nodes = (
"277 976 LINE",
"155 1035 LINE",
"94 865 LINE",
"180 831 LINE"
);
}
);
width = 734;
}
);
},
{
glyphname = caroncomb;
layers = (
{
layerId = "CD3DF19A-D83F-4C46-B819-463B69F1BB92";
paths = (
{
nodes = (
"163 796 LINE",
"158 796 LINE",
"67 1025 LINE",
"214 1083 LINE",
"225 1066 LINE",
"300 991 LINE",
"362 1083 LINE",
"508 1025 LINE",
"506 1020 LINE",
"594 933 LINE",
"505 709 LINE",
"250 709 LINE"
);
},
{
nodes = (
"287 908 LINE",
"199 1039 LINE",
"113 1005 LINE",
"182 831 LINE",
"393 831 LINE",
"462 1005 LINE",
"376 1039 LINE"
);
}
);
width = 605;
}
);
},
{
glyphname = commaaccentcomb;
layers = (
{
layerId = "CD3DF19A-D83F-4C46-B819-463B69F1BB92";
paths = (
{
nodes = (
"-294 -140 LINE",
"-116 -140 LINE",
"-116 -146 LINE",
"-29 -233 LINE",
"-29 -374 LINE",
"-201 -480 LINE",
"-289 -392 LINE",
"-294 -396 LINE"
);
},
{
nodes = (
"-259 -333 LINE",
"-151 -266 LINE",
"-151 -175 LINE",
"-259 -175 LINE"
);
}
);
width = -316;
}
);
},
{
glyphname = cedillacomb;
layers = (
{
layerId = "CD3DF19A-D83F-4C46-B819-463B69F1BB92";
paths = (
{
nodes = (
"537 -268 LINE SMOOTH",
"537 -235 OFFCURVE",
"491 -189 OFFCURVE",
"457 -189 QCURVE SMOOTH",
"414 -189 LINE",
"414 0 LINE",
"536 0 LINE",
"536 -184 LINE",
"542 -189 OFFCURVE",
"551 -202 OFFCURVE",
"556 -209 QCURVE",
"627 -280 LINE SMOOTH",
"659 -312 OFFCURVE",
"659 -358 QCURVE SMOOTH",
"659 -400 LINE SMOOTH",
"659 -448 OFFCURVE",
"595 -510 OFFCURVE",
"547 -510 QCURVE SMOOTH",
"446 -510 LINE SMOOTH",
"403 -510 OFFCURVE",
"369 -476 QCURVE SMOOTH",
"298 -405 LINE",
"266 -384 OFFCURVE",
"227 -304 OFFCURVE",
"227 -253 QCURVE",
"285 -253 LINE",
"285 0 LINE",
"320 0 LINE",
"320 -224 LINE",
"427 -224 LINE",
"427 -253 OFFCURVE",
"426 -316 OFFCURVE",
"426 -345 QCURVE",
"356 -345 LINE SMOOTH",
"336 -345 OFFCURVE",
"308 -311 OFFCURVE",
"308 -288 QCURVE",
"262 -288 LINE",
"262 -309 OFFCURVE",
"277 -346 OFFCURVE",
"303 -373 OFFCURVE",
"337 -388 OFFCURVE",
"356 -388 QCURVE SMOOTH",
"457 -388 LINE SMOOTH",
"491 -388 OFFCURVE",
"537 -344 OFFCURVE",
"537 -310 QCURVE SMOOTH"
);
}
);
width = 833;
}
);
},
{
glyphname = ogonekcomb;
layers = (
{
layerId = "CD3DF19A-D83F-4C46-B819-463B69F1BB92";
paths = (
{
nodes = (
"227 -310 LINE SMOOTH",
"227 -344 OFFCURVE",
"273 -388 OFFCURVE",
"307 -388 QCURVE SMOOTH",
"408 -388 LINE SMOOTH",
"427 -388 OFFCURVE",
"461 -373 OFFCURVE",
"487 -346 OFFCURVE",
"502 -309 OFFCURVE",
"502 -288 QCURVE",
"456 -288 LINE",
"456 -311 OFFCURVE",
"428 -345 OFFCURVE",
"408 -345 QCURVE SMOOTH",
"338 -345 LINE",
"338 -316 OFFCURVE",
"337 -253 OFFCURVE",
"337 -224 QCURVE",
"444 -224 LINE",
"444 0 LINE",
"479 0 LINE",
"479 -6 LINE",
"566 -93 LINE",
"566 -288 LINE",
"624 -346 LINE",
"624 -381 OFFCURVE",
"604 -441 OFFCURVE",
"569 -485 OFFCURVE",
"523 -510 OFFCURVE",
"498 -510 QCURVE SMOOTH",
"397 -510 LINE SMOOTH",
"348 -510 OFFCURVE",
"316 -478 QCURVE SMOOTH",
"243 -405 LINE",
"220 -391 OFFCURVE",
"192 -341 OFFCURVE",
"192 -310 QCURVE SMOOTH",
"192 -268 LINE SMOOTH",
"192 -244 OFFCURVE",
"210 -202 OFFCURVE",
"241 -172 OFFCURVE",
"283 -154 OFFCURVE",
"307 -154 QCURVE SMOOTH",
"315 -154 LINE",
"315 0 LINE",
"350 0 LINE",
"350 -189 LINE",
"307 -189 LINE SMOOTH",
"273 -189 OFFCURVE",
"227 -235 OFFCURVE",
"227 -268 QCURVE SMOOTH"
);
}
);
width = 833;
}
);
},
{
glyphname = caroncomb.alt;
layers = (
{
layerId = "CD3DF19A-D83F-4C46-B819-463B69F1BB92";
paths = (
{
nodes = (
"163 796 LINE",
"158 796 LINE",
"67 1025 LINE",
"214 1083 LINE",
"225 1066 LINE",
"300 991 LINE",
"362 1083 LINE",
"508 1025 LINE",
"506 1020 LINE",
"594 933 LINE",
"505 709 LINE",
"250 709 LINE"
);
},
{
nodes = (
"287 908 LINE",
"199 1039 LINE",
"113 1005 LINE",
"182 831 LINE",
"393 831 LINE",
"462 1005 LINE",
"376 1039 LINE"
);
}
);
width = 605;
}
);
},
{
glyphname = idotless;
layers = (
{
layerId = "CD3DF19A-D83F-4C46-B819-463B69F1BB92";
paths = (
{
nodes = (
"520 730 LINE",
"520 724 LINE",
"607 637 LINE",
"607 -122 LINE",
"126 -122 LINE",
"39 -35 LINE",
"33 -35 LINE",
"33 730 LINE"
);
},
{
nodes = (
"68 695 LINE",
"68 0 LINE",
"485 0 LINE",
"485 695 LINE"
);
}
);
width = 645;
}
);
unicode = 0131;
},
{
glyphname = Wdieresis;
layers = (
{
layerId = "CD3DF19A-D83F-4C46-B819-463B69F1BB92";
paths = (
{
nodes = (
"321 935 OFFCURVE",
"339 978 OFFCURVE",
"370 1009 OFFCURVE",
"412 1027 OFFCURVE",
"436 1027 QCURVE SMOOTH",
"468 1027 OFFCURVE",
"520 997 OFFCURVE",
"535 971 QCURVE",
"594 913 LINE",
"594 937 OFFCURVE",
"612 979 OFFCURVE",
"643 1009 OFFCURVE",
"685 1027 OFFCURVE",
"709 1027 QCURVE SMOOTH",
"741 1027 OFFCURVE",
"793 997 OFFCURVE",
"808 971 QCURVE",
"879 901 LINE SMOOTH",
"894 886 OFFCURVE",
"912 844 OFFCURVE",
"912 821 QCURVE SMOOTH",
"912 797 OFFCURVE",
"894 756 OFFCURVE",
"864 726 OFFCURVE",
"823 709 OFFCURVE",
"799 709 QCURVE SMOOTH",
"751 709 OFFCURVE",
"719 741 QCURVE SMOOTH",
"646 813 LINE",
"639 819 LINE",
"639 796 OFFCURVE",
"621 756 OFFCURVE",
"590 726 OFFCURVE",
"549 709 OFFCURVE",
"526 709 QCURVE SMOOTH",
"502 709 OFFCURVE",
"461 726 OFFCURVE",
"446 741 QCURVE SMOOTH",
"373 813 LINE",
"349 828 OFFCURVE",
"321 879 OFFCURVE",
"321 911 QCURVE SMOOTH"
);
},
{
nodes = (
"629 877 OFFCURVE",
"675 831 OFFCURVE",
"709 831 QCURVE SMOOTH",
"743 831 OFFCURVE",
"790 877 OFFCURVE",
"790 911 QCURVE SMOOTH",
"790 945 OFFCURVE",
"743 992 OFFCURVE",
"709 992 QCURVE SMOOTH",
"675 992 OFFCURVE",
"629 945 OFFCURVE",
"629 911 QCURVE SMOOTH"
);
},
{
nodes = (
"356 877 OFFCURVE",
"402 831 OFFCURVE",
"436 831 QCURVE SMOOTH",
"470 831 OFFCURVE",
"517 877 OFFCURVE",
"517 911 QCURVE SMOOTH",
"517 945 OFFCURVE",
"470 992 OFFCURVE",
"436 992 QCURVE SMOOTH",
"402 992 OFFCURVE",
"356 945 OFFCURVE",
"356 911 QCURVE SMOOTH"
);
},
{
nodes = (
"1271 724 LINE",
"1359 637 LINE",
"1018 -122 LINE",
"907 -122 LINE",
"820 -35 LINE",
"815 -35 LINE",
"675 275 LINE",
"496 -122 LINE",
"387 -122 LINE",
"300 -35 LINE",
"295 -35 LINE",
"-50 730 LINE",
"444 730 LINE",
"448 721 LINE",
"532 637 LINE",
"548 601 LINE",
"606 730 LINE",
"964 730 LINE",
"968 721 LINE",
"1052 637 LINE",
"1069 599 LINE",
"1083 632 OFFCURVE",
"1114 697 OFFCURVE",
"1128 730 QCURVE",
"1274 730 LINE"
);
},
{
nodes = (
"1220 695 LINE",
"1151 695 LINE",
"1047 463 LINE",
"942 695 LINE",
"629 695 LINE",
"525 463 LINE",
"421 695 LINE",
"4 695 LINE",
"317 0 LINE",
"386 0 LINE",
"612 502 LINE",
"838 0 LINE",
"908 0 LINE"
);
}
);
width = 1331;
}
);
unicode = 1E84;
},
